<svg width="33" height="33" fill="none" xmlns="http://www.w3.org/2000/svg"><path d="M33 15.64V6.533C33 2.924 30.046 0 26.4 0c-3.645 0-6.6 2.924-6.6 6.532v8.164h-6.599V6.532C13.201 2.924 10.245 0 6.6 0 2.954 0 0 2.924 0 6.532v4.898a6.54 6.54 0 0 0 .396 2.232c.067.184.144.363.226.538.01.02.018.042.03.06a6.74 6.74 0 0 0 .742 1.181 6.632 6.632 0 0 0 3.556 2.312c.526.135 1.08.205 1.65.205h3.3v8.092c0 1.831-1.514 3.375-3.364 3.34-1.794-.034-3.236-1.482-3.236-3.265v-6.741A8.659 8.659 0 0 1 0 17.019v9.11c0 3.607 2.954 6.531 6.6 6.531 3.645 0 6.6-2.924 6.6-6.532v-8.164h6.599v8.164c0 3.608 2.954 6.532 6.6 6.532 3.645 0 6.6-2.924 6.6-6.532V21.23c0-.297-.022-.59-.062-.877a6.448 6.448 0 0 0-.22-1.007 6.468 6.468 0 0 0-.37-.947 6.904 6.904 0 0 0-.229-.424 6.524 6.524 0 0 0-2.18-2.256 6.626 6.626 0 0 0-3.54-1.021h-3.3V6.606c0-1.83 1.514-3.374 3.364-3.34 1.794.034 3.236 1.483 3.236 3.266v6.74A8.721 8.721 0 0 1 33 15.641zm-23.1-.942H6.6c-1.823 0-3.3-1.462-3.3-3.266V6.606c0-1.83 1.513-3.374 3.363-3.34 1.794.034 3.236 1.483 3.236 3.266v8.166zm16.427 3.266c1.863 0 3.373 1.494 3.373 3.338v4.76c0 1.67-1.371 3.203-3.056 3.323-1.932.138-3.545-1.375-3.545-3.259v-8.162h3.228z" fill="#00AEEE"/><path opacity=".15" d="M13.198 17.965h-3.3v1.922h3.3v-1.922z" fill="url(#paint0_linear)"/><path opacity=".15" d="M23.1 17.965h-3.3v1.922h3.3v-1.922z" fill="url(#paint1_linear)"/><defs><linearGradient id="paint0_linear" x1="11.549" y1="19.887" x2="11.549" y2="17.964" gradientUnits="userSpaceOnUse"><stop stop-opacity="0"/><stop offset="1"/></linearGradient><linearGradient id="paint1_linear" x1="21.451" y1="19.887" x2="21.451" y2="17.964" gradientUnits="userSpaceOnUse"><stop stop-opacity="0"/><stop offset="1"/></linearGradient></defs></svg>