<svg width="170" height="48" fill="none" xmlns="http://www.w3.org/2000/svg"><path d="M46.898 22.987V9.6c0-5.303-4.198-9.6-9.378-9.6s-9.379 4.297-9.379 9.6v11.999h-9.38v-12C18.76 4.297 14.56 0 9.38 0 4.197 0 0 4.297 0 9.6v7.199c0 .587.055 1.16.153 1.715a9.546 9.546 0 0 0 .732 2.355c.013.031.024.062.04.09a9.98 9.98 0 0 0 1.057 1.735 9.523 9.523 0 0 0 3.745 2.945 9.134 9.134 0 0 0 3.652.754h4.69v11.893c0 2.69-2.151 4.959-4.78 4.909-2.55-.05-4.6-2.18-4.6-4.8v-9.907A12.325 12.325 0 0 1 0 25.013V38.4C0 43.703 4.198 48 9.38 48c5.18 0 9.378-4.297 9.378-9.6V26.402h9.38v12c0 5.302 4.198 9.599 9.378 9.599 5.181 0 9.38-4.297 9.38-9.6v-7.199c0-.436-.03-.866-.088-1.288a9.745 9.745 0 0 0-.311-1.48 9.695 9.695 0 0 0-.527-1.391c-.1-.213-.21-.42-.325-.624a9.558 9.558 0 0 0-2.735-3.068 9.19 9.19 0 0 0-5.394-1.749h-4.69V9.709c0-2.69 2.152-4.959 4.78-4.908 2.55.05 4.6 2.179 4.6 4.8v9.906a12.413 12.413 0 0 1 4.692 3.481zm-32.83-1.385H9.38c-2.59 0-4.69-2.149-4.69-4.8V9.708c0-2.69 2.152-4.959 4.78-4.908 2.55.05 4.6 2.179 4.6 4.8v12.002zm23.347 4.8c2.648 0 4.794 2.195 4.794 4.905v6.996c0 2.456-1.95 4.707-4.343 4.883-2.746.204-5.04-2.02-5.04-4.788V26.4h4.59z" fill="#00AEEE"/><path opacity=".15" d="M18.758 26.4h-4.69v2.825h4.69V26.4z" fill="url(#paint0_linear)"/><path opacity=".15" d="M32.83 26.4h-4.69v2.825h4.69V26.4z" fill="url(#paint1_linear)"/><path d="M66.284 12.547h5.762v9.54h9.388v-9.54h5.762v23.191h-5.762v-9.013h-9.388v9.013h-5.762V12.547zM94.512 9.73c1.717 0 2.945 1.26 2.945 3.015 0 1.788-1.231 3.048-2.945 3.048-1.717 0-2.946-1.26-2.946-3.048 0-1.757 1.229-3.015 2.946-3.015zm-2.817 8.15h5.568v17.858h-5.568V17.88zm12.883-8.15c1.717 0 2.945 1.26 2.945 3.015 0 1.788-1.231 3.048-2.945 3.048-1.717 0-2.945-1.26-2.945-3.048 0-1.757 1.231-3.015 2.945-3.015zm-2.817 8.15h5.569v17.858h-5.569V17.88zm10.067 0h5.601v2.917c1.231-2.087 3.238-3.15 5.828-3.18 3.852 0 6.377 2.685 6.377 6.859V35.74h-5.569v-9.677c0-2.087-1.198-3.38-3.076-3.38-2.039 0-3.333 1.491-3.56 3.612v9.443h-5.601V17.88zm27.745-.2c2.232-.033 3.982.828 5.148 2.387v-2.188h5.568v16.235c0 5.068-3.819 8.283-9.453 8.283-3.043 0-5.795-.994-7.768-2.352l1.943-3.878c1.586 1.126 3.53 1.788 5.405 1.788 2.686 0 4.305-1.458 4.305-3.676v-1.89c-1.133 1.526-2.85 2.387-5.017 2.387-4.403 0-7.51-3.445-7.51-8.647-.002-5.068 3.008-8.448 7.379-8.448zm1.52 12.955c2.17 0 3.625-1.788 3.625-4.341 0-2.618-1.458-4.372-3.625-4.372-2.2 0-3.69 1.788-3.69 4.372 0 2.55 1.49 4.341 3.69 4.341zm18.808-5.631h4.596v-.266c0-1.757-1.132-2.816-3.398-2.816-1.458 0-3.366.531-5.211 1.492l-1.586-3.777c2.719-1.29 5.178-2.02 8.094-2.02 4.79 0 7.574 2.42 7.607 6.462V35.74h-5.47v-2.053c-1.133 1.525-2.978 2.319-5.342 2.319-3.723 0-5.989-2.319-5.989-5.599-.003-3.383 2.361-5.37 6.699-5.403zm1.004 7.121c1.747 0 3.238-.994 3.592-2.453v-1.59h-3.529c-1.684 0-2.525.596-2.525 1.923.003 1.293.909 2.12 2.462 2.12z" fill="#fff"/><defs><linearGradient id="paint0_linear" x1="16.414" y1="29.225" x2="16.414" y2="26.4" gradientUnits="userSpaceOnUse"><stop stop-opacity="0"/><stop offset="1"/></linearGradient><linearGradient id="paint1_linear" x1="30.484" y1="29.225" x2="30.484" y2="26.4" gradientUnits="userSpaceOnUse"><stop stop-opacity="0"/><stop offset="1"/></linearGradient></defs></svg>