<svg width="171" height="140" fill="none" xmlns="http://www.w3.org/2000/svg"><path d="M104.238 136.945h41.615V65.76h12.066c10.024 0 13.669-13.221 5.066-18.361l-21.579-12.893V15.938a3.448 3.448 0 0 0-3.45-3.45h-15.723a3.448 3.448 0 0 0-3.451 3.45v5.055L90.97 4.394a9.88 9.88 0 0 0-10.121 0L8.833 47.4C.219 52.54 3.863 65.76 13.9 65.76h14.495v71.186h42.71v-54.38h33.133v54.38z" stroke="#fff" stroke-width="6" stroke-miterlimit="10"/><path d="M104.238 136.945h41.615V65.76h12.066c10.024 0 13.669-13.221 5.066-18.361l-21.579-12.893V15.938a3.448 3.448 0 0 0-3.45-3.45h-15.723a3.448 3.448 0 0 0-3.451 3.45v5.055L90.97 4.394a9.88 9.88 0 0 0-10.121 0L8.833 47.4C.219 52.54 3.863 65.76 13.9 65.76h14.495v71.186h42.71v-54.38h33.133v54.38z" stroke="url(#paint0_linear)" stroke-width="6" stroke-miterlimit="10"/><defs><linearGradient id="paint0_linear" x1="85.905" y1="3" x2="85.905" y2="136.945" gradientUnits="userSpaceOnUse"><stop stop-color="#fff"/><stop offset="1" stop-color="#fff" stop-opacity="0"/></linearGradient></defs></svg>