<svg width="483" height="338" fill="none" xmlns="http://www.w3.org/2000/svg"><path d="M196.845 106.687L87.139 0-22.089 105.936v207.096h219.207l-.273-206.345z" fill="#747F89"/><path d="M-22.501 129.546h260.155v183.486H-22.501V129.546zm.411-23.61L87.137 0H71.066L-38.367 106.004l16.276-.068z" fill="#CED9E1"/><path d="M335.489 22.621l-256.538.034-112.094 110.269h256.708L335.489 22.621z" fill="#7C5D5D"/><path d="M223.569 132.923l8.19 8.189h-256.3l-8.394-8.393 256.504.204z" fill="#3B4146"/><path d="M335.486 22.62L223.562 132.923l8.19 8.189L338.25 34.152l-2.764-11.532z" fill="#3B4146"/><path d="M472.831 106.687L363.125 0 253.896 105.936v207.096h219.208l-.273-206.345z" fill="#747F89"/><path d="M253.905 105.936L363.133 0h-16.072L237.662 106.004l16.243-.068zm-16.247.068H253.9v207.027h-16.242V106.004z" fill="#CED9E1"/><path opacity=".12" d="M-24.546 141.112l8.122 8.086h253.33v-14.739l-5.153 6.653H-24.546z" fill="#010101"/><path d="M270.621 311.736h211.598v24.531H270.621v-24.531z" fill="#B7B7B8"/><path d="M-48.875 311.736h320.45v24.531h-320.45v-24.531z" fill="#D3D3D3"/><path d="M167.225 202.627h37.024v60.559h-37.024v-60.559z" fill="#3B4146"/><path d="M161.258 196.725l6.62 6.755h36.409v-6.755h-43.029z" fill="#747F89"/><path opacity=".12" d="M167.874 203.377v59.808l-6.654-.068v-66.359l6.654 6.619z" fill="#010101"/><path d="M87.007 202.627h37.024v60.559H87.007v-60.559z" fill="#3B4146"/><path d="M81.03 196.725l6.654 6.755h36.376v-6.755H81.03z" fill="#747F89"/><path opacity=".12" d="M87.655 203.377v59.808l-6.654-.068v-66.359l6.654 6.619z" fill="#010101"/><path d="M6.818 202.627H43.84v60.559H6.818v-60.559z" fill="#3B4146"/><path d="M.84 196.725l6.62 6.755h36.41v-6.755H.84z" fill="#747F89"/><path opacity=".12" d="M7.466 203.377v59.808l-6.654-.068v-66.359l6.654 6.619z" fill="#010101"/><path d="M312.392 133.094h32.519V336.3h-32.519V133.094z" fill="#CED9E1"/><path d="M344.977 154.315h96.773V336.3h-96.773V154.315z" fill="#747F89"/><path d="M312.386 122.552l40.061 40.259h102.301l-38.798-40.259H312.386z" fill="#7C5D5D"/><path d="M352.445 162.811v9.178l-40.06-40.055v-9.382l40.06 40.259z" fill="#8F7373"/><path d="M352.447 162.811h102.301v9.177H352.447v-9.177z" fill="#735858"/><path d="M394.694 191.981c14.98 0 27.128 12.146 27.128 27.124v92.528h-54.256v-92.528c0-14.978 12.148-27.124 27.128-27.124z" fill="#3B4146"/><path d="M416.158 311.668V218.39c0-13.409-10.886-24.292-24.296-24.292s-24.296 10.883-24.296 24.292v93.278h48.592z" fill="#747F89"/><path d="M405.95 311.667v-93.278c0-10.611-8.633-19.243-19.246-19.243-10.612 0-19.245 8.632-19.245 19.243v93.278h38.491z" fill="#3B4146"/><path d="M439.786 323.811h-81.145v-11.566h81.145v11.566z" fill="#D3D3D3"/><path d="M448.357 337.533h-79.131v-12.794h79.131v12.794z" fill="#DDD"/><path d="M356.711 311.839v13.033h9.93v11.395h-30.575v-24.531l20.645.103z" fill="#F5F6F6"/><path opacity=".12" d="M312.389 131.934l40.061 40.054h89.3v9.144h-96.842l-33.201-33.231.682-15.967z" fill="#010101"/></svg>