<svg width="113" height="127" fill="none" xmlns="http://www.w3.org/2000/svg"><path d="M108.464 107.488c-3.701-12.356-20.045-21.006-20.045-21.006 7.71-9.215 12.027-25.897 0-38.82C65.239 22.693 25.972 31.6 12.146 4.26 3.82-5.11-4.815 39.63 15.538 76.65c12.438 22.705 39.576 31.869 57.719 22.86 2.518-1.236 6.681-5.2 8.789-6.797 0 0 12.797 14.519 13.157 25.537.309 10.76 16.961 1.544 13.261-10.761z" stroke="#003249" stroke-width="6" stroke-miterlimit="10"/><path d="M26 40c.427 17.2 34.588 8.618 41 33" stroke="#003249" stroke-width="6" stroke-miterlimit="10" stroke-linecap="round"/></svg>