<svg width="172" height="144" fill="none" xmlns="http://www.w3.org/2000/svg"><path d="M114.357 72.376v-7.871" stroke="#fff" stroke-width="6" stroke-miterlimit="10"/><path d="M114.357 72.376v-7.871" stroke="url(#paint0_linear)" stroke-width="6" stroke-miterlimit="10"/><path d="M114.357 7.872V0" stroke="#fff" stroke-width="6" stroke-miterlimit="10"/><path d="M114.357 7.872V0" stroke="url(#paint1_linear)" stroke-width="6" stroke-miterlimit="10"/><path d="M99.838 51.757c.522 7.523 6.824 13.479 14.485 13.479 8.009 0 14.52-6.513 14.52-14.524s-6.511-14.524-14.52-14.524-14.52-6.514-14.52-14.524c0-8.011 6.511-14.524 14.52-14.524 6.72 0 12.396 4.597 14.033 10.797" stroke="#fff" stroke-width="6" stroke-miterlimit="10"/><path d="M99.838 51.757c.522 7.523 6.824 13.479 14.485 13.479 8.009 0 14.52-6.513 14.52-14.524s-6.511-14.524-14.52-14.524-14.52-6.514-14.52-14.524c0-8.011 6.511-14.524 14.52-14.524 6.72 0 12.396 4.597 14.033 10.797" stroke="url(#paint2_linear)" stroke-width="6" stroke-miterlimit="10"/><path d="M134.445 91.773l-.034.011-18.437 4.773c-1.026-1.876-2.585-3.418-4.439-4.383-.673-.394-7.908-4.562-16.144-9.12-8.274-4.58-17.597-9.576-22.277-11.522-2.191-.924-4.73-1.242-7.11-1.158-2.378.085-4.637.573-6.274 1.301L25.16 86.937l-2.513-5.702-.001-.003c-.267-.62-.753-1.052-1.341-1.305l-.014-.006-.015-.005a2.524 2.524 0 0 0-1.863.046l-.004.002-17.44 7.696h-.003C.73 88.193.176 89.638.694 90.889l.004.01 22.353 50.777.001.003c.265.615.746 1.046 1.328 1.299.301.147.626.186.906.186.368 0 .68-.094.963-.215l.004-.002 17.441-7.661h.002c1.236-.532 1.79-1.976 1.273-3.228l-.004-.01-3.072-6.961 14.613-6.441 41.493 14.667.008.003c.262.087.524.13.82.13.227 0 .478-.044.655-.079l.031-.006.03-.01.142-.046c1.719-.549 16.917-5.401 43.177-19.037h.001c4.737-2.474 16.549-8.782 23.628-12.898l.003-.002c2.072-1.221 3.521-3.261 3.93-5.64.407-2.338-.224-4.683-1.749-6.47-3.86-4.527-7.649-6.454-11.232-5.233h-.002c-2.818.975-8.578 2.916-13.637 4.614a7499.657 7499.657 0 0 1-8.65 2.898l-.562.188-.147.049zm-97.986 32.979v.002l3.07 6.927-12.977 5.759L6.167 91.126 19.146 85.4l2.514 5.707 14.799 33.645zm129.183-29.888v.002a3.205 3.205 0 0 1-1.565 2.258l-.004.002c-6.989 4.069-18.715 10.334-23.413 12.771-23.573 12.217-38.386 17.394-41.755 18.48l-41.62-14.709c-.59-.225-1.247-.174-1.806.083l-15.521 6.832-12.863-29.178 34.64-15.262c.925-.406 2.499-.78 4.266-.873 1.764-.093 3.667.096 5.263.771l.002.001c4.495 1.868 13.878 6.91 22.209 11.53a1190.936 1190.936 0 0 1 15.338 8.664l.27.156.076.044.022.013.007.004.002.001.015.01.015.007c1.508.77 2.569 2.083 3.054 3.731.451 1.645.225 3.313-.643 4.761-1.544 2.539-4.763 3.602-7.529 2.477l-.002-.001-19.178-8.007h-.002a2.43 2.43 0 0 0-3.198 1.31c-.529 1.24.092 2.675 1.309 3.197l.004.002 19.186 8.01.005.002c1.343.545 2.765.838 4.157.838 3.754 0 7.403-1.931 9.413-5.293a10.913 10.913 0 0 0 1.529-6.218l18.468-4.805.017-.005.016-.005-.022-.066.023.066.003-.001.009-.004.038-.012.148-.05.567-.19 2.065-.694 6.65-2.236a2404.04 2404.04 0 0 0 13.713-4.651c.557-.19 1.367-.052 2.425.59 1.044.633 2.24 1.705 3.509 3.197l.003.004c.597.687.835 1.546.685 2.446z" fill="#fff"/><path d="M134.445 91.773l-.034.011-18.437 4.773c-1.026-1.876-2.585-3.418-4.439-4.383-.673-.394-7.908-4.562-16.144-9.12-8.274-4.58-17.597-9.576-22.277-11.522-2.191-.924-4.73-1.242-7.11-1.158-2.378.085-4.637.573-6.274 1.301L25.16 86.937l-2.513-5.702-.001-.003c-.267-.62-.753-1.052-1.341-1.305l-.014-.006-.015-.005a2.524 2.524 0 0 0-1.863.046l-.004.002-17.44 7.696h-.003C.73 88.193.176 89.638.694 90.889l.004.01 22.353 50.777.001.003c.265.615.746 1.046 1.328 1.299.301.147.626.186.906.186.368 0 .68-.094.963-.215l.004-.002 17.441-7.661h.002c1.236-.532 1.79-1.976 1.273-3.228l-.004-.01-3.072-6.961 14.613-6.441 41.493 14.667.008.003c.262.087.524.13.82.13.227 0 .478-.044.655-.079l.031-.006.03-.01.142-.046c1.719-.549 16.917-5.401 43.177-19.037h.001c4.737-2.474 16.549-8.782 23.628-12.898l.003-.002c2.072-1.221 3.521-3.261 3.93-5.64.407-2.338-.224-4.683-1.749-6.47-3.86-4.527-7.649-6.454-11.232-5.233h-.002c-2.818.975-8.578 2.916-13.637 4.614a7499.657 7499.657 0 0 1-8.65 2.898l-.562.188-.147.049zm-97.986 32.979v.002l3.07 6.927-12.977 5.759L6.167 91.126 19.146 85.4l2.514 5.707 14.799 33.645zm129.183-29.888v.002a3.205 3.205 0 0 1-1.565 2.258l-.004.002c-6.989 4.069-18.715 10.334-23.413 12.771-23.573 12.217-38.386 17.394-41.755 18.48l-41.62-14.709c-.59-.225-1.247-.174-1.806.083l-15.521 6.832-12.863-29.178 34.64-15.262c.925-.406 2.499-.78 4.266-.873 1.764-.093 3.667.096 5.263.771l.002.001c4.495 1.868 13.878 6.91 22.209 11.53a1190.936 1190.936 0 0 1 15.338 8.664l.27.156.076.044.022.013.007.004.002.001.015.01.015.007c1.508.77 2.569 2.083 3.054 3.731.451 1.645.225 3.313-.643 4.761-1.544 2.539-4.763 3.602-7.529 2.477l-.002-.001-19.178-8.007h-.002a2.43 2.43 0 0 0-3.198 1.31c-.529 1.24.092 2.675 1.309 3.197l.004.002 19.186 8.01.005.002c1.343.545 2.765.838 4.157.838 3.754 0 7.403-1.931 9.413-5.293a10.913 10.913 0 0 0 1.529-6.218l18.468-4.805.017-.005.016-.005-.022-.066.023.066.003-.001.009-.004.038-.012.148-.05.567-.19 2.065-.694 6.65-2.236a2404.04 2404.04 0 0 0 13.713-4.651c.557-.19 1.367-.052 2.425.59 1.044.633 2.24 1.705 3.509 3.197l.003.004c.597.687.835 1.546.685 2.446z" fill="url(#paint3_linear)"/><path d="M134.445 91.773l-.034.011-18.437 4.773c-1.026-1.876-2.585-3.418-4.439-4.383-.673-.394-7.908-4.562-16.144-9.12-8.274-4.58-17.597-9.576-22.277-11.522-2.191-.924-4.73-1.242-7.11-1.158-2.378.085-4.637.573-6.274 1.301L25.16 86.937l-2.513-5.702-.001-.003c-.267-.62-.753-1.052-1.341-1.305l-.014-.006-.015-.005a2.524 2.524 0 0 0-1.863.046l-.004.002-17.44 7.696h-.003C.73 88.193.176 89.638.694 90.889l.004.01 22.353 50.777.001.003c.265.615.746 1.046 1.328 1.299.301.147.626.186.906.186.368 0 .68-.094.963-.215l.004-.002 17.441-7.661h.002c1.236-.532 1.79-1.976 1.273-3.228l-.004-.01-3.072-6.961 14.613-6.441 41.493 14.667.008.003c.262.087.524.13.82.13.227 0 .478-.044.655-.079l.031-.006.03-.01.142-.046c1.719-.549 16.917-5.401 43.177-19.037h.001c4.737-2.474 16.549-8.782 23.628-12.898l.003-.002c2.072-1.221 3.521-3.261 3.93-5.64.407-2.338-.224-4.683-1.749-6.47-3.86-4.527-7.649-6.454-11.232-5.233h-.002c-2.818.975-8.578 2.916-13.637 4.614a7499.657 7499.657 0 0 1-8.65 2.898l-.562.188-.147.049zm-97.986 32.979v.002l3.07 6.927-12.977 5.759L6.167 91.126 19.146 85.4l2.514 5.707 14.799 33.645zm129.183-29.888v.002a3.205 3.205 0 0 1-1.565 2.258l-.004.002c-6.989 4.069-18.715 10.334-23.413 12.771-23.573 12.217-38.386 17.394-41.755 18.48l-41.62-14.709c-.59-.225-1.247-.174-1.806.083l-15.521 6.832-12.863-29.178 34.64-15.262c.925-.406 2.499-.78 4.266-.873 1.764-.093 3.667.096 5.263.771l.002.001c4.495 1.868 13.878 6.91 22.209 11.53a1190.936 1190.936 0 0 1 15.338 8.664l.27.156.076.044.022.013.007.004.002.001.015.01.015.007c1.508.77 2.569 2.083 3.054 3.731.451 1.645.225 3.313-.643 4.761-1.544 2.539-4.763 3.602-7.529 2.477l-.002-.001-19.178-8.007h-.002a2.43 2.43 0 0 0-3.198 1.31c-.529 1.24.092 2.675 1.309 3.197l.004.002 19.186 8.01.005.002c1.343.545 2.765.838 4.157.838 3.754 0 7.403-1.931 9.413-5.293a10.913 10.913 0 0 0 1.529-6.218l18.468-4.805.017-.005.016-.005-.022-.066.023.066.003-.001.009-.004.038-.012.148-.05.567-.19 2.065-.694 6.65-2.236a2404.04 2404.04 0 0 0 13.713-4.651c.557-.19 1.367-.052 2.425.59 1.044.633 2.24 1.705 3.509 3.197l.003.004c.597.687.835 1.546.685 2.446z" stroke="#fff"/><defs><linearGradient id="paint0_linear" x1="114.857" y1="64.505" x2="114.857" y2="72.376" gradientUnits="userSpaceOnUse"><stop stop-color="#fff"/><stop offset="1" stop-color="#fff" stop-opacity="0"/></linearGradient><linearGradient id="paint1_linear" x1="114.857" x2="114.857" y2="7.872" gradientUnits="userSpaceOnUse"><stop stop-color="#fff"/><stop offset="1" stop-color="#fff" stop-opacity="0"/></linearGradient><linearGradient id="paint2_linear" x1="114.323" y1="7.14" x2="114.323" y2="65.236" gradientUnits="userSpaceOnUse"><stop stop-color="#fff"/><stop offset="1" stop-color="#fff" stop-opacity="0"/></linearGradient><linearGradient id="paint3_linear" x1="85.522" y1="70.861" x2="85.522" y2="142.663" gradientUnits="userSpaceOnUse"><stop stop-color="#fff"/><stop offset="1" stop-color="#fff" stop-opacity="0"/></linearGradient></defs></svg>