<svg width="159" height="155" fill="none" xmlns="http://www.w3.org/2000/svg"><path d="M77.83 118.159v-6.934m0-49.954v-6.923M65.028 99.993c.477 6.65 6.014 11.891 12.778 11.891 7.083 0 12.812-5.741 12.812-12.812 0-7.083-5.74-12.813-12.812-12.813-7.071 0-12.812-5.74-12.812-12.812 0-7.071 5.74-12.812 12.812-12.812 5.934 0 10.937 4.036 12.392 9.527m21.429-17.542L84.855 7.043c-3.206-5.456-11.13-5.377-14.223.16l-26.67 47.85m49.168 82.149h53.865c6.332 0 10.266-6.878 7.06-12.346l-31.32-53.319m-88.3.603l-29.49 52.886c-3.047 5.457.898 12.187 7.15 12.187h59.106" stroke="#fff" stroke-width="6" stroke-miterlimit="10"/><path d="M117.903 30.781l-6.162 22.055-22.487-6.275m21.009 105.966l-17.132-15.211 15.495-17.462M12.755 78.28l21.919-6.663 6.787 22.34" stroke="#fff" stroke-width="6" stroke-miterlimit="10"/></svg>