<svg width="1753" height="585" fill="none" xmlns="http://www.w3.org/2000/svg"><path d="M1289.16 498.815c-.5-2.1-2.31-.658-2.31-.658s.78-.815.22-1.536c-.53-.721-1.75-.063-1.75-.063s1.78-1.097.4-3.543c-1.37-2.446-5.03-1.756-7 .188-1.98 1.944-.82 3.794-.82 3.794-1.06-1.317-2.69-.847-3.53.69-.66-.565-1.35-.847-1.35-.847 3.1-5.205-2.81-11.789-7.97-10.346.43-.439 1.12-1.411.75-3.042-.54-2.289-2.1-2.633-3.44-2.257-1.38.376-1.44 2.038-1.44 2.038.31-5.33-9.51-7.149-11.3-.471-.71 2.728-.18 4.766.72 6.24-2.34-1.254-5.66-.251-7.5 1.787-2.35 2.571-.63 4.985-.63 4.985-1.66-1.818-3.88-.972-4.66 1.38-.78 2.351 1.25 4.17 1.25 4.17s-1.03-.533-1.47.282c-.09.188-.12.376-.12.564h-17.93c-.69 0-1.28.565-1.28 1.223v.972c0 .69.56 1.223 1.28 1.223l68.01.157s4.53-.095 4.78-3.543c-.25-2.509-2.91-3.387-2.91-3.387z" fill="url(#paint0_linear)" stroke="url(#paint1_linear)" stroke-miterlimit="10"/><path d="M1605.79 548.958l142.83.439s7.94-1.724-1.88-5.706c0 0 2.44-2.509 1.16-4.672-1.29-2.163-4.2-.784-4.2-.784s5.73-4.797 3.51-10.942c-2.22-6.146-8.51-8.403-13.2-3.606 0 0 4.88-6.333-1.72-12.98-5.23-5.299-14.58-7.964-21.18-4.672 2.57-3.825 4.1-9.155 2.03-16.304-5.03-17.464-32.75-12.729-31.84 1.192 0 0-.19-4.358-4.03-5.362-3.85-1.003-8.26-.094-9.76 5.863-1.07 4.296.9 6.867 2.09 7.964-14.54-3.794-31.25 13.388-22.49 26.996 0 0-1.94.721-3.82 2.194-2.34-3.982-6.91-5.267-9.94-1.818 0 0 3.25-4.86-2.32-9.908-5.56-5.048-15.89-6.898-19.73-.502-3.85 6.396 1.12 9.281 1.12 9.281s-3.41-1.756-4.94.188c-1.53 1.913.66 4.045.66 4.045s-5.1-3.731-6.51 1.756c0 0-7.54 2.32-8.26 8.967.78 9.061 12.42 8.371 12.42 8.371z" fill="url(#paint2_linear)" stroke="url(#paint3_linear)" stroke-miterlimit="10"/><path d="M1608.39 73.354c-3.72-11.13-13.36-3.73-13.36-3.73s4.04-4.265.66-8.184c-3.38-3.92-9.95-.47-9.95-.47s9.58-5.675.82-18.75c-6.54-9.72-19.49-10.315-30-5.8-8.2-8.905-21.24-13.921-33.03-9.28-8.57 3.385-13.55 9.405-16.36 15.676-1.44-4.985-3.91-8.434-3.91-8.434s6.79-4.107 4.5-13.325c-2.31-9.218-9.1-10.598-15.04-9.062-5.95 1.537-6.23 8.278-6.23 8.278 1.41-21.54-41.41-28.814-49.17-1.85-1.5 5.173-1.75 9.72-1.22 13.701-6.41 1.286-12.64 4.547-16.99 8.999-5.81 5.957-5.78 11.695-4.72 15.52-.75.407-1.5.909-2.25 1.536-.19-.094-.38-.157-.56-.22 1.5-3.198 3.69-10.722-4.26-18.247-10.48-9.908-30.81-13.075-39.38 0-8.54 13.106 1.03 18.624 1.03 18.624s-6.6-3.355-9.88.596c-3.29 3.95.78 8.12.78 8.12s-9.7-7.243-13.23 3.857c0 0-31.19 2.665-25.96 23.39l-43.45.564c-2.29.031-4.1 1.85-4.07 4.044.03 2.195 1.91 3.982 4.19 3.951l345.87.627c12.35-26.055-14.83-30.13-14.83-30.13z" fill="url(#paint4_linear)" stroke="url(#paint5_linear)" stroke-miterlimit="10"/><path d="M19.047 155.808c3.723-11.13 13.357-3.731 13.357-3.731s-4.035-4.264-.657-8.183c3.378-3.919 9.947-.47 9.947-.47s-9.572-5.675-.813-18.75c6.537-9.719 19.487-10.315 29.998-5.8 8.195-8.905 21.239-13.921 33.031-9.281 8.571 3.386 13.545 9.406 16.36 15.677 1.439-4.985 3.91-8.434 3.91-8.434s-6.788-4.107-4.504-13.325c2.314-9.218 9.102-10.598 15.045-9.061 5.944 1.536 6.225 8.277 6.225 8.277-1.407-21.54 41.415-28.814 49.173-1.85 1.501 5.173 1.751 9.72 1.22 13.701 6.412 1.286 12.637 4.547 16.985 8.999 5.818 5.957 5.787 11.695 4.723 15.52.751.407 1.502.909 2.252 1.536.188-.094.376-.157.563-.219-1.501-3.198-3.691-10.723 4.255-18.248 10.478-9.908 30.811-13.074 39.381 0 8.54 13.106-1.032 18.624-1.032 18.624s6.6-3.355 9.885.596c3.284 3.95-.782 8.12-.782 8.12s9.696-7.242 13.231 3.857c0 0 31.187 2.665 25.963 23.389l43.448.565c2.283.031 4.098 1.85 4.066 4.044-.031 2.195-1.908 3.982-4.191 3.951l-345.866.627c-12.355-26.055 14.827-30.131 14.827-30.131z" fill="url(#paint6_linear)" stroke="url(#paint7_linear)" stroke-miterlimit="10"/><path d="M1475.54 562.032h37.16c-4.26-17.777 22.46-19.753 22.46-19.753 3.15-9.468 11.35-3.166 11.35-3.166s-3.44-3.606-.56-6.961c2.87-3.323 8.47-.408 8.47-.408s-8.13-4.828-.68-15.958c7.44-11.131 24.83-8.184 33.68.407 8.86 8.591 2.66 17.025 2.66 17.025 6.01-6.396 14.36-3.606 17.43 4.39 3.06 7.995-4.32 14.454-4.32 14.454s3.75-1.913 5.51.909c1.75 2.822-1.38 6.176-1.38 6.176 6.66-1.724 9.63.471 10.98 2.885h10.98c1.94 0 3.53 1.536 3.53 3.417 0 1.882-1.59 3.418-3.53 3.418h-153.74c-1.94 0-3.54-1.536-3.54-3.418 0-1.881 1.6-3.417 3.54-3.417z" fill="url(#paint8_linear)" stroke="url(#paint9_linear)" stroke-miterlimit="10"/><path d="M314.86 563.958l-142.826.439s-7.945-1.724 1.877-5.706c0 0-2.44-2.509-1.157-4.672 1.282-2.163 4.191-.784 4.191-.784s-5.724-4.797-3.503-10.942c2.221-6.146 8.508-8.403 13.2-3.606 0 0-4.88-6.333 1.72-12.98 5.224-5.299 14.577-7.964 21.177-4.672-2.565-3.825-4.098-9.155-2.033-16.304 5.036-17.464 32.75-12.729 31.843 1.192 0 0 .188-4.358 4.035-5.362 3.848-1.003 8.258-.094 9.76 5.863 1.063 4.296-.907 6.867-2.096 7.964 14.545-3.794 31.249 13.388 22.49 26.996 0 0 1.94.721 3.817 2.194 2.346-3.982 6.913-5.267 9.947-1.818 0 0-3.253-4.86 2.314-9.908 5.568-5.048 15.891-6.898 19.738-.502 3.848 6.396-1.126 9.281-1.126 9.281s3.41-1.756 4.942.188c1.533 1.913-.656 4.045-.656 4.045s5.098-3.731 6.506 1.756c0 0 7.538 2.32 8.258 8.967-.782 9.061-12.418 8.371-12.418 8.371z" fill="url(#paint10_linear)" stroke="url(#paint11_linear)" stroke-miterlimit="10"/><path d="M445.114 577.032h-37.161c4.254-17.777-22.459-19.753-22.459-19.753-3.159-9.468-11.355-3.166-11.355-3.166s3.441-3.606.563-6.961c-2.877-3.323-8.476-.408-8.476-.408s8.132-4.828.688-15.958c-7.445-11.131-24.837-8.184-33.689.407s-2.659 17.025-2.659 17.025c-6.006-6.396-14.358-3.606-17.423 4.39-3.065 7.995 4.317 14.454 4.317 14.454s-3.754-1.913-5.506.909c-1.751 2.822 1.377 6.176 1.377 6.176-6.663-1.724-9.635.471-10.98 2.885h-10.979c-1.939 0-3.535 1.536-3.535 3.417 0 1.882 1.596 3.418 3.535 3.418h153.742c1.94 0 3.535-1.536 3.535-3.418 0-1.881-1.595-3.417-3.535-3.417z" fill="url(#paint12_linear)" stroke="url(#paint13_linear)" stroke-miterlimit="10"/><defs><linearGradient id="paint0_linear" x1="1255.05" y1="478.46" x2="1255.05" y2="505.775" gradientUnits="userSpaceOnUse"><stop stop-color="#D7F0FC"/><stop offset=".299" stop-color="#D2EEFC"/><stop offset=".649" stop-color="#C3E9FB"/><stop offset="1" stop-color="#ABE1FA"/></linearGradient><linearGradient id="paint1_linear" x1="1216.46" y1="492.707" x2="1293.65" y2="492.707" gradientUnits="userSpaceOnUse"><stop stop-color="#E1F4FD"/><stop offset=".391" stop-color="#DCF0FC"/><stop offset=".847" stop-color="#CEE8F9"/><stop offset="1" stop-color="#C7E4F8"/></linearGradient><linearGradient id="paint2_linear" x1="1672.53" y1="478.493" x2="1672.53" y2="549.424" gradientUnits="userSpaceOnUse"><stop stop-color="#D7F0FC"/><stop offset=".033" stop-color="#D7F0FC"/><stop offset=".321" stop-color="#D1EDFB"/><stop offset=".673" stop-color="#C1E5F9"/><stop offset="1" stop-color="#ACDBF6"/></linearGradient><linearGradient id="paint3_linear" x1="1591.83" y1="513.958" x2="1753.22" y2="513.958" gradientUnits="userSpaceOnUse"><stop stop-color="#E1F4FD"/><stop offset=".391" stop-color="#DCF0FC"/><stop offset=".847" stop-color="#CEE8F9"/><stop offset="1" stop-color="#C7E4F8"/></linearGradient><linearGradient id="paint4_linear" x1="1449.79" y1="1.022" x2="1449.79" y2="103.488" gradientUnits="userSpaceOnUse"><stop stop-color="#E1F4FD"/><stop offset=".417" stop-color="#DEF2FC"/><stop offset=".763" stop-color="#D3EBFA"/><stop offset="1" stop-color="#C7E4F8"/></linearGradient><linearGradient id="paint5_linear" x1="1271.59" y1="52.256" x2="1627.99" y2="52.256" gradientUnits="userSpaceOnUse"><stop stop-color="#E1F4FD"/><stop offset=".391" stop-color="#DCF0FC"/><stop offset=".847" stop-color="#CEE8F9"/><stop offset="1" stop-color="#C7E4F8"/></linearGradient><linearGradient id="paint6_linear" x1="177.647" y1="83.476" x2="177.647" y2="185.942" gradientUnits="userSpaceOnUse"><stop stop-color="#E1F4FD"/><stop offset=".417" stop-color="#DEF2FC"/><stop offset=".763" stop-color="#D3EBFA"/><stop offset="1" stop-color="#C7E4F8"/></linearGradient><linearGradient id="paint7_linear" x1="355.848" y1="134.71" x2="-.554" y2="134.71" gradientUnits="userSpaceOnUse"><stop stop-color="#E1F4FD"/><stop offset=".391" stop-color="#DCF0FC"/><stop offset=".847" stop-color="#CEE8F9"/><stop offset="1" stop-color="#C7E4F8"/></linearGradient><linearGradient id="paint8_linear" x1="1552.4" y1="525.632" x2="1552.4" y2="565.713" gradientUnits="userSpaceOnUse"><stop stop-color="#D7F0FC"/><stop offset=".299" stop-color="#D2EEFC"/><stop offset=".649" stop-color="#C3E9FB"/><stop offset=".999" stop-color="#ABE1FA"/></linearGradient><linearGradient id="paint9_linear" x1="1470.44" y1="538.735" x2="1634.37" y2="538.735" gradientUnits="userSpaceOnUse"><stop stop-color="#E1F4FD"/><stop offset=".391" stop-color="#DCF0FC"/><stop offset=".847" stop-color="#CEE8F9"/><stop offset="1" stop-color="#C7E4F8"/></linearGradient><linearGradient id="paint10_linear" x1="248.119" y1="493.493" x2="248.119" y2="564.424" gradientUnits="userSpaceOnUse"><stop stop-color="#D7F0FC"/><stop offset=".033" stop-color="#D7F0FC"/><stop offset=".321" stop-color="#D1EDFB"/><stop offset=".673" stop-color="#C1E5F9"/><stop offset="1" stop-color="#ACDBF6"/></linearGradient><linearGradient id="paint11_linear" x1="328.818" y1="528.958" x2="167.428" y2="528.958" gradientUnits="userSpaceOnUse"><stop stop-color="#E1F4FD"/><stop offset=".391" stop-color="#DCF0FC"/><stop offset=".847" stop-color="#CEE8F9"/><stop offset="1" stop-color="#C7E4F8"/></linearGradient><linearGradient id="paint12_linear" x1="368.245" y1="540.632" x2="368.245" y2="580.713" gradientUnits="userSpaceOnUse"><stop stop-color="#D7F0FC"/><stop offset=".299" stop-color="#D2EEFC"/><stop offset=".649" stop-color="#C3E9FB"/><stop offset=".999" stop-color="#ABE1FA"/></linearGradient><linearGradient id="paint13_linear" x1="450.213" y1="553.735" x2="286.277" y2="553.735" gradientUnits="userSpaceOnUse"><stop stop-color="#E1F4FD"/><stop offset=".391" stop-color="#DCF0FC"/><stop offset=".847" stop-color="#CEE8F9"/><stop offset="1" stop-color="#C7E4F8"/></linearGradient></defs></svg>