<svg width="479" height="329" fill="none" xmlns="http://www.w3.org/2000/svg"><path d="M386.801 48.864c-2.805-3.285-13.07-6.137-12.128-14.828.239-2.184 3.342-10.6 3.568-11.015.997-1.863 4.262-2.332 4.686-2.287.113.013.248.05.356.058 6.116.668 5.864-3.551 12.106-2.87 3.211.352 3.662 2.14 5.078 2.293.014 0 2.67-.352 4.79-.122 5.078.555 7.636 4.472 7.636 4.472.266.027 1.461 1.218 1.461 1.218.095.009.14-.023.194-.014.428.046 6.986 5.614 7.288 8.732l.077 11.958c-1.29 11.899-18.835 25.066-24.468 24.646-5.214-.388-2.891-13.645-6.318-17.075-1.665-1.678-2.86-3.456-4.326-5.166z" fill="#000"/><path d="M384.614 25.932a8.705 8.705 0 0 0-2.571-.086c-6.224.731-10.18 8.37-9.327 15.65.059.509.117 1.028.18 1.551.965 8.226 2.048 8.48 3.559 8.303 5.417-.636 7.478-17.422 7.681-18.528.424-2.31.771-4.395.478-6.89z" fill="#000"/><path d="M275.539 124.451h-17.165v43.914h17.165v-43.914z" fill="#533015"/><path d="M188.872 314.028a4.698 4.698 0 0 1-3.96-5.342l11.812-79.697a4.697 4.697 0 0 1 5.34-3.962 4.699 4.699 0 0 1 3.96 5.342l-11.812 79.697a4.704 4.704 0 0 1-5.34 3.962z" fill="#465368"/><path d="M198.916 245.86h93.406v-19.136h-93.406v19.136z" fill="#465368"/><path d="M301.239 314.028a4.698 4.698 0 0 0 3.959-5.342l-11.812-79.697a4.697 4.697 0 0 0-5.34-3.962 4.699 4.699 0 0 0-3.96 5.342l11.812 79.697a4.702 4.702 0 0 0 5.341 3.962z" fill="#465368"/><path d="M188.47 235.612h64.541a5.793 5.793 0 0 0 5.791-5.794 5.793 5.793 0 0 0-5.791-5.794H188.47a5.794 5.794 0 0 0 0 11.588z" fill="#D87448"/><path d="M232.215 235.612h64.54a5.793 5.793 0 0 0 5.791-5.794 5.793 5.793 0 0 0-5.791-5.794h-64.54a5.794 5.794 0 0 0 0 11.588z" fill="#CA6B3A"/><path d="M240.22 171.952l-34.593-7.671c-4.7 0-6.865 10.392-6.865 14.264l-1.632 28.071c0 .28.004.56.018.835.433 10.32 10.982 18.401 23.516 18.401h33.344c7.067-4.417 11.654-11.407 11.654-19.236v-.672c.005-13.285-9.323-33.992-25.442-33.992z" fill="#2E394E"/><path d="M300.986 225.848h-40.425c-9.778 0-17.775-8.001-17.775-17.783v-10.456c0-2.797 2.287-5.089 5.088-5.089h36.37c12.006 0 21.834 9.827 21.834 21.844l-.257 6.651c-.009 2.802-2.039 4.833-4.835 4.833z" fill="#2E394E"/><path d="M230.798 215.167s-1.786 23.365.704 91.023h18.663l4.366-83.943-23.733-7.08z" fill="#3F4C63"/><path d="M251.004 225.848H213.66c-9.093 0-16.53-7.441-16.53-16.538v-9.86c0-2.603 2.129-4.733 4.731-4.733h33.569c11.168 0 20.305 9.142 20.305 20.314v6.083a4.744 4.744 0 0 1-4.731 4.734z" fill="#3F4C63"/><path d="M252.456 192.524h-49.67c-5.196 0-9.409-4.215-9.409-9.413v-66.088c0-5.198 4.213-9.413 9.409-9.413h49.675c5.196 0 9.408 4.215 9.408 9.413v66.088a9.412 9.412 0 0 1-9.413 9.413z" fill="#476283"/><path d="M174.489 165.094l.884.69c.595.465 1.29.74 2.007.799l23.971 1.913c.74.059 1.48-.117 2.125-.51l10.734-.695c28.441 3.868 13.923-1.543 10.928-3.009l-44.664-15.59c-2.08-1.02-4.916-3.682-5.661-1.336l-1.939 6.128a4.796 4.796 0 0 0-.217 1.52l.127 6.561c.027 1.395.658 2.712 1.705 3.529z" fill="#603913"/><path d="M179.932 120.52l-7.058 32.958 16.395-.64 10.346-36.722-19.683 4.404z" fill="#603913"/><path d="M181.344 98.054s-5.741 17.751-8.06 27.724c-.482 2.071 1.096 4.052 3.221 4.052 7.505 2.454 14.752 3.384 21.27 0l4.081-20.152-20.512-11.624zm90.497 0s5.787 17.891 8.087 27.845a3.069 3.069 0 0 1-3.126 3.755l-21.631-.988-3.842-18.984 20.512-11.628z" fill="#476283"/><path d="M200.815 30.373s-.979 39.686 17.846 38.792c18.826-.893 16.463-17.147 16.463-17.147s26.975 2.189 20.814-25.733c-6.165-27.923-55.123 4.088-55.123 4.088z" fill="#000"/><path d="M237.942 71.015c-2.322-1.651-10.86-2.517-11.663-2.152-.798-.374-3.189.537-5.534 2.152-14.275 9.837-40.145 16.511-40.267 31.636 0 0 .212 10.839 7.676 10.889l37.809.266 37.809.266c7.465.054 7.83-10.78 7.83-10.78.086-15.12-19.529-22.237-33.66-32.277z" fill="#476283"/><path d="M214.251 74.743s-5.661 18.523 14.143 18.523c21.293 0 14.559-18.84 14.559-18.84l-8.456-4.2-10.477-.424-9.769 4.94z" fill="#2C485F"/><path d="M228.579 87.634c5.02 0 9.124-3.321 9.124-7.382V61.774c0-4.061-4.104-7.382-9.124-7.382-5.02 0-9.124 3.32-9.124 7.382v18.482c0 4.057 4.104 7.378 9.124 7.378z" fill="#603913"/><path d="M237.672 73.623c-6.901 11.065-18.118 2.121-18.275.745 0 0 .487-14.39-.361-18.56 0-.004 20.142-4.584 18.636 17.815z" fill="#603913"/><path d="M86.12 44.221c-2.954-1.453-7.297-2.685-10.184-1.331 0 0-9.403-4.002-15.966 1.236-8.61 6.873-8.235 27.205-12.975 59.83 22.023 4.476 39.46 2.594 52.173-5.835 0 0 .127-18.762-2.403-35.052-1.218-7.851-3.054-15.112-10.644-18.848z" fill="#452617"/><path d="M104.346 113.58l17.112 33.373c-6.369-2.59-18.027 15.825-16.742 19.223l-11.185-29.574 10.815-23.022z" fill="#2E394E"/><path d="M123.713 152.5l-11.316 12.187c-2.066 2.225-5.57 2.351-7.794.289-2.223-2.066-2.35-5.573-.288-7.797l11.316-12.188c2.065-2.225 5.57-2.351 7.793-.289 2.224 2.067 2.355 5.578.289 7.798z" fill="#212B3A"/><path d="M111.531 195.268c-15.425-57.871-28.978-53.842-28.978-53.842-3.067 0-5.295 2.924-4.478 5.88l24.156 87.869a18.965 18.965 0 0 0 18.28 13.939l24.463-.533s2.075.411 3.82-1.868c2.787-3.632 5.503-10.672-6.941-13.97-17.306-4.589-25.947-14.999-30.322-37.475z" fill="#AB5731"/><path d="M67.489 327.529a4.699 4.699 0 0 1-3.96-5.342l11.812-79.697a4.697 4.697 0 0 1 5.34-3.962 4.699 4.699 0 0 1 3.96 5.342L72.83 323.567a4.706 4.706 0 0 1-5.34 3.962zm74.454 0a4.699 4.699 0 0 0 3.96-5.342l-11.817-79.697a4.696 4.696 0 0 0-5.34-3.962 4.7 4.7 0 0 0-3.96 5.342l11.813 79.697a4.707 4.707 0 0 0 5.344 3.962z" fill="#465368"/><path d="M108.739 242.746l-76.254-6.128-29.248-95.192h79.095l26.407 101.32z" fill="#AB5731"/><path d="M131.899 240.229H38.493v19.136h93.406v-19.136z" fill="#465368"/><path d="M29.576 327.529a4.699 4.699 0 0 1-3.96-5.342L37.43 242.49a4.697 4.697 0 0 1 5.34-3.962 4.699 4.699 0 0 1 3.96 5.342l-11.813 79.697a4.704 4.704 0 0 1-5.34 3.962zm74.455 0a4.698 4.698 0 0 0 3.959-5.342L96.178 242.49a4.697 4.697 0 0 0-5.34-3.962 4.699 4.699 0 0 0-3.96 5.342l11.813 79.697a4.702 4.702 0 0 0 5.34 3.962z" fill="#465368"/><path d="M28.715 204.55C13.29 146.679 4.649 141.427 4.649 141.427c-3.067 0-5.295 2.924-4.48 5.879l24.158 87.869a18.965 18.965 0 0 0 18.28 13.939h50.725l.957-7.409c-1.642-12.206-56.522 9.367-65.574-37.155z" fill="#CA6B3A"/><path d="M146.868 249.114h-64.54a5.793 5.793 0 0 1-5.792-5.794 5.793 5.793 0 0 1 5.791-5.794h64.541a5.793 5.793 0 0 1 5.791 5.794 5.793 5.793 0 0 1-5.791 5.794z" fill="#D87448"/><path d="M107.382 314.561l14.288-.005-.487-14.85h-14.288l.487 14.855z" fill="#603913"/><path d="M106.015 324.961l42.405.153c.739-6.877-3.649-12.454-9.801-12.454h-32.83l.226 12.301z" fill="#C2C4C3"/><path d="M128.697 324.961l19.727.153c.704-6.877-3.468-12.454-9.322-12.454h-1.876c-4.709 0-8.529 4.716-8.529 10.527v1.774z" fill="#E0E2E1"/><path d="M146.25 329h-37.867a2.25 2.25 0 0 1-2.251-2.229 2.252 2.252 0 0 1 2.251-2.279h37.867a2.25 2.25 0 0 1 2.251 2.229A2.25 2.25 0 0 1 146.25 329zm-18.487-14.489l-4.952-4.918c-4.623 2.121-9.607 2.879-15.529.067a1.504 1.504 0 0 0-1.493 1.503l.005 3.344 21.969.004z" fill="#212B3A"/><path d="M182.183 314.561l14.288-.005-1.944-14.85h-14.283l1.939 14.855z" fill="#603913"/><path d="M162.32 224.959a32.021 32.021 0 0 0-28.283-19.376l-38.887-1.386c-7.374 0-13.409 6.038-13.409 13.415v6.494c0 7.377 6.035 13.415 13.409 13.415h39.27c10.135 0 12.791-1.922 15.037 7.964 3.369 14.828 15.308 41.288 30.985 54.988h14.288l-32.41-75.514z" fill="#4E98B6"/><path d="M84.587 193.467H59.312c-3.87 0-7.036 3.167-7.036 7.039v17.779c0 .279.005.559.014.835.356 10.319 9.047 18.401 19.366 18.401h27.458c5.819-4.418 9.598-11.407 9.598-19.236v-.673c.009-13.279-10.851-24.145-24.125-24.145z" fill="#4E98B6"/><path d="M133.888 111.473c.758-4.269 3.802-8.976 8.06-13.912l3.96-5.383 7.455 1.53 1.515 15.468c-3.391 3.271-6.76 6.922-10.495 5.672l-10.495-3.375z" fill="#603913"/><path d="M80.717 97.269c-5.2-1.95-22.965-1.89-26.547 1.877l3.875 5.14s24.684-.357 24.499-.808c-.185-.451-1.827-6.21-1.827-6.21z" fill="#E5E3E1"/><path d="M71.99 111.45c-7.473.406-13.512-5.74-11.537-6.827a36.417 36.417 0 0 0 3.956-2.504c1.6-1.165 5.863-2.41 6.94-2.401 1.056-.126 5.183.699 6.978 1.494 2.03.902 3.834 1.674 5.502 2.396 1.692.726-4.388 7.436-11.839 7.842z" fill="#F9AA83"/><path d="M104.346 113.58c-3.833-6.534-12.628-11.082-20.345-11.614-10.162-2.532-18.7-2.342-25.717.379-10.91 4.868-18.794 11.772-21.415 20.147l5.516 26.808c-.185 22.386 12.363 49.483 12.827 49.117 1.448-1.133 43.952-1.223 43.952-1.223l.438-45.611 4.744-38.003z" fill="#2E394E"/><path d="M85.07 101.871c-.244-.659-.388.145-1.07.099-10.16-2.531-18.698-2.341-25.716.379-.6.267-1.484.244-1.773.822l17.382 13.979 11.177-15.279z" fill="#603913"/><path d="M70.42 112.177l.66-.036c3.273-.18 5.804-3.005 5.623-6.277l-1.33-24.398c-.18-3.276-3.004-5.807-6.274-5.627l-.658.036c-3.275.18-5.805 3.005-5.625 6.277l1.331 24.398c.176 3.272 3 5.803 6.274 5.627z" fill="#603913"/><path d="M75.995 92.945L62.88 87.878l.271 3.082c1.137 3.736 8.97 9.467 13.174 8.077l-.329-6.092z" fill="#603913"/><path d="M73.93 117.339l5.168-18.64c.383-1.385 2.08-1.895 3.166-.952l4.47 3.889c.663.573.929 1.48.68 2.324l-2.25 7.725a1.396 1.396 0 0 1-2.165.736l-2.39-1.746a1.378 1.378 0 0 0-1.917.288l-4.763 6.376z" fill="#F4F3F2"/><path d="M133.888 111.474c-3.568 19.078-7.108 27.39-12.43 35.485-5.791-2.279-12.439 8.041-12.732 9.855l11.857 8.163c7.685 5.243 13.594-8.493 15.655-14.697l8.673-36.388-11.023-2.418z" fill="#603913"/><path d="M156.416 114.849h13.125a4.373 4.373 0 0 0 4.37-4.373V85.527h-21.869v24.949a4.379 4.379 0 0 0 4.374 4.373z" fill="#CCC"/><path d="M143.752 108.134V95.219c0-2.847 1.998-5.166 4.456-5.166h5.57c2.458 0 4.456 2.32 4.456 5.166v12.915c0 2.847-1.998 5.166-4.456 5.166h-5.575c-2.453 0-4.451-2.314-4.451-5.166zm4.451-13.488c-.266 0-.496.262-.496.573v12.915c0 .311.226.573.496.573h5.57c.271 0 .496-.262.496-.573V95.219c0-.311-.225-.573-.496-.573h-5.57zm63.152 72.681h13.125a4.372 4.372 0 0 0 4.37-4.372v-24.949h-21.87v24.949a4.38 4.38 0 0 0 4.375 4.372z" fill="#CCC"/><path d="M198.69 160.612v-12.914c0-2.847 1.998-5.167 4.456-5.167h5.57c2.459 0 4.457 2.32 4.457 5.167v12.914c0 2.848-1.998 5.167-4.457 5.167h-5.57c-2.458 0-4.456-2.315-4.456-5.167zm4.452-13.487c-.266 0-.496.262-.496.573v12.914c0 .312.225.573.496.573h5.57c.271 0 .496-.261.496-.573v-12.914c0-.311-.225-.573-.496-.573h-5.57zm-52.578-33.83h1.501v-4.625h-1.501v4.625zm0-18.648h1.501V90.04h-1.501v4.607z" fill="#CCC"/><path d="M147.897 109.804a4.163 4.163 0 0 1-4.15-4.152v-9.16a4.163 4.163 0 0 1 4.15-4.151 4.162 4.162 0 0 1 4.149 4.151v9.16a4.163 4.163 0 0 1-4.149 4.152zm-67.243 89.281s16.142-6.001 21.956-1.308c8.078 6.515 9.823 9.182 6.206 10.216-3.617 1.033-.97 1.006-5.137 2.572-4.168 1.565-7.442-1.796-16.918-.763-7.595.83-8.8-2.288-8.8-2.288l2.693-8.429z" fill="#603913"/><path d="M48.271 170.878h-14.96c-2.9 0-5.273-2.374-5.273-5.275l6.558-39.813c1.538-12.476 5.85-19.976 16.977-19.976l.604-.23c2.9 0 1.362 4.422 1.362 7.324v52.695c.004 2.901-2.368 5.275-5.268 5.275z" fill="#2E394E"/><path d="M49.71 172.516H33.08c-3.03 0-5.515-2.482-5.515-5.519 0-3.032 2.48-5.518 5.516-5.518H49.71c3.03 0 5.516 2.481 5.516 5.518s-2.48 5.519-5.516 5.519z" fill="#212B3A"/><path d="M84.46 199.342c-10.652-1.854-19.01-6.299-26.78-12.345-4.97-3.867-8.002-9.697-8.245-15.843-.217-7.987-14.64-7.428-14.839-1.142.5 9.616 5.354 18.726 13.27 24.588 9.913 7.337 21.598 11.037 33.911 13.447l2.684-8.705z" fill="#603913"/><path d="M73.93 117.339L58.91 99.533c-1.492-1.773-4.293-1.53-5.461.47l-1.935 3.312a3.363 3.363 0 0 0 .257 3.772l4.745 6.033c.68.866 2.047.641 2.413-.397a1.381 1.381 0 0 1 1.826-.817l13.175 5.433z" fill="#F4F3F2"/><path d="M90.843 121.572c2.25 4.007 4.24 8.158 6.693 12.048 3.608 5.712 3.143 12.124 1.389 18.36-.27.962 1.227 1.372 1.497.411 1.678-5.974 2.255-12.007-.532-17.788-1.02-2.116-2.453-4.052-3.567-6.127-1.38-2.568-2.715-5.149-4.14-7.69-.488-.866-1.832-.085-1.34.786zm-38.084 9.178c.167 7.847.334 15.689.496 23.536.022.997 1.574 1.002 1.551 0-.167-7.847-.333-15.689-.496-23.536-.018-.998-1.57-1.002-1.551 0z" fill="#212B3A"/><path d="M103.25 59.942c-1.614-12.788-4.027-24.624-13.878-30.743-3.838-2.382-9.466-4.404-13.2-2.215 0 0-16.544-3.466-25.023 5.035-8.457 8.48-22.84 33.929-21.983 64.207.067 2.315 4.542 6.872 11.217 9.656 3.369 1.408 7.162-.789 7.636-4.413 3.815-29.308 3.928-50.94 11.952-57.343 6.562-5.239 15.965-1.236 15.965-1.236 2.887-1.35 7.226-.122 10.184 1.33 7.587 3.737 9.427 10.998 10.645 18.845 1.754 11.298 2.232 27.723 2.358 36.73.023 1.611 2.242 1.999 2.824.501 1.15-2.951 2.237-6.552 2.314-9.76.257-10.943.081-21.962-1.011-30.594z" fill="#754729"/><path d="M75.81 95.649l.375.004c11.298.145 20.665-9.16 20.814-20.675l-1.15-13.759c.64-15.31-7.622-23.545-18.92-23.69l-.375-.004c-11.298-.144-20.665 9.16-20.814 20.676l-.208 16.244c-.148 11.516 8.98 21.06 20.278 21.204z" fill="#603913"/><path d="M71.196 83.104c1.024 2.265 3.257 5.478 7.65 5.42 4.392-.06 6.535-3.335 7.5-5.627" stroke="#BE1E2D" stroke-miterlimit="10"/><path d="M69.948 71.811c1.313-.018 2.357-1.523 2.332-3.362-.025-1.839-1.109-3.315-2.422-3.297-1.312.017-2.356 1.522-2.331 3.361.025 1.84 1.109 3.316 2.421 3.298zm16.335-3.553c.027 1.841 1.11 3.317 2.422 3.299 1.312-.018 2.359-1.525 2.332-3.362-.028-1.84-1.11-3.316-2.422-3.298-1.308.013-2.355 1.52-2.332 3.361z" fill="#4C2B1C"/><path d="M71.147 62.166c-2.089-.081-4.041.1-6.04.564-.834.194-1.646-.388-1.767-1.232v-.013a1.476 1.476 0 0 1 1.046-1.62 18.282 18.282 0 0 1 6.995-.64c.73.076 1.29.685 1.313 1.42v.01c.027.857-.686 1.543-1.547 1.511zm20.679-.906a22.328 22.328 0 0 0-6.062.13c-.843.136-1.614-.5-1.673-1.354v-.013a1.473 1.473 0 0 1 1.16-1.543c2.349-.501 4.69-.55 7.021-.145a1.47 1.47 0 0 1 1.21 1.512v.009c-.037.862-.8 1.493-1.656 1.403z" fill="#452617"/><path d="M53.762 77.597c2.856-.528 4.614-3.981 3.925-7.714-.69-3.732-3.563-6.33-6.42-5.802-2.856.527-4.613 3.98-3.924 7.713.69 3.733 3.563 6.33 6.42 5.803z" fill="#603913"/><path d="M94.149 49.301L91.312 38.64l.176-.158c-.131-.04-.257-.081-.388-.122l-4.628-6.141-4.108 3.858C25.472 30.667 49.985 84.63 49.985 84.63c.902-14.25 10.847-26.61 27.57-36.636 6.531-3.23 12.544-2.54 16.594 1.308z" fill="#754729"/><path d="M112.834 225.73s-8.429 8.466-5.94 73.98h14.289l10.711-66.412-19.06-7.568z" fill="#63ADC6"/><path d="M126.726 237.521H70.349c-9.941 0-18.068-8.136-18.068-18.077v-4.128c0-2.843 2.327-5.171 5.168-5.171H109.7c12.209 0 22.194 9.994 22.194 22.205a5.18 5.18 0 0 1-5.168 5.171z" fill="#63ADC6"/><path d="M119.527 302.473h-9.854a3.972 3.972 0 0 1-3.96-3.962 3.971 3.971 0 0 1 3.96-3.962h9.854a3.971 3.971 0 0 1 3.96 3.962c-.004 2.179-1.786 3.962-3.96 3.962z" fill="#78C4D6"/><path d="M191.997 302.473h-9.855a3.973 3.973 0 0 1-3.96-3.962 3.972 3.972 0 0 1 3.96-3.962h9.855a3.971 3.971 0 0 1 3.96 3.962 3.972 3.972 0 0 1-3.96 3.962z" fill="#63ADC6"/><path d="M180.821 324.961l42.405.153c.739-6.877-3.649-12.454-9.801-12.454h-32.83l.226 12.301z" fill="#C2C4C3"/><path d="M203.503 324.961l19.727.153c.704-6.877-3.468-12.454-9.322-12.454h-1.877c-4.708 0-8.528 4.716-8.528 10.527v1.774z" fill="#E0E2E1"/><path d="M220.998 329h-38.815c-1.263 0-2.296-.993-2.309-2.229-.014-1.255 1.024-2.279 2.309-2.279h38.815c1.263 0 2.295.993 2.309 2.229.014 1.255-1.024 2.279-2.309 2.279zm-18.433-14.489l-4.953-4.914c-4.623 2.12-9.606 2.879-15.528.067a1.503 1.503 0 0 0-1.493 1.503l.004 3.344h21.97z" fill="#212B3A"/><path d="M196.724 319.574h-1.57c-3.211 0-5.84-2.63-5.84-5.843v-6.868c0-3.213 2.629-5.843 5.84-5.843h1.57c3.211 0 5.841 2.63 5.841 5.843v6.868c0 3.213-2.63 5.843-5.841 5.843zm-74.802 0h-1.569c-3.211 0-5.841-2.63-5.841-5.843v-6.868c0-3.213 2.63-5.843 5.841-5.843h1.569c3.212 0 5.841 2.63 5.841 5.843v6.868c0 3.213-2.629 5.843-5.841 5.843z" fill="#C2C4C3"/><path d="M282.341 215.957c-.289 14.954-1.168 43.332.356 90.233h18.248l5.119-89.399c.248-7.865-5.132-14.398-11.857-14.398-6.45.004-11.722 6.024-11.866 13.564z" fill="#2E394E"/><path d="M281.89 323.843l46.694-.56c1.028-6.448-3.636-11.678-10.41-11.678H282.03l-.14 12.238zm24.328-12.238l-5.273-5.415h-18.248l-.672 5.415h24.193z" fill="#212B3A"/><path d="M327.754 326.803h-44.886a1.765 1.765 0 0 1-1.759-1.76c0-.97.794-1.76 1.759-1.76h44.886c.97 0 1.759.794 1.759 1.76 0 .97-.794 1.76-1.759 1.76z" fill="#626269"/><path d="M231.114 323.843l46.694-.56c1.028-6.448-3.635-11.678-10.41-11.678h-36.144l-.14 12.238zm24.333-12.238l-5.277-5.415h-18.249l-.672 5.415h24.198z" fill="#2B384A"/><path d="M276.978 326.803h-44.885c-.97 0-1.759-.794-1.759-1.76 0-.97.794-1.76 1.759-1.76h44.885c.97 0 1.759.794 1.759 1.76 0 .97-.789 1.76-1.759 1.76z" fill="#212B3A"/><path d="M367.462 191.748c15.424-57.871 28.978-53.841 28.978-53.841 3.066 0 5.294 2.924 4.478 5.879l-24.156 87.87c-2.265 8.23-9.747 13.938-18.28 13.938l-24.463-.532s-2.075.41-3.821-1.868c-2.787-3.633-5.502-10.672 6.942-13.971 17.31-4.593 25.951-14.999 30.322-37.475z" fill="#AB5731"/><path d="M411.508 326.979a4.7 4.7 0 0 0 3.96-5.343l-11.812-79.697a4.697 4.697 0 0 0-5.34-3.962 4.699 4.699 0 0 0-3.96 5.343l11.812 79.697a4.705 4.705 0 0 0 5.34 3.962zm-74.454 0a4.7 4.7 0 0 1-3.96-5.343l11.812-79.697a4.697 4.697 0 0 1 5.34-3.962 4.7 4.7 0 0 1 3.96 5.343l-11.812 79.697a4.702 4.702 0 0 1-5.34 3.962z" fill="#465368"/><path d="M370.258 239.222l76.254-6.123 29.248-95.193h-79.095l-26.407 101.316z" fill="#AB5731"/><path d="M347.098 255.844h93.406v-19.137h-93.406v19.137z" fill="#465368"/><path d="M449.421 326.979a4.7 4.7 0 0 0 3.96-5.343l-11.813-79.697a4.696 4.696 0 0 0-5.34-3.962 4.7 4.7 0 0 0-3.96 5.343l11.813 79.697a4.701 4.701 0 0 0 5.34 3.962zm-74.454 0a4.7 4.7 0 0 1-3.96-5.343l11.812-79.697a4.697 4.697 0 0 1 5.34-3.962 4.7 4.7 0 0 1 3.96 5.343l-11.812 79.697a4.703 4.703 0 0 1-5.34 3.962z" fill="#465368"/><path d="M450.282 201.03c15.425-57.871 24.066-63.124 24.066-63.124 3.067 0 5.295 2.924 4.479 5.88l-24.157 87.869a18.964 18.964 0 0 1-18.279 13.938h-50.726l-.957-7.409c1.642-12.206 56.522 9.368 65.574-37.154z" fill="#CA6B3A"/><path d="M332.129 245.59h64.541a5.794 5.794 0 0 0 0-11.588h-64.541a5.793 5.793 0 0 0-5.791 5.794 5.793 5.793 0 0 0 5.791 5.794z" fill="#D87448"/><path d="M302.596 89.873l14.554 13.667c.027.023.194.19.46.447 3.257 3.204 8.597 2.644 11.168-1.132 1.456-2.144 2.557-4.373 2.277-5.966l-2.683-11.28-.916-8.335s-2.426-1.281-3.73 4.9c-.401 1.905 0 4.12-.374 5.447-.889-.289-1.818-.623-2.724-1.11l-11.952-12.892c-.898-1.06-1.876-1.895-2.941-1.002l-.194.167c-1.06.898-.469 2.058.429 3.123l3.197 4.129-5.286-4.626c-1.001-.96-2.065-1.692-3.026-.69l-.176.185c-.96 1.002-.252 2.098.753 3.06l3.572 3.736-.757-.596c-1.051-.907-2.152-1.58-3.063-.523l-.167.194c-.906 1.051-.139 2.107.916 3.014l6.824 6.412-3.838-3.014c-1.051-.907-2.152-1.58-3.063-.524l-.167.194c-.911 1.052-.144 2.103.907 3.015z" fill="#3C2415"/><path d="M331.529 99.339c4.645 17.571 11.321 25.959 15.524 34.686 6.044-1.489 8.493 13.429 8.542 15.266l-16.101 4.196c-8.312 4.179-12.349-10.22-13.571-16.641l-8.795-32.53 14.401-4.977z" fill="#E0AC26"/><path d="M390.382 189.947h30.688c4.699 0 8.542 3.168 8.542 7.04v17.778c0 .28-.005.56-.018.835-.433 10.32-10.982 18.401-23.516 18.401h-33.344c-7.068-4.417-11.654-11.407-11.654-19.236v-.672c-.005-13.28 13.183-24.146 29.302-24.146zm-57.762 30.279s-1.339 20.337-12.308 87.914h-18.69l5.881-79.314 25.117-8.6z" fill="#29727F"/><path d="M313.208 234.002h53.978c10.965 0 19.935-8.975 19.935-19.945v-7.675c0-3.141-2.566-5.708-5.705-5.708h-49.423c-13.467 0-24.485 11.023-24.485 24.497v3.118c0 3.146 2.566 5.713 5.7 5.713z" fill="#29727F"/><path d="M274.511 328.694h45.639c.888 0 1.614-.731 1.628-1.638v-.082c.013-.929-.717-1.692-1.628-1.692h-45.639c-.888 0-1.615.731-1.628 1.638v.081c-.014.93.722 1.693 1.628 1.693z" fill="#212B3A"/><path d="M321.133 325.499l-47.813.145c-1.05-6.606 3.721-11.962 10.663-11.962h37.019l.131 11.817z" fill="#2B384A"/><path d="M284.077 325.882l-10.757-.234c-1.05-6.606 3.721-11.962 10.663-11.962l.094 12.196z" fill="#E5DADC"/><path d="M296.223 313.686l5.403-5.541h18.686l.69 5.541h-24.779z" fill="#2B384A"/><path d="M295.754 319.547h-2.868l-5.025-6.096h2.869l5.024 6.096zm5.02 0h-2.868l-5.025-6.096h2.869l5.024 6.096zm13.966 1.464c1.999-2.032 1.919-5.353-.179-7.417-2.097-2.064-5.417-2.09-7.415-.057-1.999 2.032-1.919 5.353.178 7.417 2.098 2.064 5.418 2.09 7.416.057z" fill="#E5DADC"/><path d="M329.202 328.693h44.114c.879 0 1.601-.731 1.614-1.638.014-.929-.712-1.692-1.614-1.692h-44.114c-.88 0-1.601.731-1.615 1.638-.018.93.713 1.692 1.615 1.692z" fill="#212B3A"/><path d="M374.651 325.576l-46.685.144c-1.028-6.448 3.635-11.678 10.409-11.678h36.145l.131 11.534z" fill="#2B384A"/><path d="M338.466 325.95l-10.5-.23c-1.029-6.448 3.635-11.678 10.409-11.678l.091 11.908z" fill="#E5DADC"/><path d="M350.327 314.042l5.277-5.415h18.249l.667 5.415h-24.193z" fill="#2B384A"/><path d="M349.872 319.764h-2.801l-4.907-5.956h2.801l4.907 5.956zm4.898 0h-2.801l-4.907-5.956h2.801l4.907 5.956zm13.642 1.433c1.951-1.985 1.872-5.228-.177-7.245-2.05-2.017-5.293-2.043-7.244-.059-1.951 1.985-1.872 5.228.177 7.245 2.05 2.017 5.293 2.043 7.244.059z" fill="#E5DADC"/><path d="M373.731 222.915s2.611 20.197.117 85.712H355.6l-5.606-78.858 23.737-6.854z" fill="#2F869A"/><path d="M355.51 234.002h54.834c10.599 0 19.268-8.673 19.268-19.277v-6.335c0-3.032-2.481-5.514-5.511-5.514h-50.438c-13.016 0-23.665 10.654-23.665 23.676v1.936c-.004 3.032 2.476 5.514 5.512 5.514z" fill="#2F869A"/><path d="M364.471 100.918c-11.789 13.059-20.972 26.406-34.241 31.938l11.19 19.805c16.868-11.398 31.215-23.514 41.042-36.92l-17.991-14.823z" fill="#E0AC26"/><path d="M406.624 80.532c-1.999-1.53-4.195-1.768-4.894-1.444-.69-.351-5.674.813-7.726 2.257-12.489 8.799-31.238 12.67-31.513 26.433 0 0-.798 11.425 5.674 11.556l32.794.663 28.887-.437c6.473.131 6.712-9.783 6.712-9.783.243-13.767-17.784-19.95-29.934-29.245z" fill="#EEBE21"/><path d="M426.532 197.153l-56.012.925c-2.219.036-4.051-1.845-4.1-4.214-.307-14.941-1.926-62.415-3.96-84.738l68.415-10.893c.974 21.326 3.793 17.35 1.055 43.224l-1.425 51.513c-.063 2.306-1.813 4.147-3.973 4.183z" fill="#EEBE21"/><path d="M426.126 197.158l-57.907.989c38.923-8.046 56.603-35.725 61.249-80.185.198-1.909 2.976-1.922 3.175-.013.518 4.954 4.659-14.53 3.22-1.426 1.678 23.744-1.682 59.549-5.57 76.389-.681 4.075-1.903 4.21-4.167 4.246z" fill="#E0AC26"/><path d="M390.815 81.899c-.194 0-8.073 4.652-8.073 4.652s-1.204 17.634 14.559 17.634 17.175-18.523 17.175-18.523l-10.081-7.039-13.58 3.276z" fill="#fff"/><path d="M399.069 96.817l1.285-.221c4.831-.835 8.101-5.474 7.266-10.311l-3.337-19.308c-.835-4.833-5.471-8.105-10.306-7.27l-1.285.221c-4.831.835-8.101 5.474-7.266 10.311l3.337 19.308c.839 4.833 5.476 8.105 10.306 7.27z" fill="#3C2415"/><path d="M387.162 80.365l17.31-11.42-1.353 3.415c-.744 3.786-8.664 14.747-15.032 13.361l-.925-5.356zm9.715-55.321l-.374-.09c-10.234-2.442-20.585 3.041-24.545 12.45 4.416-.759 9.251-.637 14.14.527l.505.122c15.362 3.669 26.56 9.17 23.746 20.964l-1.768 8.574c.077-.275.153-.555.221-.84L413.7 43.82c2.715-11.385-5.439-16.06-16.823-18.776z" fill="#3C2415"/><path d="M386.598 38.053l-.505-.122c-4.889-1.169-9.724-1.286-14.139-.528a21.247 21.247 0 0 0-1.092 3.316l-4.388 18.388c-2.413 10.112 3.883 20.355 13.986 22.77l2.697.645c11.1 2.648 22.343-4.03 25.415-14.927l1.768-8.574c2.819-11.8-8.38-17.3-23.742-20.968z" fill="#3C2415"/><path d="M374.439 43.151a22.87 22.87 0 0 1 5.994 1.751c.807.361 1.754-.068 2.038-.907l.005-.014a1.522 1.522 0 0 0-.744-1.845 18.816 18.816 0 0 0-6.955-2.022 1.517 1.517 0 0 0-1.61 1.187l-.005.014c-.194.866.397 1.7 1.277 1.836zm20.444 5.086c2.143.203 4.109.645 6.085 1.39a1.525 1.525 0 0 0 2.016-1.007l.004-.013a1.522 1.522 0 0 0-.852-1.805 19.017 19.017 0 0 0-7.09-1.616 1.529 1.529 0 0 0-1.543 1.277v.01a1.524 1.524 0 0 0 1.38 1.764z" fill="#000"/><path d="M410.011 59.627s4.163 1.534 2.787 7.3l-2.07.398-1.858-7.274 1.141-.424z" fill="#603822"/><path d="M415.842 67.26c-2.137 3.3-5.917 4.644-8.443 3.002-2.521-1.638-2.832-5.64-.69-8.935 2.138-3.298 5.918-4.643 8.443-3 2.521 1.638 2.833 5.635.69 8.934z" fill="#3C2415"/><path d="M358.166 166.808l51.006.979c7.22-.099 12.664-5.803 15.925-12.251 5.692-11.267 9.864-29.587 11.465-44.595 1.421-15.135-15.321-17.973-15.321-4.138l-9.268 32.371a17.64 17.64 0 0 1-15.804 12.748l-35.094 2.292-2.909 12.594z" fill="#FFD640"/><path d="M372.802 51.094c-.411 1.814.302 3.52 1.596 3.813 1.295.293 2.679-.934 3.09-2.748.415-1.814-.303-3.52-1.597-3.813-1.294-.293-2.679.939-3.089 2.748zm18.473 4.214c-.415 1.814.303 3.52 1.597 3.813 1.294.293 2.679-.934 3.089-2.748.415-1.814-.302-3.52-1.596-3.813-1.295-.293-2.675.934-3.09 2.748zm-15.519 10.175c5.056 2.793 6.328 2.761 11.429 3.06 1.393.08 2.417 1.466 1.953 2.788a2.48 2.48 0 0 1-1.06 1.3c-3.703 2.233-10.73 4.746-15.339-4.35-.009-.014-.014-.028-.023-.046-.898-1.85 1.236-3.75 3.04-2.752z" fill="#000"/><path d="M375.756 65.483s-2.508 2.618 4.79 4.63c6.801 1.873 6.823-1.543 6.823-1.543-4.176-.298-8.068-1.056-11.613-3.087z" fill="#fff"/><path d="M239.453 169.561h-13.548v157.187h13.548V169.561z" fill="#D87448"/><path d="M353.615 176.974H98.812a4.524 4.524 0 0 1-4.523-4.526v-.992c0-2.5 2.025-4.526 4.523-4.526h254.803a4.524 4.524 0 0 1 4.524 4.526v.992c0 2.5-2.025 4.526-4.524 4.526z" fill="#CA6B3A"/><path d="M286.986 65.25s1.065 4.683 3.099 6.244c2.034 1.561.924 0 .924 0s-1.105-3.89-1.141-3.998c-.036-.108-.708-3.876-.708-3.876l-2.174 1.63z" fill="#DBD143"/><path d="M288.015 60.145l-2.54.271a.74.74 0 0 0-.636.89l.754 3.429a.737.737 0 0 0 .748.582l2.382-.131-.708-5.04z" fill="#DBD143"/><path d="M292.462 71.855c-1.877-2.279-2.472-6.267-2.639-7.793a.516.516 0 0 0-.658-.437l-.65.19c.551 4.71 2.544 8.185 2.544 8.185l1.403-.145z" fill="#C4B52B"/><path d="M293.697 73.804c5.588 21.903-10.45 42.123-29.438 44.411-1.253.153-2.494-.384-3.288-1.367-1.393-1.738-.951-4.287.934-5.474 10.513-6.606 22.858-23.816 24.725-37.236a3.595 3.595 0 0 1 4.154-3.041c1.42.239 2.553 1.308 2.913 2.707z" fill="#FFD600"/><path d="M286.63 74.138c-1.867 13.42-14.212 30.625-24.725 37.236a3.715 3.715 0 0 0-1.736 3.397c13.972-4.413 29.23-24.858 29.401-43.665a3.587 3.587 0 0 0-2.94 3.032z" fill="#FFE894"/><path d="M287.478 72.284a3.266 3.266 0 0 0-.32.429c.099-.15.207-.289.32-.429z" fill="#FFD600"/><path d="M292.547 72.952c2.183 19.38-13.693 39.717-29.979 44.009-.546.144-1.069.126-1.524-.032.793.93 1.993 1.435 3.211 1.286 18.988-2.288 35.026-22.508 29.438-44.41a3.676 3.676 0 0 0-1.786-2.31c.347.37.573.865.64 1.457z" fill="#E9C117"/><path d="M261.531 115.39c.324.844.509 1.562-.063 1.783-.573.221-1.304-.285-1.633-1.128-.325-.844-.126-1.711.446-1.932.578-.225.925.429 1.25 1.277z" fill="#966D29"/><path d="M288.578 60.082l-.983.113c.14.158.244.347.284.569l.654 3.343c.086.433-.076.849-.374 1.115l1.177-.063a1.065 1.065 0 0 0 .983-1.264l-.577-2.96a1.063 1.063 0 0 0-1.164-.853z" fill="#C4B52B"/><path d="M280.577 87.626c-1.497.08-2.124-1.873-.87-2.699 2.093-1.371 5.471-3.018 9.259-2.671 4.921.447-3.382 5.099-8.389 5.37zm-1.736 5.64c-1.497.082-2.124-1.872-.871-2.698 2.093-1.372 5.471-3.019 9.26-2.671 4.92.446-3.378 5.099-8.389 5.37z" fill="#603913"/><path d="M278.791 95.978c-1.497.082-2.124-1.872-.87-2.698 2.092-1.372 5.471-3.019 9.259-2.671 4.925.446-3.378 5.099-8.389 5.37z" fill="#603913"/><path d="M276.252 99.548c-1.497.08-2.124-1.873-.87-2.699 2.092-1.372 5.47-3.019 9.259-2.671 4.925.451-3.378 5.099-8.389 5.37z" fill="#603913"/><path d="M271.02 143.452c4.172-6.421 7.825-13.307 9.503-20.779.871-3.886 1.191-8.109 2.918-11.629-1.24-1.317-2.327-3.267-2.539-6.132-.541-7.297-.492-8.574-.492-8.574s6.4-7.012 6.36-7.418c-.041-.406-1.281-3.695-1.281-3.695l4.925-2.392 3.649 9.864.216 13.727a18.75 18.75 0 0 1-.415 4.232l-.924 4.282s-8.186 38.825-12.791 51.996h-12.421c-3.96 0-5.142-1.832-5.092-6.146-.505-6.552 4.808-11.836 8.384-17.336z" fill="#603913"/><path d="M339.002 167.327h13.125a4.372 4.372 0 0 0 4.37-4.372v-24.949h-21.87v24.949a4.38 4.38 0 0 0 4.375 4.372z" fill="#CCC"/><path d="M326.338 160.612v-12.914c0-2.847 1.998-5.167 4.456-5.167h5.57c2.458 0 4.456 2.32 4.456 5.167v12.914c0 2.848-1.998 5.167-4.456 5.167h-5.57c-2.458 0-4.456-2.315-4.456-5.167zm4.451-13.487c-.266 0-.496.262-.496.573v12.914c0 .312.226.573.496.573h5.57c.271 0 .496-.261.496-.573v-12.914c0-.311-.225-.573-.496-.573h-5.57z" fill="#CCC"/><path d="M335.561 164.747c.135-.018.271-.036.41-.05l4.456-.641-5.037.271c-1.083-2.739-1.606-5.085-1.818-6.999l.338-.031-.347-.036a19.614 19.614 0 0 1-.108-1.76 1.85 1.85 0 0 1 1.88-1.877l10.202.153c.903-.293 1.723-.699 2.481-1.11-.645-1.096-2.377-2.243-3.392-3.723-3.287-4.81-.884-5.613-.884-5.613l6.139 4.706 9.232 5.406c1.227.821 2.012 2.947 2.512 5.262.893 4.151-2.156 8.104-6.4 8.235-.311.009-.509.018-.545.018l-15.173.821c-1.529.081-2.967-.776-3.585-2.18-.126-.288-.244-.573-.361-.852z" fill="#3C2415"/><path d="M326.956 87.21c-.88 5.614-4.61 11.895-12.561 11.444-8.11-.46-10.04-9.232-9.16-14.845.879-5.614 6.449-9.4 12.448-8.461 5.998.943 10.152 6.254 9.273 11.863z" fill="#A21E22"/><path d="M318.666 68.29s-3.175 1.566-3.581 4.156c-.406 2.594 1.457 5.031 1.457 5.031s2.886-2.057 3.319-4.833c.433-2.775-1.195-4.354-1.195-4.354z" fill="#F2D86D"/><path d="M325.828 74.666s-3.004-2.134-5.543-1.209c-2.535.925-3.789 3.854-3.789 3.854s3.306 1.62 6.017.631c2.711-.988 3.315-3.276 3.315-3.276z" fill="#F2D86D"/><path d="M316.704 77.464s-1.06-3.534-3.631-4.36c-2.571-.83-5.353.714-5.353.714s1.61 3.312 4.356 4.196c2.747.885 4.628-.55 4.628-.55z" fill="#F2D86D"/><path d="M232.819 27.697a3.826 3.826 0 1 0-.002-7.652 3.826 3.826 0 0 0 .002 7.652z" fill="#000"/><path d="M236.571 22.3a3.825 3.825 0 0 0 3.825-3.826 3.825 3.825 0 1 0-7.649 0 3.825 3.825 0 0 0 3.824 3.826z" fill="#000"/><path d="M237.704 26.763a3.825 3.825 0 0 0 3.824-3.826 3.825 3.825 0 1 0-7.649 0 3.825 3.825 0 0 0 3.825 3.826zm12.628 4.101a3.826 3.826 0 1 0-.002-7.652 3.826 3.826 0 0 0 .002 7.652zM219.455 9.693a3.825 3.825 0 0 0 3.825-3.826 3.825 3.825 0 1 0-7.649 0 3.825 3.825 0 0 0 3.824 3.826z" fill="#000"/><path d="M214.426 11.48a3.825 3.825 0 0 0 3.825-3.827 3.825 3.825 0 1 0-3.825 3.826z" fill="#000"/><path d="M209.542 14.747a3.826 3.826 0 1 0-.002-7.652 3.826 3.826 0 0 0 .002 7.652z" fill="#000"/><path d="M206.985 18.193a3.825 3.825 0 0 0 3.824-3.827 3.825 3.825 0 1 0-7.649 0 3.825 3.825 0 0 0 3.825 3.827z" fill="#000"/><path d="M204.63 22.3a3.825 3.825 0 0 0 3.825-3.826 3.825 3.825 0 1 0-7.649 0 3.825 3.825 0 0 0 3.824 3.826z" fill="#000"/><path d="M204.445 26.763a3.825 3.825 0 0 0 3.825-3.826 3.825 3.825 0 1 0-7.649 0 3.825 3.825 0 0 0 3.824 3.826z" fill="#000"/><path d="M204.445 31.537a3.825 3.825 0 0 0 3.825-3.827 3.825 3.825 0 1 0-3.825 3.827z" fill="#000"/><path d="M203.818 35.363a3.825 3.825 0 0 0 3.825-3.827 3.825 3.825 0 1 0-7.649 0 3.825 3.825 0 0 0 3.824 3.827z" fill="#000"/><path d="M203.818 30.864a3.825 3.825 0 0 0 3.825-3.827 3.825 3.825 0 1 0-3.825 3.827zm.627 9.436a3.825 3.825 0 0 0 3.825-3.827 3.825 3.825 0 1 0-3.825 3.826z" fill="#000"/><path d="M204.63 43.178a3.825 3.825 0 0 0 3.825-3.826 3.825 3.825 0 1 0-3.825 3.826zm3.59 19.99a2.419 2.419 0 1 0-.001-4.837 2.419 2.419 0 0 0 .001 4.837z" fill="#000"/><path d="M206.597 60.298a2.418 2.418 0 1 0-.002-4.835 2.418 2.418 0 0 0 .002 4.835z" fill="#000"/><path d="M205.943 57.84a2.418 2.418 0 1 0-.002-4.836 2.418 2.418 0 0 0 .002 4.835z" fill="#000"/><path d="M204.229 55.6a2.418 2.418 0 1 0-.001-4.834 2.418 2.418 0 0 0 .001 4.835z" fill="#000"/><path d="M204.63 53.178a2.419 2.419 0 1 0-.001-4.837 2.419 2.419 0 0 0 .001 4.837z" fill="#000"/><path d="M204.445 50.678a2.419 2.419 0 1 0-.001-4.837 2.419 2.419 0 0 0 .001 4.837z" fill="#000"/><path d="M203.9 47.465a2.418 2.418 0 1 0-.002-4.835 2.418 2.418 0 0 0 .002 4.835z" fill="#000"/><path d="M203.818 45.791a2.419 2.419 0 1 0-.001-4.837 2.419 2.419 0 0 0 .001 4.837zm6.531 19.796a2.419 2.419 0 1 0-.001-4.837 2.419 2.419 0 0 0 .001 4.837z" fill="#000"/><path d="M211.756 66.972a2.419 2.419 0 1 0-.001-4.837 2.419 2.419 0 0 0 .001 4.837z" fill="#000"/><path d="M212.767 68.005a2.418 2.418 0 1 0-.001-4.835 2.418 2.418 0 0 0 .001 4.835z" fill="#000"/><path d="M214.787 68.998a2.419 2.419 0 1 0-.001-4.837 2.419 2.419 0 0 0 .001 4.837z" fill="#000"/><path d="M216.812 69.671a2.419 2.419 0 1 0-.001-4.837 2.419 2.419 0 0 0 .001 4.837zm6.923-59.978a3.825 3.825 0 0 0 3.825-3.826 3.825 3.825 0 1 0-7.649 0 3.825 3.825 0 0 0 3.824 3.826z" fill="#000"/><path d="M227.524 8.343a3.826 3.826 0 1 0-.002-7.652 3.826 3.826 0 0 0 .002 7.652z" fill="#000"/><path d="M232.819 7.653A3.826 3.826 0 1 0 232.817 0a3.826 3.826 0 0 0 .002 7.652zm10.468 3.018a3.826 3.826 0 0 0 0-7.652 3.825 3.825 0 0 0-3.824 3.826 3.825 3.825 0 0 0 3.824 3.827z" fill="#000"/><path d="M247.211 13.52a3.826 3.826 0 1 0-.002-7.653 3.826 3.826 0 0 0 .002 7.652z" fill="#000"/><path d="M250.332 16.727a3.826 3.826 0 1 0-.002-7.652 3.826 3.826 0 0 0 .002 7.652z" fill="#000"/><path d="M252.42 20.716a3.826 3.826 0 0 0 0-7.653 3.825 3.825 0 0 0-3.824 3.827 3.825 3.825 0 0 0 3.824 3.826z" fill="#000"/><path d="M253.106 24.543a3.825 3.825 0 0 0 3.824-3.827 3.825 3.825 0 1 0-7.649 0 3.825 3.825 0 0 0 3.825 3.827z" fill="#000"/><path d="M254.242 30.864a3.825 3.825 0 0 0 3.825-3.827 3.825 3.825 0 1 0-3.825 3.827zM238.163 8.795a3.825 3.825 0 0 0 3.825-3.827 3.825 3.825 0 1 0-7.649 0 3.825 3.825 0 0 0 3.824 3.827z" fill="#000"/><path d="M213.38 48.133c1.854 3.917 1.186 8.366-1.493 9.936-2.679 1.57-6.359-.329-8.213-4.246-1.854-3.916-1.186-8.366 1.493-9.936 2.679-1.57 6.355.33 8.213 4.246z" fill="#603913"/><path d="M235.935 74.67l-.387.041c-11.74 1.214-22.344-7.4-23.557-19.15l-1.714-16.57c-1.213-11.745 7.397-22.354 19.141-23.568l.388-.04c11.74-1.214 22.344 7.4 23.557 19.15l1.714 16.57c1.213 11.75-7.402 22.354-19.142 23.567z" fill="#603913"/><path d="M219.888 41.248c2.134-.398 4.168-.515 6.292-.334.888.072 1.646-.65 1.637-1.544v-.013a1.542 1.542 0 0 0-1.321-1.507 18.964 18.964 0 0 0-7.293.397 1.533 1.533 0 0 0-1.137 1.67v.013c.104.884.943 1.48 1.822 1.318zm22.601-2.243a23.156 23.156 0 0 1 6.301-.709c.888.023 1.601-.745 1.542-1.633v-.018a1.532 1.532 0 0 0-1.412-1.43 19.109 19.109 0 0 0-7.293.834c-.73.23-1.172.975-1.042 1.728l.005.014c.153.88 1.028 1.43 1.899 1.214zm-32.135-5.668l-.05-7.292c.663.767 7.442 1.792 7.613.79l2.21-1.142s-1.641-.911 2.81 4.034c.961 1.07 12.448 3.186 12.421 1.747 0 0-2.535-16.218 2.4-13.15 1.299.808 4.947 7.433 4.302 6.047l1.579 6.999s4.839-10.13 6.698-4.53c.414 1.254 2.358 8.83 3.03 7.693 1.917-3.24 4.641-4.187 3.342-12.95C254.094 3.93 236.955.596 229.166.763c-2.359.05-4.195 2.337-4.195 2.337s-3.937-1.52-7.843.334m32.149 43.047c.022 1.733-.889 3.145-2.03 3.159-1.141.013-2.084-1.376-2.106-3.11-.023-1.732.888-3.144 2.029-3.158 1.146-.013 2.089 1.38 2.107 3.11zm-20.373.451c.023 1.733-.888 3.145-2.029 3.159-1.142.014-2.084-1.376-2.107-3.109-.022-1.733.889-3.145 2.03-3.159 1.141-.013 2.084 1.377 2.106 3.11z" fill="#000"/><path d="M228.994 61.553c1.024 2.266 3.257 5.478 7.65 5.42 4.392-.06 6.535-3.335 7.5-5.627" stroke="#BE1E2D" stroke-miterlimit="10"/><path d="M211.756 35.363a3.825 3.825 0 0 0 3.825-3.827 3.825 3.825 0 1 0-7.649 0 3.825 3.825 0 0 0 3.824 3.827z" fill="#000"/><path d="M213.502 31.537a3.825 3.825 0 0 0 3.824-3.827 3.825 3.825 0 1 0-7.649 0 3.825 3.825 0 0 0 3.825 3.827z" fill="#000"/><path d="M218.053 33.698a3.825 3.825 0 0 0 3.824-3.827 3.825 3.825 0 1 0-7.649 0 3.825 3.825 0 0 0 3.825 3.827z" fill="#000"/><path d="M219.455 30.666a3.825 3.825 0 0 0 3.825-3.827 3.825 3.825 0 1 0-3.825 3.827z" fill="#000"/><path d="M222.933 33.698a3.825 3.825 0 0 0 3.824-3.827 3.825 3.825 0 1 0-7.649 0 3.825 3.825 0 0 0 3.825 3.827z" fill="#000"/><path d="M227.817 33.193a3.826 3.826 0 0 0 0-7.653 3.825 3.825 0 0 0-3.824 3.826 3.825 3.825 0 0 0 3.824 3.827zm15.47-3.425a3.826 3.826 0 0 0 0-7.653 3.825 3.825 0 0 0-3.824 3.827 3.825 3.825 0 0 0 3.824 3.826z" fill="#000"/><path d="M244.586 31.537a3.826 3.826 0 1 0-.002-7.652 3.826 3.826 0 0 0 .002 7.652z" fill="#000"/><path d="M252.096 32.196a3.825 3.825 0 0 0 3.824-3.827 3.825 3.825 0 1 0-7.649 0 3.825 3.825 0 0 0 3.825 3.827zm-13.148-.659a3.825 3.825 0 0 0 3.825-3.827 3.825 3.825 0 1 0-3.825 3.827z" fill="#000"/><path d="M236.066 32.34a3.825 3.825 0 0 0 3.825-3.826 3.825 3.825 0 1 0-3.825 3.826z" fill="#000"/><path d="M250.945 10.324h-38.914v16.714h38.914V10.324z" fill="#000"/><path d="M214.787 11.565h-7.803V27.16h7.803V11.565zm156.504 26.889c.302.14.613.22.929.257 5.06.55 3.134-6.67 10.396-5.88 1.944.212 2.291 1.868 3.973 2.053 3.184.348 4.925-2.224 8.015-1.886 3.937.429 3.982 4.549 8.055 4.99.153.019.208.11.365.168.014.004.027.009.046.009.045.004.09-.005.135 0a.1.1 0 0 1 .049.013c2.233 1.034.993 3.024 2.549 4.03 1.696 1.092 4.55 1.399 4.09 5.658-.194 1.765-.216 3.385-.23 3.506-.027.258 1.728 1.675 2.035 1.71 2.39.262.469-6.389 3.188-6.091.938.104 2.472 1.272 2.503 1.277 1.453.158 2.9 5.234 3.36 1.033 1.024-9.399-13.62-24.714-25.726-26.032-12.128-1.322-23.489 7.744-24.152 13.853-.036.325.059.614.158.916.059.176.108.348.262.416z" fill="#000"/></svg>