<svg width="586" height="461" fill="none" xmlns="http://www.w3.org/2000/svg"><path d="M227.257 25.362C351.311 6.467 571.704-11.553 585.883 81.231c5.894 38.547-154.864 81.061-182.406 116.051l-12.895 16.329 2.626 18.02c11.553 79.371-76.266-44.962-182.29-28.808-91.203 13.879-162.917 11.721-191.509-52.136l-.292 64.791-55.959-41.814c-66.578 3.266-115.71 12.655-123.237-36.915-8.403-54.935 59.693-9.623 133.157-20.82 4.085-.641 8.403-1.108 12.896-1.457l40.962-3.325 19.198-28.575c35.01-52.194 106.958-45.896 181.123-57.21z" fill="url(#paint0_linear)"/><path d="M-34.623 222.014c21.94 48.928 74.28-16.854 208.139-16.154-96.922-13.471-141.094-25.893-154.164-55.052L-36.9 173.785c-66.579 3.266-108.067 11.489-115.594-38.081-8.402-54.935 53.8 2.974 127.264-8.223 4.085-.641 8.403-1.108 12.896-1.458l40.904-3.382 19.2-28.576c35.069-52.252 106.783-47.82 180.947-59.134 57.943-8.805 92.429 58.96 136.484 79.895C314.026 76.279 257.542-11.139 176.783 1.166 93.516 13.879 15.559-4.141-21.027 50.327c-5.31.409-10.679 1.05-16.047 1.866-92.487 14.055-171.494-1.283-160.991 67.824-8.344-54.644 80.583 106.079 163.442 101.997z" fill="#1E7E89"/><path d="M208.701 188.715c106.024-16.153 193.143 103.689 180.772 18.779l-2.8-19.245 10.678-14.579-73.348 39.772c.059.058 20.131-76.513-115.302-24.727z" fill="#2DABAE"/><path d="M414.681 116.054c.233 10.38-2.743 19.07-6.769 26.826-4.143 7.698-9.628 14.404-15.988 20.003a71.997 71.997 0 0 1-21.94 13.121c-8.228 2.916-17.155 4.724-27.425 3.149 3.442-9.855 7.935-16.97 12.72-23.443 4.843-6.415 10.037-11.955 15.755-16.854 5.719-4.957 11.904-9.331 18.906-13.238 7.002-3.849 14.588-7.348 24.741-9.564z" fill="#2DABAE"/><path d="M230.174 199.208c-35.361 55.169-25.85 45.021-43.239 71.614-7.585 11.664-33.902 58.084-36.936 62.691 2.334-38.781 13.771-133.255 20.656-180.609l3.443-40.881c-4.318 22.511-30.518 88.177-35.711 114.128-15.405-23.56-36.645-52.952-27.25-19.886l19.723 50.211.933 2.333a7726.313 7726.313 0 0 1-16.455 78.962c-.35 1.574-2.684 1.982-3.326.583l-3.851 63.624c.117.467-6.71 19.886-10.445 30.908-.7.175-1.517 2.216-2.392 7.523l-2.801 20.586h48.723c.292-4.49.584-9.272.934-14.696 2.801-46.945 16.105-77.329 34.602-122.408 1.867-4.549 3.676-8.748 5.368-12.422l.117-.291c5.835-12.772 7.294-25.543 14.121-38.14l25.85-40.064 18.672-38.198-10.736 4.432z" fill="url(#paint1_linear)"/><path d="M115.398 218.28s17.33 15.045 6.36 60.3c-10.97 45.254-16.863 82.169-16.863 82.169S26.879 199.968 27.521 194.486c.642-5.482-15.171 2.158-15.171 2.158l6.71 18.895 37.461 58.9s42.655 100.015 41.313 110.979c-1.342 10.963-5.31 75.637-5.31 75.637l22.174-.291s15.463-47.937 19.547-93.133c4.143-45.196 8.053-110.979 8.053-110.979s-33.26-98.615-26.9-38.372z" fill="#5C465A"/><defs><linearGradient id="paint0_linear" x1="236.724" y1="265.879" x2="200.776" y2="29.917" gradientUnits="userSpaceOnUse"><stop stop-color="#2DABAE"/><stop offset="1" stop-color="#1E7E89"/></linearGradient><linearGradient id="paint1_linear" x1="97.509" y1="286.522" x2="227.806" y2="302.402" gradientUnits="userSpaceOnUse"><stop stop-color="#5C465A"/><stop offset="1" stop-color="#3E2F3C"/></linearGradient></defs></svg>