<svg width="40" height="40" fill="none" xmlns="http://www.w3.org/2000/svg"><path d="M39 20c0 10.493-8.507 19-19 19S1 30.493 1 20 9.507 1 20 1s19 8.507 19 19z" stroke="#fff" stroke-width="2"/><path d="M29 19.5c0 1.651-.016 2.833-.065 3.546-.048.712-.145 1.344-.324 1.878a4.607 4.607 0 0 1-1.036 1.651c-.453.47-1.02.81-1.651 1.036a6.856 6.856 0 0 1-1.878.324A81.88 81.88 0 0 1 20.5 28c-1.651 0-2.833-.016-3.546-.065-.712-.048-1.344-.162-1.878-.356a3.957 3.957 0 0 1-1.651-1.004 4.65 4.65 0 0 1-1.053-1.651 6.86 6.86 0 0 1-.323-1.878C12.016 22.317 12 21.15 12 19.5c0-1.651.016-2.833.065-3.546.048-.712.146-1.344.324-1.878a4.607 4.607 0 0 1 1.036-1.651c.453-.47 1.02-.81 1.651-1.036a6.856 6.856 0 0 1 1.878-.324A81.88 81.88 0 0 1 20.5 11c1.651 0 2.833.016 3.546.065.712.048 1.344.146 1.878.324a4.607 4.607 0 0 1 1.651 1.036c.47.453.81 1.02 1.036 1.651.178.534.292 1.166.34 1.894.033.713.049 1.879.049 3.53zm-1.554 2.963c.032-.55.032-1.344.032-2.348v-1.214a77.43 77.43 0 0 0-.032-2.348c-.049-.971-.146-1.651-.308-2.056-.308-.793-.842-1.328-1.635-1.635-.405-.162-1.085-.26-2.04-.308a81.418 81.418 0 0 0-2.364-.032h-1.198c-1.004 0-1.797.016-2.348.032-.939.049-1.619.146-2.056.308-.793.307-1.328.842-1.635 1.635-.162.405-.26 1.085-.308 2.04a81.418 81.418 0 0 0-.032 2.364v1.214c0 1.004.016 1.797.032 2.348.049.939.146 1.619.308 2.056.324.777.874 1.328 1.635 1.635.437.146 1.117.26 2.056.308.55.032 1.344.032 2.348.032h1.214a77.43 77.43 0 0 0 2.348-.032c.955-.049 1.651-.146 2.056-.308.777-.323 1.328-.874 1.635-1.635.146-.437.243-1.117.292-2.056zm-4.76-6.735a4.386 4.386 0 0 1 1.586 1.586c.389.664.583 1.393.583 2.186a4.29 4.29 0 0 1-.583 2.186 4.264 4.264 0 0 1-1.586 1.586 4.306 4.306 0 0 1-2.186.6 4.35 4.35 0 0 1-2.186-.6 4.264 4.264 0 0 1-1.586-1.586 4.306 4.306 0 0 1-.6-2.186c0-.777.211-1.506.6-2.186a4.264 4.264 0 0 1 1.586-1.586 4.248 4.248 0 0 1 2.186-.583 4.29 4.29 0 0 1 2.186.583zm-.178 5.78c.55-.55.841-1.23.841-2.008 0-.777-.275-1.457-.841-2.008-.567-.55-1.23-.841-2.008-.841-.777 0-1.457.275-2.008.841-.55.567-.841 1.23-.841 2.008 0 .777.275 1.457.841 2.008.567.55 1.23.841 2.008.841.777 0 1.457-.275 2.008-.841zm3.27-7.286c-.21-.194-.453-.308-.729-.308a.993.993 0 0 0-.712.308 1.03 1.03 0 0 0-.308.729c0 .275.098.518.308.728.21.21.437.308.729.308.291 0 .502-.114.696-.324a1.21 1.21 0 0 0 .324-.729c0-.259-.114-.502-.308-.712z" fill="#fff"/></svg>