<svg width="40" height="40" fill="none" xmlns="http://www.w3.org/2000/svg"><path d="M39 20c0 10.493-8.507 19-19 19S1 30.493 1 20 9.507 1 20 1s19 8.507 19 19z" stroke="#fff" stroke-width="2"/><path d="M14.693 15.373c-.453 0-.853-.16-1.186-.506-.334-.347-.507-.72-.507-1.174 0-.453.16-.853.507-1.186.346-.334.72-.507 1.186-.507.467 0 .854.16 1.187.507.333.346.507.733.507 1.186 0 .454-.174.854-.507 1.187a1.622 1.622 0 0 1-1.187.493zM16.12 26h-2.907v-9.347h2.907V26zM27 26h-2.907v-4.56c0-.747-.066-1.293-.186-1.627-.227-.56-.68-.84-1.347-.84-.667 0-1.133.24-1.4.747-.213.373-.307.933-.307 1.653V26h-2.88v-9.347h2.787v1.28h.027c.213-.413.546-.76 1-1.026.493-.334 1.08-.507 1.746-.507 1.36 0 2.307.427 2.84 1.28.414.693.627 1.747.627 3.187V26z" fill="#fff"/></svg>