<svg width="41" height="41" fill="none" xmlns="http://www.w3.org/2000/svg"><path d="M40 21c0 10.493-8.507 19-19 19S2 31.493 2 21 10.507 2 21 2s19 8.507 19 19z" stroke="#fff" stroke-width="2"/><path fill-rule="evenodd" clip-rule="evenodd" d="M19.088 27c4.906 0 7.59-4.233 7.59-7.902 0-.121 0-.24-.009-.36.522-.392.973-.88 1.331-1.438a5.15 5.15 0 0 1-1.531.438A2.773 2.773 0 0 0 27.64 16.2a5.219 5.219 0 0 1-1.694.674 2.596 2.596 0 0 0-3.774-.12 2.855 2.855 0 0 0-.771 2.654c-2.145-.112-4.143-1.167-5.497-2.902-.708 1.27-.346 2.892.826 3.707a2.566 2.566 0 0 1-1.211-.347v.035c0 1.322.896 2.46 2.14 2.723a2.552 2.552 0 0 1-1.204.047c.349 1.132 1.35 1.907 2.491 1.93A5.217 5.217 0 0 1 15 25.751a7.336 7.336 0 0 0 4.088 1.246" fill="#fff"/></svg>