<svg width="350" height="489" fill="none" xmlns="http://www.w3.org/2000/svg"><path d="M294.866 99.417c-4.942-1.447-9.074-1.737-13.062-1.766a55.937 55.937 0 0 0-11.356 1.245 51.955 51.955 0 0 0-10.866 3.589c-3.612 1.708-7.282 3.734-11.096 7.178 4.132 3.126 8.409 4.486 12.686 5.152 4.277.636 8.524.434 12.657-.463 4.103-.898 8.091-2.518 11.703-4.892 3.612-2.402 6.964-5.47 9.334-10.043zm-32.28-50.621c-4.219 2.952-7.051 5.962-9.565 9.06a54.799 54.799 0 0 0-6.155 9.637 55.086 55.086 0 0 0-4.046 10.71c-.953 3.878-1.676 8.016-1.387 13.168 5.028-1.244 8.756-3.733 11.964-6.628 3.178-2.923 5.692-6.367 7.571-10.159 1.878-3.762 3.121-7.872 3.554-12.214.405-4.312.116-8.856-1.936-13.574z" fill="#1E7E89"/><path d="M151.045 333.481c-.086.463-.202.955-.288 1.476-3.439 17.511-2.919 36.266 1.242 54.992L154.947 405h-32.625c-.434-3.3-.896-6.802-1.387-10.767-4.306-34.356-14.853-56.642-29.533-89.637a264.65 264.65 0 0 0-4.248-9.089l-.115-.202c-4.566-9.349-6.242-18.726-11.444-27.959l-19.418-29.32-14.507-27.988 7.427 3.242c26.556 40.404 19.679 32.966 32.711 52.445 5.693 8.538 25.719 42.546 28.001 45.904-3.612-28.394-16.182-97.568-23.262-132.271l11.877-.26c9.998 40.404 23.262 92.502 34.792 135.686.318 1.157 1.878 1.476 2.254.434 4.595-13.488 10.316-24.862 15.633-37.916l17.049-44.659 8.727.723c-3.843 16.266-9.131 37.598-13.35 53.661-4.363 15.919-8.871 30.304-12.484 46.454z" fill="#5C465A"/><path d="M98.103 67.03C24.358 33.427-17.283-34.3-42.394 20.952c-10.432 22.952-10.114 49.146.838 75.802l5.114 12.446-4.796 10.738c-21.124 47.38 27.798 76.613 90.823 105.325 54.211 24.688 126.569-8.915 155.581-43.618l-11.212 40.376 42.132-16.179c40.774 13.748 69.642 28.219 83.05-1.303 14.853-32.706-35.37-16.498-79.033-36.382a123.382 123.382 0 0 0-7.745-3.183l-24.851-9.262-6.906-21.187c-12.6-38.697-58.43-47.438-102.498-67.495z" fill="url(#paint0_linear)"/><path d="M226.205 235.45c-22.222 26.599-70.624 21.302-153.876-1.823 62.59 8.654 119.633-36.151 132.897-52.011l-11.212 40.375 42.132-16.179c40.773 13.748 65.105 26.165 78.513-3.357 14.853-32.706-33.925-7.612-77.589-27.496a122.743 122.743 0 0 0-7.744-3.184l-24.851-9.262-6.907-21.186c-12.628-38.698-57.909-48.538-101.977-68.625C61.145 57.015 27.798 46.827-3.237 52.124c38.549-14.964 89.003-13.14 136.972 8.711 49.529 22.547 101.11 25.065 114.258 65.383 3.237 1.216 6.445 2.518 9.652 3.994 54.904 25.007 106.688 29.349 87.991 70.535 0 0-68.659 51.837-119.431 34.703z" fill="#1E7E89"/><path d="M-37.453 23.441c-7.773 10.333-11.299 23.213-11.299 36.73.03 13.516 3.844 27.93 11.56 41.359 7.744 13.517 19.389 25.673 33.288 34.79 13.842 9.03 30.256 15.108 45.658 15.08-13.813-7.902-25.112-16.411-34.821-25.876-9.68-9.406-17.685-19.623-23.87-30.303-6.212-10.796-10.72-22.2-13.927-34.153-3.266-11.954-5.029-24.284-6.589-37.627z" fill="#2DABAE"/><path d="M53.459 216.811c-63.025-28.712-110.734-60.607-88.136-111.258l5.144-11.49-4.075-10.94 38.549 37.654c-.03 0-26.499 39.971 48.518 96.034z" fill="#2DABAE"/><path d="M140.209 405h-20.343c-1.127-6.021-2.399-12.967-3.901-21.1-4.768-26.31-12.773-52.59-24.043-78.06-1.676-3.792-3.294-7.294-4.797-10.333l-.115-.202c-4.566-9.349-9.392-18.727-14.622-27.96l-54.529-92.763 29.244 33.372 31.122 46.685s16.356 24.689 24.014 35.745c1.213 1.766 3.785 1.187 3.496-.81-6.04-41.447-27.972-153.805-33.665-181.793l14.506 14.125s22.453 98.899 28.146 120.404l1.272 6.917s-4.624 32.04-.492 53.805c2.225 11.838 15.2 60.231 24.707 101.968z" fill="url(#paint1_linear)"/><path d="M117.552 261.615s27.944-91.547 21.5-93.689h-9.681s2.139 48.451-14.651 74.413c-11.934 18.408 2.832 19.276 2.832 19.276z" fill="url(#paint2_linear)"/><path d="M97.668 480.6l111.583 7.2 56.523-115.488H97.668V480.6z" fill="#747F89"/><path d="M209.252 488.133l106.747-6.667V287.711l-106.747 83.022v117.4z" fill="#CED9E1"/><path d="M249.051 464.467l34.406-2.222v-75.956h-34.406v78.178z" fill="#3B4146"/><path d="M287.537 382.244l-4.526 4.622h-33.985v-4.622h38.511z" fill="#B7B7B8"/><path d="M283.012 386.8v75.444l4.547-.066v-79.911l-4.547 4.533z" fill="#FFFCF8"/><path d="M282.99 386.956h-5.013v75.133h5.013v-75.133z" fill="#747F89"/><path d="M249.052 386.719v5.022h33.741v-5.022h-33.741z" fill="#747F89"/><path d="M186.003 483.333l-56.923-5.556v-79.444h56.923v85z" fill="#3B4146"/><path d="M118.723 387.889l17.724 8.933 49.58 4.333v-13.266h-67.304z" fill="#B7B7B8"/><path d="M136.447 396.822l.178 81.978-17.902-1.067v-89.844l17.724 8.933z" fill="#D3D3D3"/><path d="M136.445 480.044l5.213-.688-.199-82.534h-5.014v83.222z" fill="#747F89"/><path d="M136.444 396.832v5.022h49.868v-5.022h-49.868z" fill="#747F89"/><path d="M315.844 280.934l-112.67.022-116.175 88.955h113.18l115.665-88.977z" fill="#7C5D5D"/><path d="M315.997 290.089l-.133-9.111L199.556 370l4.947 6.111 111.494-86.022z" fill="#3B4146"/><path d="M204.749 375.977H92.013l-5.014-6.022h112.715l5.035 6.022zm-17.525-56.755V265h-.4c.111-.067.178-.111.178-.178 0-.466-3.239-.822-7.232-.822-3.993 0-7.232.378-7.232.822 0 .067.067.134.178.178h-.4v63.422c-1.331 4.6.156 7.978 3.683 7.756 3.86-.245 8.674-4.734 10.759-10.022 1.153-2.823 1.22-5.289.466-6.934z" fill="#3B4146"/><path d="M185.982 459.601l-81.28-4.023v-6.889l81.28 4.023v6.889z" fill="#6E5151"/><path d="M104.702 448.689l81.724 4.489v-4.134l-49.935-1.866-31.789 1.511z" fill="#7C5D5D"/><path d="M174.78 447.578c.843 1.289 2.551 1.844 3.261 2.022l.222.378c.067.111.2.2.333.2h3.705a.365.365 0 0 0 .332-.2l2.884-5.111a.383.383 0 0 0-.333-.578h-9.45a.384.384 0 0 0-.333.578l.134.222c-.422.022-.843.133-1.11.467-.51.711.134 1.689.355 2.022zm.222-1.556c.111-.155.555-.2.932-.155l1.575 2.8c-.71-.267-1.619-.733-2.13-1.489-.421-.667-.466-1.044-.377-1.156zm-13.843.044c.843 1.289 2.551 1.845 3.261 2.022l.222.378a.41.41 0 0 0 .332.2h3.705a.366.366 0 0 0 .333-.2l2.884-5.111a.384.384 0 0 0-.333-.578h-9.45a.383.383 0 0 0-.333.578l.133.222c-.421.023-.843.134-1.109.467-.51.711.133 1.711.355 2.022zm.222-1.555c.111-.156.554-.2.931-.156l1.575 2.8c-.71-.267-1.619-.733-2.129-1.489-.422-.644-.466-1.022-.377-1.155zm-11.959 4.355c.798 1.223 2.395 1.734 3.061 1.912l.2.355a.353.353 0 0 0 .31.178h3.483a.356.356 0 0 0 .311-.178l2.706-4.8a.359.359 0 0 0-.311-.533h-8.873a.36.36 0 0 0-.311.533l.111.222c-.377.023-.798.111-1.042.445-.444.644.155 1.555.355 1.866zm.221-1.466c.111-.156.511-.178.866-.156l1.486 2.645c-.666-.245-1.531-.689-1.997-1.4-.399-.623-.443-.956-.355-1.089z" fill="#E6E7E8"/><path d="M141.171 447.223c.799 1.222 2.396 1.733 3.061 1.911l.2.356a.352.352 0 0 0 .31.177h3.483a.355.355 0 0 0 .311-.177l2.706-4.8a.36.36 0 0 0-.31-.534h-8.874a.36.36 0 0 0-.31.534l.111.222c-.378.022-.799.111-1.043.444-.444.622.155 1.556.355 1.867zm.222-1.467c.111-.155.51-.178.865-.155l1.486 2.644c-.665-.244-1.53-.689-1.996-1.4-.4-.622-.444-.978-.355-1.089zm-11.093.622c.732 1.134 2.241 1.623 2.862 1.778l.177.333a.346.346 0 0 0 .289.178h3.238a.346.346 0 0 0 .289-.178l2.529-4.466c.133-.222-.045-.511-.289-.511h-8.296c-.267 0-.422.266-.289.511l.111.2c-.355.022-.754.111-.954.422-.421.578.156 1.444.333 1.733zm.2-1.355c.111-.134.488-.178.82-.133l1.398 2.466c-.621-.222-1.42-.644-1.863-1.311-.4-.6-.444-.911-.355-1.022z" fill="#E6E7E8"/><defs><linearGradient id="paint0_linear" x1="85.278" y1="229.992" x2="154.401" y2="78.247" gradientUnits="userSpaceOnUse"><stop stop-color="#2DABAE"/><stop offset="1" stop-color="#1E7E89"/></linearGradient><linearGradient id="paint1_linear" x1="57.321" y1="159.165" x2="57.321" y2="384.929" gradientUnits="userSpaceOnUse"><stop stop-color="#5C465A"/><stop offset="1" stop-color="#3E2F3C"/></linearGradient><linearGradient id="paint2_linear" x1="140.025" y1="214.753" x2="110.056" y2="214.753" gradientUnits="userSpaceOnUse"><stop stop-color="#5C465A"/><stop offset="1" stop-color="#3E2F3C"/></linearGradient></defs></svg>