<svg width="208" height="274" fill="none" xmlns="http://www.w3.org/2000/svg"><path d="M73.244 63.412h-.913v27.095h.913V63.412z" fill="#C2B59B"/><path d="M102.99 149.157c1.256 4.077.457 8.917-2.359 12.232-1.636 1.906-4.413 3.201-7.419 3.125-2.93-.076-5.022-.838-6.696-2.591-2.435-2.515-3.653-5.869-3.386-9.489.228-3.506.799-6.631 2.473-8.841 1.56-2.058 4.109-3.239 7.647-3.239 6.81 0 8.332 4.23 9.74 8.803z" fill="#E9A954"/><path d="M89.026 140.696a6.443 6.443 0 0 1 1.217-.419c.343-.076.685-.114.99-.152a3.45 3.45 0 0 0-1.218-1.106c-1.598-.876-3.88-.381-5.821 1.182.875-.229 2.397-.496 4.033.114.266.114.532.267.799.381zm2.475-.572c.304-.038.609-.038.913-.076h1.103c-.076-.61-.266-1.791-1.103-2.972a6.537 6.537 0 0 0-3.272-2.439c.076.838.343 2.096 1.027 3.468a9.248 9.248 0 0 0 1.332 2.019zm2.325-.038c.456 0 .989.038 1.598.152.722.114 1.331.305 1.864.457 1.103-.267 2.245-.495 3.348-.762-1.256-.838-2.397-1.067-3.044-1.143-.609-.076-1.103-.038-1.37-.038a9.572 9.572 0 0 0-2.549.457c.038.267.076.572.153.877zm4.03-1.524c-.57-.076-1.331-.114-2.168-.076-.875.076-1.636.229-2.207.381v-.305a9.35 9.35 0 0 1 2.625-1.867 9.11 9.11 0 0 1 4.604-.839 94.816 94.816 0 0 1-2.854 2.706zm-3.423-1.181a7.98 7.98 0 0 0 .19-1.753 11.81 11.81 0 0 0-.266-2.82 6.674 6.674 0 0 0-1.142 1.295 7.096 7.096 0 0 0-1.027 2.249c.19.228.418.495.609.838.266.457.418.877.494 1.181.153-.19.343-.381.571-.571.19-.153.38-.305.57-.419zm.455-2.821c.038.343.038.763 0 1.182 0 .533-.076.991-.114 1.41a15.16 15.16 0 0 1 1.256-.762c.494-.229.95-.42 1.331-.534.685-.762 1.674-1.791 3.158-2.706a14.23 14.23 0 0 1 4.566-1.829 10.611 10.611 0 0 0-5.25.114c-2.626.801-4.262 2.401-4.947 3.125z" fill="#6DBE46"/><path d="M94.845 134.141c.494-.419 1.027-.838 1.598-1.296a27.363 27.363 0 0 1 1.56-1.029 17.864 17.864 0 0 1 2.359-3.201c1.597-1.677 3.233-2.705 4.413-3.277-.837.114-1.94.381-3.234.838-2.207.801-3.653 1.906-4.566 2.554-1.179.914-2.853 2.362-4.413 4.534.152.229.266.458.419.686.19-.266.418-.571.722-.914.229-.229.495-.419.685-.61.076.114.19.305.267.495.228.496.228.953.19 1.22zm-6.313 4.268c.228.038.495.076.799.152.342.115.609.229.837.343a15.012 15.012 0 0 1-.951-2.553c-.076-.267-.114-.533-.19-.762-.61-.191-1.598-.457-2.816-.419-1.37.038-2.435.419-3.043.724.38-.076 1.75-.381 3.233.381 1.37.648 1.94 1.753 2.131 2.134zm.344-3.2c-.19-.038-.38-.077-.61-.115a30.116 30.116 0 0 1-.722-.114 9.815 9.815 0 0 0-1.065-.915c-.228-.152-.913-.647-2.093-1.105a15.336 15.336 0 0 0-3.804-.914 9.328 9.328 0 0 1 6.277-.534c.229.076 3.272.953 5.137 3.697a.795.795 0 0 1 .152.228 5.957 5.957 0 0 0-.19.648 6.452 6.452 0 0 0-1.827-1.41 7.754 7.754 0 0 0-1.255-.495v1.029z" fill="#6DBE46"/><path d="M92.299 135.208c.152-.343.342-.648.494-.991a13.65 13.65 0 0 0-3.196-4.077c-3.272-2.82-6.962-3.201-8.332-3.278a9.181 9.181 0 0 1 3.31 2.439c.533.61.913 1.182 1.18 1.715.799.114 1.94.381 3.196 1.067a9.593 9.593 0 0 1 3.348 3.125z" fill="#6DBE46"/><path d="M92.339 132.922l.799-.914a11.533 11.533 0 0 0-2.397-4.573c-.533-.61-1.446-1.677-3.044-2.439a8.187 8.187 0 0 0-2.701-.801 9.96 9.96 0 0 1 2.51 3.011c.305.572.533 1.143.724 1.639a12.773 12.773 0 0 1 2.358 1.867c.8.8 1.37 1.562 1.75 2.21zm1.027-1.029c-.076-.381-.228-.8-.419-1.258a5.831 5.831 0 0 0-.342-.686c.495-.99 1.37-2.4 2.815-3.772a13.936 13.936 0 0 1 5.479-3.201 9.792 9.792 0 0 0-2.549 2.705c-.609.953-.99 1.868-1.18 2.592-.494.381-1.065.8-1.597 1.295-.952.801-1.636 1.601-2.207 2.325zm-1.746-3.811a18.86 18.86 0 0 1-.266-2.553c-.076-1.372-.038-2.401 0-3.582.038-.991.114-2.211.266-3.697.495 1.258.99 2.553 1.446 3.925a88.32 88.32 0 0 1 1.408 4.573c-.343.381-.647.839-.99 1.296a18.78 18.78 0 0 0-.95 1.486 16.864 16.864 0 0 0-.42-.762 7.737 7.737 0 0 1-.494-.686zm2.47-3.543a48.12 48.12 0 0 1 1.94-2.897 49.34 49.34 0 0 1 2.284-2.934c-.8 2.21-1.56 4.382-2.36 6.593a9.62 9.62 0 0 0-.684.61 7.824 7.824 0 0 0-.57.609 7.551 7.551 0 0 0-.305-.991c-.076-.343-.19-.647-.305-.99zm-6.434-2.935c.533.19 1.294.495 2.055 1.105a6.308 6.308 0 0 1 1.331 1.372 12.27 12.27 0 0 0 0 1.676c.038.763.153 1.487.267 2.096a7.042 7.042 0 0 0-1.142-1.372c-.304-.266-.57-.533-.837-.724 0-.457-.038-1.143-.304-1.905a6.015 6.015 0 0 0-1.37-2.248z" fill="#6DBE46"/><path d="M97.854 149.042c-.57.572-1.141 1.143-1.712 1.753.609.61 1.18 1.219 1.712 1.791.57-.61 1.103-1.181 1.598-1.715a51.718 51.718 0 0 0-1.408-1.6c-.038-.077-.114-.153-.19-.229zm-1.744-2.63c.61.61 1.18 1.258 1.75 1.867l1.56-1.562a24.735 24.735 0 0 0-1.598-1.905c-.532.495-1.103 1.028-1.712 1.6zm-8.603-4.496a2.05 2.05 0 0 0-.342.267l.076.076c.114-.114.19-.229.266-.343zm8.603.19c.571.648 1.18 1.258 1.712 1.905.38-.342.723-.685 1.066-.99-.533-.648-1.104-1.258-1.712-1.906-.343.343-.723.686-1.066.991zm3.271.534c-.076-.153-.19-.267-.342-.42a2.285 2.285 0 0 0-.457-.419c-.152-.114-.342-.267-.57-.419a2.355 2.355 0 0 0-.267-.153c.495.534.99 1.068 1.446 1.601a.459.459 0 0 1 .19-.19zm-4.032 16.958a80.231 80.231 0 0 1-1.827-1.753 80.423 80.423 0 0 1-1.826 1.791 82.51 82.51 0 0 0 1.826 1.791l1.827-1.829zm0-4.382l-1.827-1.829-1.826 1.829 1.826 1.829 1.827-1.829zm.418-.42c.609-.61 1.18-1.219 1.75-1.829-.57-.61-1.141-1.181-1.75-1.791l-1.826 1.829a78.36 78.36 0 0 0 1.826 1.791zm-4.874.42c-.609-.61-1.18-1.22-1.75-1.829-.57.571-1.103 1.181-1.636 1.715.532.609 1.065 1.219 1.636 1.867.57-.572 1.141-1.181 1.75-1.753zm-2.09 2.096a34.837 34.837 0 0 1-1.598-1.868c-.495.534-.99 1.067-1.408 1.525.456.609.913 1.257 1.446 1.905a30.12 30.12 0 0 1 1.56-1.562zm-1.605 2.286c-.494.495-.95.914-1.37 1.333.23.343.457.686.686.991.342.305.647.572.989.801.418-.382.875-.763 1.293-1.182l-1.598-1.943zm10.238 1.981a32.966 32.966 0 0 1-1.712-1.6c-.609.609-1.217 1.257-1.826 1.829.609.571 1.217 1.143 1.788 1.677.609-.648 1.18-1.296 1.75-1.906zm-9.886-14.938a65.404 65.404 0 0 0 1.636 1.6c.57-.609 1.18-1.257 1.75-1.867-.609-.572-1.18-1.143-1.75-1.639-.57.61-1.142 1.258-1.636 1.906zm-.043 4.23a741.1 741.1 0 0 0 1.636 1.753c.57-.61 1.141-1.219 1.75-1.829l-1.75-1.753c-.57.61-1.142 1.219-1.636 1.829zm3.423-8.803a39.389 39.389 0 0 0-1.37-1.219c-.304.114-.646.228-.95.381l-1.028 1.257c.495.458 1.027.953 1.598 1.448.57-.609 1.18-1.219 1.75-1.867zm2.211 15.396a85.56 85.56 0 0 1-1.826-1.867c-.609.609-1.18 1.181-1.788 1.753a83.27 83.27 0 0 0 1.788 1.867c.609-.572 1.218-1.143 1.826-1.753zm-5.143 5.564c.951.572 1.864.915 2.625 1.143.114-.114.228-.19.343-.305-.61-.609-1.18-1.257-1.75-1.905-.419.381-.837.724-1.218 1.067zm5.942-14.481l1.827 1.829 1.75-1.753c-.57-.61-1.141-1.257-1.75-1.867a78.325 78.325 0 0 0-1.826 1.791zm1.18-5.526c-.38.381-.799.762-1.18 1.143l1.827 1.829c.609-.571 1.18-1.105 1.712-1.638a41.015 41.015 0 0 0-1.75-1.906 8.915 8.915 0 0 0-.609.572zm-1.598 1.524l-1.826 1.829a80.386 80.386 0 0 1 1.826 1.791c.61-.61 1.218-1.181 1.827-1.791a41.413 41.413 0 0 0-1.827-1.829zm-1.826-2.515l1.826 1.715a75.526 75.526 0 0 0 1.789-1.715c-.571-.571-1.142-1.181-1.712-1.715h-.153a71.444 71.444 0 0 1-1.75 1.715zm3.987-.305l1.027-.914c-.837-.267-1.636-.381-2.32-.457.418.457.874.914 1.293 1.371zm-11.71 9.337a8.562 8.562 0 0 1-.609-1.143c-.152.915-.19 1.677-.228 2.172.038.153.076.305.152.496.152-.496.38-.991.685-1.525zm17.837 5.372l-.228.343c.38.458.685.839.951 1.22.076-.191.152-.343.228-.496.153-.533.267-1.028.343-1.524-.152-.267-.304-.572-.495-.915-.266.42-.494.877-.799 1.372zm-8.288-7.506l-1.826 1.829 1.826 1.829 1.827-1.829-1.827-1.829zm-.387 12.88a42.076 42.076 0 0 1-1.826-1.829l-1.75 1.638c.57.648 1.179 1.258 1.788 1.868.57-.534 1.18-1.068 1.788-1.677zm-.489-21.454c-.57 0-1.446.076-2.435.304.38.305.723.648 1.103.991.457-.419.875-.876 1.332-1.295zm-1.71 19.244c-.609-.61-1.18-1.258-1.75-1.868-.57.534-1.104 1.068-1.636 1.563a70.566 70.566 0 0 0 1.636 1.943l1.75-1.638zm6.538-2.286c-.57-.534-1.141-1.144-1.75-1.715a83.372 83.372 0 0 0-1.826 1.867c.609.61 1.217 1.181 1.826 1.753a81.687 81.687 0 0 0 1.75-1.905zm-7.915-12.995c.57.533 1.141 1.067 1.75 1.676l1.826-1.829a37.718 37.718 0 0 0-1.826-1.715c-.609.61-1.18 1.22-1.75 1.868zm-.075 8.688c.571.61 1.18 1.219 1.789 1.829l1.826-1.829-1.826-1.829c-.61.61-1.18 1.219-1.789 1.829zm.043-4.382c.57.572 1.18 1.143 1.788 1.753l1.826-1.829c-.609-.61-1.217-1.22-1.826-1.791-.609.61-1.217 1.219-1.788 1.867zm-4.532 7.888c-.304-.496-.609-.953-.837-1.41-.304.457-.533.838-.723 1.181 0 .038 0 .076.038.114.19.534.457 1.144.723 1.715.304-.381.647-.8 1.027-1.257l-.228-.343zm-1.364-4.192c-.076.19-.152.343-.228.533.19.496.457.991.761 1.563a22.97 22.97 0 0 1 1.065-1.486 16.354 16.354 0 0 1-1.065-1.563c-.19.343-.38.648-.533.953zm14.531 9.147c.419.381.837.762 1.218 1.105.228-.152.418-.343.646-.533.229-.191.457-.42.647-.648.152-.191.266-.419.381-.61-.381-.381-.837-.8-1.332-1.296a39.69 39.69 0 0 1-1.56 1.982zm5.054-8.614a4.619 4.619 0 0 0-.19-.533c-.114-.305-.266-.61-.419-.953a42.78 42.78 0 0 1-.951 1.525c.381.533.685 1.028.951 1.448.229-.496.457-1.029.609-1.487zm-17.763-.266c.418-.534.875-1.105 1.37-1.715-.38-.419-.761-.838-1.104-1.258-.076-.114-.19-.228-.266-.304a66.532 66.532 0 0 0-1.142 1.714 32.05 32.05 0 0 0 1.142 1.563zm-1.067-5.298c.305.381.685.839 1.104 1.334.418-.61.875-1.219 1.37-1.867l-.686-.686-.684-.686c-.38.648-.761 1.257-1.104 1.905zm16.282-1.142c-.19.228-.418.457-.647.686.495.647.914 1.257 1.294 1.867.304-.343.571-.686.799-.991a31.014 31.014 0 0 0-1.179-1.867c-.076.076-.153.19-.267.305zm.648-.686l-.076.076c.381.534.723 1.105 1.066 1.677-.305-.534-.609-1.143-.99-1.753zm-16.05-.382c-.076-.114-.19-.19-.266-.266a11.26 11.26 0 0 0-.913 2.095l.114.115c.304-.61.647-1.258 1.065-1.944zm-1.336 2.287a3.187 3.187 0 0 0-.153.572c.076-.153.153-.305.229-.496a93.802 93.802 0 0 0-.076-.076zm18.838 3.734c.152.343.267.648.381.953.076.19.114.343.152.533 0-.038 0-.076.038-.076 0-.8-.038-1.562-.152-2.248l-.419.838zm-19.632 1.525v.495c.038-.076.038-.152.076-.228-.038-.115-.076-.191-.076-.267zm19.632 2.058c.152.304.305.571.419.8a17.41 17.41 0 0 0 .152-2.325v-.038c-.152.496-.342.991-.571 1.563zm-1.645-4.992c-.304.381-.684.8-1.027 1.219.457.572.913 1.143 1.294 1.677.38-.534.723-1.067 1.027-1.524a49.871 49.871 0 0 0-1.027-1.715c-.114.114-.19.228-.267.343zm.502-.647c.38.609.685 1.181.989 1.714.228-.343.381-.685.533-.99-.038-.191-.076-.42-.114-.61-.191-.381-.419-.762-.609-1.105-.266.305-.533.648-.799.991zm-18.342 4.114c-.038.153-.114.267-.152.419 0-.038 0-.076-.038-.076 0 .648.076 1.486.228 2.363.153-.343.38-.686.609-1.105-.266-.61-.495-1.105-.647-1.601zm1.94-4.153c-.38-.496-.76-.915-1.027-1.296a12 12 0 0 0-.723 1.639c0 .038 0 .076-.038.152.19.381.419.8.723 1.258a17.91 17.91 0 0 1 1.065-1.753zm12.971-.305c.532.61 1.065 1.22 1.56 1.829.494-.533.951-1.067 1.331-1.524a45.736 45.736 0 0 0-1.37-1.867c-.456.495-.95.991-1.521 1.562zm-11.257-6.021l-.153-.153a8.858 8.858 0 0 0-1.521 1.868l.304.305c.419-.686.875-1.372 1.37-2.02zm15.448 12.042a25.722 25.722 0 0 0-1.027-1.449c-.38.572-.837 1.144-1.294 1.715.457.534.914 1.029 1.294 1.487.381-.61.761-1.182 1.027-1.753zm-16.631-5.792c.418.495.913 1.029 1.408 1.562.494-.609 1.065-1.219 1.598-1.829l-1.598-1.6a205.68 205.68 0 0 0-1.408 1.867zm.043-4.002c.418.419.875.877 1.408 1.372.494-.648 1.065-1.296 1.598-1.944l-1.56-1.448c-.495.724-.99 1.372-1.446 2.02zm12.365-.458a69.689 69.689 0 0 1 1.56 1.944l.951-.953a61.937 61.937 0 0 0-1.446-1.943c-.342.266-.684.609-1.065.952zm2.885.572a30.777 30.777 0 0 0-1.37-1.981c-.076.038-.114.114-.19.19.533.648.989 1.258 1.446 1.944a.517.517 0 0 1 .114-.153zm.081 7.889c-.418-.534-.875-1.105-1.331-1.677-.495.572-.99 1.143-1.56 1.715.114.114.19.229.304.305.457.457.875.914 1.256 1.372.456-.572.913-1.144 1.331-1.715zm-1.676 2.134a61.904 61.904 0 0 0-1.598-1.676l-1.712 1.829c.609.572 1.18 1.143 1.712 1.715a60.773 60.773 0 0 0 1.598-1.868zm1.633 1.829c-.418-.457-.837-.952-1.331-1.486-.495.61-1.028 1.22-1.56 1.868l1.522 1.524c.494-.648.951-1.296 1.369-1.906zm-1.671 2.325c-.495-.496-1.027-.991-1.56-1.525-.57.648-1.141 1.258-1.712 1.906.57.571 1.142 1.105 1.712 1.6a39.724 39.724 0 0 1 1.56-1.981zm-12.252-4.535c.418-.458.837-.915 1.293-1.41.114-.115.19-.229.305-.305a62.554 62.554 0 0 1-1.598-1.753c-.495.571-.99 1.143-1.408 1.715.418.571.913 1.143 1.408 1.753zm12.859 4.383l1.256 1.257c.419-.648.761-1.334 1.065-1.943-.304-.343-.608-.763-1.027-1.22-.342.648-.799 1.258-1.294 1.906zm-13.161-4.041a44.336 44.336 0 0 1-1.37-1.753 24.604 24.604 0 0 0-1.104 1.487c.343.571.723 1.143 1.142 1.791.38-.457.837-.953 1.331-1.525zm9.207 8.766c.077.076.19.153.267.267a8.524 8.524 0 0 0 2.549-1.181c-.343-.305-.723-.648-1.103-.991a26.706 26.706 0 0 1-1.713 1.905zm-10.577-6.517c-.419.458-.8.877-1.104 1.258.343.648.723 1.296 1.142 1.944.418-.382.875-.839 1.331-1.296a46.32 46.32 0 0 1-1.37-1.906z" fill="#F1C355"/><path d="M87.359 147.403c2.13 3.735 2.397 8.613.342 12.423-1.18 2.211-3.614 4.078-6.544 4.65-2.891.571-5.06.266-7.115-1.067-2.93-1.906-4.832-4.916-5.364-8.537-.533-3.468-.647-6.669.494-9.146 1.066-2.362 3.31-4.077 6.735-4.839 6.696-1.449 9.093 2.362 11.452 6.516z" fill="#E9A954"/><path d="M71.905 142.182a4.967 4.967 0 0 1 1.103-.647c.343-.153.647-.267.913-.381-.532-.496-1.027-.725-1.408-.839-1.75-.533-3.88.457-5.44 2.401.799-.419 2.245-.991 3.957-.762.304.076.608.152.875.228zm2.281-1.105c.266-.076.57-.19.874-.267.381-.114.723-.19 1.066-.228a6.419 6.419 0 0 0-1.712-2.668c-1.484-1.372-3.158-1.6-3.729-1.677a9.601 9.601 0 0 0 1.75 3.163 8.761 8.761 0 0 0 1.75 1.677zm2.249-.571c.457-.076.99-.152 1.56-.19.723-.039 1.37 0 1.902.038 1.028-.496 2.093-.991 3.12-1.487-1.407-.533-2.587-.533-3.234-.457-.608.038-1.065.191-1.331.267a9.511 9.511 0 0 0-2.36.991c.115.305.23.571.343.838z" fill="#6DBE46"/><path d="M80.082 138.181a8.66 8.66 0 0 0-2.13.419c-.837.267-1.56.571-2.093.876-.038-.114-.038-.19-.076-.305a9.805 9.805 0 0 1 2.168-2.4c1.713-1.296 3.425-1.677 4.338-1.83-.761 1.067-1.484 2.173-2.207 3.24zm-3.649-.42c0-.533-.076-1.105-.19-1.753a9.805 9.805 0 0 0-.875-2.705c-.266.381-.57.876-.837 1.524a7.684 7.684 0 0 0-.533 2.401 5.5 5.5 0 0 1 .8.686c.342.381.57.762.76 1.029.114-.191.228-.419.419-.686.152-.153.304-.343.456-.496zm-.116-2.857c.114.343.19.724.266 1.143.076.495.153.991.19 1.41.267-.305.647-.648 1.066-.991.418-.343.837-.61 1.217-.8.495-.915 1.256-2.134 2.473-3.316 1.484-1.486 3.044-2.324 4.071-2.744-.989 0-2.967.115-5.098 1.258-2.473 1.296-3.728 3.201-4.185 4.04z" fill="#6DBE46"/><path d="M76.166 134.523c.38-.495.799-1.067 1.294-1.601.456-.495.875-.952 1.293-1.371a16.722 16.722 0 0 1 1.598-3.659c1.18-1.982 2.587-3.315 3.576-4.192-.798.305-1.826.8-2.967 1.525-1.978 1.295-3.158 2.667-3.88 3.506a20.567 20.567 0 0 0-3.349 5.373l.57.571c.115-.304.267-.647.533-1.028.19-.305.38-.534.533-.725.114.115.266.267.38.42.305.457.381.914.42 1.181zm-5.251 5.525c.229-.038.495-.038.838-.038.342.038.646.076.875.152-.495-.648-1.028-1.372-1.446-2.286-.114-.229-.228-.496-.343-.724-.646-.076-1.674-.077-2.853.228a7.69 7.69 0 0 0-2.816 1.372c.343-.152 1.636-.762 3.234-.343 1.446.343 2.283 1.296 2.511 1.639zm-.339-3.201h-.609c-.266 0-.494 0-.723.038a9.267 9.267 0 0 0-1.255-.648c-.228-.114-1.027-.419-2.283-.61-.837-.152-2.207-.267-3.88-.038.57-.457 2.777-2.058 6.01-1.867.267 0 3.387.228 5.822 2.515l.19.19c-.038.229-.038.458-.076.686-.457-.304-1.142-.724-2.093-.952-.494-.115-.95-.191-1.331-.191.076.229.152.572.228.877z" fill="#6DBE46"/><path d="M73.883 136.085c.114-.343.19-.724.305-1.067a13.77 13.77 0 0 0-3.995-3.277c-3.805-2.02-7.495-1.601-8.827-1.372.913.19 2.359.61 3.766 1.677.647.457 1.142.99 1.522 1.41a8.576 8.576 0 0 1 3.348.343c1.94.571 3.234 1.676 3.881 2.286z" fill="#6DBE46"/><path d="M73.461 133.836l.609-1.067a11.554 11.554 0 0 0-3.31-3.963c-.647-.496-1.788-1.334-3.5-1.715-1.142-.267-2.17-.267-2.816-.191a9.927 9.927 0 0 1 3.12 2.401c.418.496.76.991 1.027 1.448.761.267 1.712.686 2.701 1.334.875.61 1.598 1.22 2.169 1.753zm.759-1.181c-.19-.343-.418-.763-.685-1.144a8.469 8.469 0 0 0-.456-.609c.266-1.106.837-2.668 1.902-4.269a13.52 13.52 0 0 1 4.642-4.306 9.92 9.92 0 0 0-1.903 3.201 11.975 11.975 0 0 0-.608 2.782c-.419.457-.837 1.029-1.294 1.639a14.7 14.7 0 0 0-1.598 2.706zm-2.548-3.353a42.621 42.621 0 0 1-.837-2.439c-.38-1.334-.57-2.363-.76-3.506a41.073 41.073 0 0 1-.533-3.659 51.678 51.678 0 0 1 2.244 3.544c.875 1.41 1.636 2.82 2.36 4.154a28.01 28.01 0 0 0-.686 1.486c-.228.572-.456 1.144-.608 1.677a7.92 7.92 0 0 0-.571-.648c-.19-.228-.38-.457-.609-.609zm1.674-4.002c.38-1.029.8-2.096 1.256-3.239a55.952 55.952 0 0 1 1.598-3.354c-.305 2.325-.57 4.611-.875 6.936-.19.228-.343.457-.533.762-.152.267-.304.495-.418.724-.153-.305-.343-.61-.495-.915-.19-.304-.343-.609-.533-.914zm-6.926-1.486a6.24 6.24 0 0 1 2.245.61 8.98 8.98 0 0 1 1.598 1.029c.076.496.19 1.067.38 1.639.19.762.457 1.41.686 1.981-.38-.343-.837-.724-1.408-1.105-.343-.228-.685-.381-.99-.533a6.251 6.251 0 0 0-.722-1.791 6.253 6.253 0 0 0-1.788-1.83z" fill="#6DBE46"/><path d="M82.335 148.394c-.419.647-.837 1.371-1.294 2.057.723.458 1.408.953 2.093 1.41.418-.686.799-1.371 1.179-2.019a32.756 32.756 0 0 0-1.712-1.258c-.114-.076-.19-.114-.266-.19zm-2.288-2.21c.723.495 1.408.953 2.092 1.448.419-.648.837-1.296 1.18-1.867-.647-.496-1.294-1.029-1.979-1.525-.418.61-.837 1.296-1.293 1.944zm-9.352-2.516c-.076.114-.19.229-.266.305.038 0 .076.038.114.038.038-.076.076-.191.152-.343zm8.401-1.638c.723.495 1.407.991 2.092 1.486.305-.419.571-.8.837-1.181a32.792 32.792 0 0 0-2.092-1.486c-.267.381-.533.762-.837 1.181zm3.314-.229c-.115-.114-.267-.228-.42-.343-.19-.152-.38-.228-.532-.304-.19-.077-.38-.191-.647-.267a1.177 1.177 0 0 0-.304-.076c.609.419 1.18.838 1.75 1.257a.622.622 0 0 1 .152-.267zm-.272 17.454c-.723-.419-1.446-.877-2.169-1.334-.456.724-.95 1.448-1.407 2.134l2.168 1.372c.495-.686.951-1.448 1.408-2.172zm-.908-4.268l-2.169-1.372c-.457.724-.951 1.448-1.408 2.172.723.458 1.446.953 2.207 1.41.457-.762.913-1.486 1.37-2.21zm.307-.496c.456-.724.875-1.448 1.331-2.172a104.29 104.29 0 0 0-2.092-1.372l-1.37 2.172c.685.458 1.408.915 2.13 1.372zm-4.682 1.448c-.723-.457-1.446-.952-2.13-1.41-.42.686-.838 1.372-1.218 2.02.646.495 1.331.953 2.016 1.448.419-.648.875-1.372 1.332-2.058zm-1.604 2.478c-.685-.496-1.332-.991-1.978-1.448-.38.648-.723 1.219-1.028 1.791.571.495 1.18 1.029 1.827 1.524.342-.571.76-1.219 1.179-1.867zm-1.021 2.591c-.38.571-.723 1.105-1.065 1.6.304.267.57.572.913.839.38.228.76.419 1.141.571a23.15 23.15 0 0 0 1.027-1.448 46.466 46.466 0 0 1-2.016-1.562zm10.39-.304c-.647-.381-1.332-.762-2.017-1.182-.456.725-.913 1.487-1.37 2.211.723.419 1.408.838 2.093 1.219.457-.724.913-1.486 1.294-2.248zM71.722 148.28c.609.381 1.256.8 1.94 1.219.419-.724.875-1.486 1.332-2.21-.723-.419-1.408-.839-2.055-1.22a44.432 44.432 0 0 0-1.217 2.211zm.865 4.153c.647.419 1.294.876 1.979 1.334.418-.724.875-1.41 1.331-2.172-.722-.458-1.407-.915-2.092-1.334a62.369 62.369 0 0 0-1.218 2.172zm1.491-9.336a31.926 31.926 0 0 0-1.598-.876c-.304.19-.57.381-.837.571-.266.496-.494.991-.723 1.448.61.343 1.218.686 1.865 1.067a33.29 33.29 0 0 1 1.293-2.21zm5.442 14.557c-.723-.457-1.446-.914-2.207-1.41-.457.724-.913 1.41-1.37 2.096.685.496 1.408.953 2.131 1.448.533-.724.99-1.41 1.446-2.134zm-3.812 6.555c1.027.343 2.017.495 2.815.533.077-.114.19-.228.267-.343a35.62 35.62 0 0 1-2.13-1.486c-.305.419-.648.877-.952 1.296zm2.672-15.434c.723.457 1.446.952 2.169 1.41.456-.724.913-1.41 1.331-2.096-.684-.496-1.407-.953-2.13-1.448-.457.686-.913 1.41-1.37 2.134zm-.038-5.64l-.913 1.372c.723.457 1.446.915 2.169 1.41.456-.686.913-1.334 1.331-1.982-.685-.495-1.407-.99-2.13-1.486l-.457.686zm-1.226 1.791c-.457.724-.951 1.448-1.408 2.172.723.457 1.446.876 2.169 1.372.456-.724.95-1.448 1.407-2.134a68.195 68.195 0 0 0-2.168-1.41zm-2.316-2.02c.685.42 1.407.839 2.13 1.296.457-.724.952-1.41 1.408-2.058-.685-.457-1.37-.876-2.054-1.295-.038 0-.115.038-.153.038a46.681 46.681 0 0 0-1.331 2.019zm3.847-1.181c.266-.381.532-.762.799-1.105a9.476 9.476 0 0 0-2.36.076c.496.343 1.028.686 1.56 1.029zm-9.444 11.661a9.01 9.01 0 0 1-.837-.99c.076.914.19 1.676.266 2.172.076.152.152.305.267.457 0-.495.114-1.029.304-1.639zm18.567 1.372c-.038.114-.076.267-.114.381.457.343.837.686 1.18.953.038-.191.076-.382.114-.534.038-.533.038-1.067 0-1.562a44.01 44.01 0 0 0-.685-.801c-.152.496-.304 1.029-.495 1.563zm-9.703-5.526c-.457.724-.951 1.449-1.408 2.211.723.457 1.446.914 2.207 1.372.456-.724.951-1.449 1.408-2.173-.723-.495-1.484-.952-2.207-1.41zm2.398 12.653l-2.17-1.372a86.182 86.182 0 0 1-1.369 1.981c.685.496 1.408.991 2.13 1.448a27.68 27.68 0 0 0 1.409-2.057zm-5.092-20.808c-.533.153-1.408.381-2.283.839.418.228.875.495 1.293.724a21.77 21.77 0 0 1 .99-1.563zm2.471 19.131c-.723-.496-1.446-.953-2.13-1.448a39.776 39.776 0 0 1-1.256 1.867c.647.534 1.331 1.029 2.016 1.524.457-.609.913-1.257 1.37-1.943zm5.895-3.658c-.685-.42-1.37-.839-2.055-1.296-.456.724-.913 1.486-1.37 2.21.723.457 1.446.877 2.131 1.334a68.08 68.08 0 0 0 1.294-2.248zm-10.542-10.975c.684.381 1.37.8 2.092 1.257.457-.724.913-1.486 1.37-2.172-.723-.457-1.446-.877-2.13-1.296a66.986 66.986 0 0 0-1.332 2.211zm1.827 8.498c.685.457 1.408.914 2.13 1.41.457-.725.914-1.449 1.409-2.173-.723-.457-1.484-.914-2.207-1.372-.457.686-.913 1.41-1.332 2.135zm-.951-4.269c.685.419 1.408.877 2.13 1.334.457-.724.914-1.486 1.408-2.21a65.052 65.052 0 0 0-2.168-1.334 112.56 112.56 0 0 0-1.37 2.21zm-2.698 8.689c-.419-.419-.8-.8-1.142-1.22-.19.496-.342.953-.456 1.334 0 .038.038.076.038.115.304.495.685.99 1.103 1.524.228-.419.457-.915.761-1.448-.114-.115-.19-.229-.304-.305zm-2.211-3.773l-.114.572c.304.419.647.876 1.065 1.372.19-.534.419-1.067.723-1.677-.495-.457-.99-.876-1.37-1.296-.152.343-.228.686-.304 1.029zm16.141 5.755c.495.267.99.533 1.408.8.19-.19.343-.419.495-.648a8.48 8.48 0 0 0 .494-.762c.076-.228.153-.457.267-.686-.457-.305-.99-.609-1.56-.952-.343.724-.723 1.486-1.104 2.248zm3.078-9.528a3.181 3.181 0 0 0-.305-.457 10.07 10.07 0 0 0-.647-.839c-.152.534-.38 1.106-.608 1.677.456.419.913.839 1.255 1.22.153-.572.267-1.106.305-1.601zm-17.391 3.62c.304-.609.608-1.295.989-1.981-.457-.343-.913-.686-1.332-.991a2.095 2.095 0 0 1-.342-.267c-.267.686-.533 1.334-.723 1.906.418.457.875.876 1.408 1.333zm-2.209-4.953c.38.304.875.686 1.37 1.067.266-.686.608-1.41.95-2.134-.266-.191-.532-.343-.798-.534-.267-.191-.571-.343-.8-.534a17.712 17.712 0 0 0-.722 2.135zm15.675-4.65l-.457.8c.61.534 1.18 1.029 1.674 1.525.19-.419.381-.801.571-1.144a30.197 30.197 0 0 0-1.56-1.562 3.36 3.36 0 0 0-.228.381zm.464-.8c-.038.038-.038.076-.076.114.494.458.95.915 1.407 1.41-.38-.495-.837-.99-1.331-1.524zm-15.757 3.125l-.343-.228a11.8 11.8 0 0 0-.456 2.248l.114.114c.228-.686.457-1.41.685-2.134zm-.793 2.477c0 .19-.038.381-.038.571.038-.19.076-.343.114-.533-.038 0-.076 0-.076-.038zm19.178-.42c.228.305.418.572.57.839.115.152.19.305.267.457v-.114c-.19-.801-.38-1.525-.647-2.173 0 .305-.076.648-.19.991zm-18.842 5.716l.114.458v-.229a48.91 48.91 0 0 1-.114-.229zm19.601-2.248c.228.267.418.496.57.724-.076-.838-.228-1.6-.342-2.286v-.038a13.49 13.49 0 0 1-.228 1.6zm-2.67-4.496c-.229.457-.495.914-.761 1.41.57.457 1.141.914 1.636 1.372.266-.61.494-1.182.684-1.715a44.21 44.21 0 0 0-1.37-1.448c-.075.114-.113.266-.19.381zm.351-.725c.494.496.95.991 1.33 1.449.115-.382.23-.763.305-1.067l-.228-.572c-.266-.305-.57-.648-.837-.953-.19.343-.38.724-.57 1.143zm-17.013 8.004c-.039.152-.039.305-.039.419 0-.038-.038-.076-.038-.076.153.647.38 1.41.723 2.248.076-.343.19-.762.38-1.219-.418-.496-.76-.953-1.026-1.372zm.993-4.497a21.606 21.606 0 0 1-1.294-1.067 17.73 17.73 0 0 0-.342 1.753v.153c.266.343.609.686.99 1.067.151-.572.38-1.22.646-1.906zm12.632-3.125a41.2 41.2 0 0 1 1.902 1.448c.342-.648.685-1.22.99-1.791-.534-.496-1.104-.991-1.713-1.525-.38.61-.76 1.22-1.18 1.868zm-12.328-3.43c-.076-.038-.115-.076-.19-.114a10.16 10.16 0 0 0-1.066 2.134l.343.228a34.4 34.4 0 0 1 .913-2.248zm17.725 8.423c-.38-.382-.837-.763-1.332-1.22-.266.61-.57 1.296-.913 1.982.57.419 1.103.8 1.56 1.181.304-.686.495-1.334.685-1.943zm-17.495-2.059c.533.382 1.103.801 1.712 1.22.38-.686.76-1.41 1.18-2.134-.647-.419-1.294-.839-1.903-1.22-.38.724-.723 1.449-.99 2.134zm-.844-3.887c.494.305 1.065.686 1.673 1.029.343-.724.761-1.486 1.142-2.249-.647-.381-1.256-.724-1.827-1.067-.342.763-.684 1.525-.989 2.287zm11.99-3.163a26.793 26.793 0 0 1 1.94 1.563c.267-.42.495-.801.724-1.144-.61-.533-1.218-1.067-1.865-1.6a31.7 31.7 0 0 0-.799 1.181zm2.929-.038a36.878 36.878 0 0 0-1.75-1.638c-.039.076-.115.152-.153.19a24.593 24.593 0 0 1 1.826 1.563c.038-.039.038-.077.077-.115zm1.789 7.659c-.532-.419-1.065-.876-1.674-1.334a37.718 37.718 0 0 1-1.141 2.02l.342.229c.533.381 1.027.724 1.522 1.067.342-.686.647-1.334.951-1.982zm-1.18 2.44c-.609-.419-1.255-.839-1.902-1.296a65.255 65.255 0 0 1-1.294 2.172c.723.458 1.408.877 2.055 1.296.38-.762.76-1.486 1.141-2.172zm2.012 1.448a37.663 37.663 0 0 0-1.636-1.181c-.342.685-.723 1.41-1.103 2.134.647.419 1.255.8 1.826 1.143.304-.686.609-1.41.913-2.096zm-1.174 2.629c-.57-.381-1.217-.762-1.864-1.143-.418.724-.837 1.486-1.293 2.21.684.419 1.37.8 2.016 1.181.419-.762.8-1.524 1.141-2.248zm-12.901-1.752c.305-.533.647-1.067.951-1.638.077-.115.153-.267.229-.382a42.84 42.84 0 0 1-1.94-1.371 32.357 32.357 0 0 0-1.028 1.981c.57.457 1.141.915 1.788 1.41zm13.505 1.486c.534.343 1.066.686 1.523.952.228-.724.456-1.448.608-2.134-.342-.304-.76-.609-1.255-.952-.266.686-.57 1.41-.875 2.134zm-13.771-1.067c-.609-.495-1.18-.953-1.712-1.41-.305.61-.533 1.181-.761 1.715.457.495.951.991 1.484 1.486.304-.572.647-1.181.989-1.791zm10.918 6.516c.114.076.228.114.342.191.761-.42 1.522-.991 2.245-1.715a53.324 53.324 0 0 1-1.294-.724 43.215 43.215 0 0 1-1.293 2.248zm-11.758-4.077a30.06 30.06 0 0 0-.8 1.486c.457.533.99 1.105 1.56 1.677.305-.496.647-.991 1.028-1.563-.647-.572-1.218-1.067-1.788-1.6z" fill="#F1C355"/><path d="M74.613 161.846c1.408 4.039.837 8.879-1.864 12.309-1.56 1.944-4.3 3.354-7.267 3.43-2.93.038-5.06-.648-6.81-2.325-2.55-2.401-3.88-5.716-3.767-9.336.114-3.506.533-6.669 2.13-8.918 1.485-2.134 3.996-3.391 7.496-3.544 6.81-.305 8.484 3.849 10.082 8.384z" fill="#E9A954"/><path d="M60.305 153.958c.342-.152.723-.305 1.18-.457.342-.115.684-.153.988-.191-.418-.572-.913-.876-1.255-1.067-1.636-.838-3.919-.229-5.783 1.41.875-.267 2.397-.572 4.033-.038.304.076.57.229.837.343zm2.473-.686a7.38 7.38 0 0 1 .913-.076c.38-.039.76-.039 1.103-.039-.076-.609-.342-1.753-1.217-2.934-1.218-1.601-2.816-2.134-3.386-2.325a9.626 9.626 0 0 0 1.179 3.43c.419.839.951 1.448 1.408 1.944zm2.272-.153c.457 0 .99 0 1.599.077.722.076 1.331.228 1.864.381 1.103-.305 2.207-.61 3.31-.877-1.294-.8-2.435-.991-3.082-1.029-.609-.038-1.103 0-1.37 0a8.44 8.44 0 0 0-2.51.572c.076.305.114.61.19.876z" fill="#6DBE46"/><path d="M69.054 151.481c-.609-.038-1.331-.076-2.169 0-.875.114-1.636.305-2.206.496v-.305c.494-.572 1.37-1.334 2.549-1.982 1.902-.991 3.69-1.029 4.566-1.029-.914.953-1.827 1.867-2.74 2.82zm-3.503-1.067c.076-.496.152-1.105.152-1.753 0-1.143-.19-2.096-.38-2.82a8.52 8.52 0 0 0-1.104 1.334c-.57.876-.837 1.676-.95 2.286.19.191.418.496.646.839.266.419.456.838.533 1.181.152-.191.304-.381.532-.572.229-.228.419-.381.571-.495zm.378-2.82c.038.342.076.762.076 1.181 0 .533-.038.991-.076 1.41a8.366 8.366 0 0 1 1.217-.8 7.295 7.295 0 0 1 1.332-.572c.647-.8 1.636-1.867 3.044-2.82a14.124 14.124 0 0 1 4.49-1.982c-.952-.19-2.93-.419-5.251.343-2.626.801-4.185 2.477-4.832 3.24z" fill="#6DBE46"/><path d="M65.856 147.174c.457-.419.99-.876 1.56-1.333.533-.42 1.027-.763 1.522-1.106.495-.952 1.18-2.134 2.245-3.315a16.132 16.132 0 0 1 4.26-3.468c-.836.153-1.94.457-3.195.953-2.169.914-3.577 2.058-4.452 2.744-1.14.952-2.777 2.477-4.26 4.687.151.229.304.457.456.648.152-.267.38-.61.685-.915.228-.267.456-.457.684-.61.115.115.19.305.305.496.228.495.19.953.19 1.219zm-6.124 4.497c.228 0 .494.039.799.115.342.076.608.19.837.305a12.811 12.811 0 0 1-1.028-2.516 7.333 7.333 0 0 1-.19-.762 8.339 8.339 0 0 0-2.853-.305 8.227 8.227 0 0 0-3.006.839c.343-.115 1.75-.458 3.272.228a4.858 4.858 0 0 1 2.169 2.096zm.225-3.201c-.19-.038-.38-.076-.608-.114a25.634 25.634 0 0 1-.723-.115 11.783 11.783 0 0 0-1.104-.838c-.228-.152-.95-.61-2.13-1.029-.8-.305-2.093-.648-3.805-.762.647-.343 3.12-1.524 6.24-.8.228.038 3.31.8 5.288 3.506.076.076.114.152.152.19-.076.229-.114.457-.19.648a6.737 6.737 0 0 0-1.864-1.334 5.088 5.088 0 0 0-1.294-.419c0 .381 0 .724.038 1.067z" fill="#6DBE46"/><path d="M63.342 148.317c.152-.343.304-.648.456-.991-.609-1.067-1.636-2.591-3.348-3.925-3.348-2.667-7.077-2.896-8.446-2.934a9.105 9.105 0 0 1 3.386 2.324 9.176 9.176 0 0 1 1.255 1.677 8.95 8.95 0 0 1 3.234.953c1.865.876 2.93 2.172 3.463 2.896z" fill="#6DBE46"/><path d="M63.307 146.031l.761-.952a11.47 11.47 0 0 0-2.587-4.497c-.57-.61-1.522-1.601-3.157-2.325a7.701 7.701 0 0 0-2.74-.686 10.222 10.222 0 0 1 2.625 2.935 9.97 9.97 0 0 1 .761 1.6c.685.381 1.56.991 2.435 1.791.875.762 1.484 1.487 1.902 2.134zm.953-1.068c-.115-.381-.267-.8-.457-1.257l-.342-.686a13.03 13.03 0 0 1 2.663-3.849c1.978-2.02 4.109-2.972 5.326-3.43a9.916 9.916 0 0 0-2.435 2.82 10.9 10.9 0 0 0-1.103 2.63c-.495.381-1.027.838-1.56 1.372-.837.838-1.522 1.676-2.093 2.4zm-1.87-3.734a39.043 39.043 0 0 1-.38-2.553c-.152-1.372-.152-2.401-.152-3.582 0-.991.038-2.248.152-3.697a101.88 101.88 0 0 1 1.598 3.888 70.973 70.973 0 0 1 1.56 4.496c-.305.42-.61.839-.952 1.334-.342.534-.646 1.067-.913 1.524a3.832 3.832 0 0 0-.456-.724 4.351 4.351 0 0 0-.457-.686zm2.364-3.62a44.835 44.835 0 0 1 1.826-2.972 41.097 41.097 0 0 1 2.169-3.011c-.685 2.21-1.408 4.459-2.093 6.669l-.647.648c-.19.228-.38.457-.57.648-.114-.343-.229-.648-.343-.991a29.512 29.512 0 0 0-.342-.991zm-6.552-2.706a6.956 6.956 0 0 1 2.093 1.029 7.67 7.67 0 0 1 1.37 1.296c0 .495 0 1.067.076 1.677.076.762.19 1.448.342 2.058a7.552 7.552 0 0 0-1.218-1.334 11.068 11.068 0 0 0-.875-.686c0-.457-.114-1.143-.38-1.867-.38-1.068-1.027-1.792-1.408-2.173z" fill="#6DBE46"/><path d="M69.468 161.923c-.533.571-1.066 1.181-1.636 1.791a78.368 78.368 0 0 1 1.788 1.753c.532-.61 1.027-1.22 1.522-1.791-.457-.496-.952-1.029-1.446-1.563a.39.39 0 0 1-.228-.19zm-1.861-2.554l1.789 1.791c.532-.571 1.027-1.105 1.521-1.638-.532-.61-1.103-1.22-1.674-1.868-.532.534-1.065 1.105-1.636 1.715zm-8.752-4.153c-.114.076-.228.19-.342.267l.076.076c.076-.115.19-.229.266-.343zm8.56-.115c.608.61 1.217 1.22 1.788 1.829l1.027-1.029a40.115 40.115 0 0 0-1.788-1.829c-.304.305-.685.648-1.027 1.029zm3.272.343a2.772 2.772 0 0 0-.342-.419 4.576 4.576 0 0 0-.457-.419c-.152-.115-.342-.267-.609-.381-.114-.038-.19-.115-.304-.153.533.534 1.027 1.029 1.484 1.563a.39.39 0 0 0 .228-.191zm-3.349 17.149a647.502 647.502 0 0 1-1.903-1.677c-.57.648-1.18 1.258-1.75 1.867a79.65 79.65 0 0 0 1.902 1.753c.61-.686 1.18-1.295 1.75-1.943zm-.15-4.383c-.61-.572-1.256-1.143-1.903-1.753a81.467 81.467 0 0 0-1.75 1.905c.647.61 1.256 1.182 1.903 1.753.608-.647 1.179-1.295 1.75-1.905zm.387-.419c.57-.648 1.142-1.257 1.674-1.905-.57-.572-1.18-1.143-1.826-1.753-.57.61-1.141 1.257-1.75 1.905.647.572 1.293 1.182 1.902 1.753zm-4.832.571c-.609-.609-1.256-1.181-1.826-1.753-.533.61-1.066 1.22-1.56 1.791a71.304 71.304 0 0 0 1.712 1.792c.533-.61 1.103-1.22 1.674-1.83zm-2.016 2.173c-.57-.609-1.141-1.219-1.674-1.791a107.74 107.74 0 0 0-1.331 1.563c.456.609.989 1.219 1.521 1.829.419-.496.952-1.029 1.484-1.601zm-1.492 2.363c-.495.496-.913.953-1.332 1.372.229.343.495.648.723.991.343.267.685.534 1.028.762.418-.381.836-.8 1.255-1.219-.57-.648-1.141-1.296-1.674-1.906zm10.318 1.562c-.57-.496-1.179-.991-1.788-1.524-.57.647-1.141 1.295-1.75 1.905.647.572 1.256 1.067 1.864 1.601a77.288 77.288 0 0 0 1.674-1.982zm-10.506-14.519c.533.495 1.103.99 1.674 1.562a74.477 74.477 0 0 1 1.674-1.943c-.609-.534-1.218-1.067-1.788-1.601a70.83 70.83 0 0 0-1.56 1.982zm.117 4.192c.533.533 1.103 1.105 1.712 1.677.533-.61 1.104-1.258 1.674-1.906-.608-.571-1.217-1.143-1.826-1.676-.533.647-1.065 1.295-1.56 1.905zm3.113-8.879c-.494-.42-.95-.801-1.407-1.144-.305.115-.647.267-.952.42a30.1 30.1 0 0 0-.989 1.295c.533.419 1.066.877 1.674 1.372a74.477 74.477 0 0 1 1.674-1.943zm2.778 15.281c-.647-.571-1.294-1.181-1.902-1.753a75.93 75.93 0 0 1-1.712 1.791c.608.61 1.217 1.22 1.864 1.791.57-.609 1.18-1.219 1.75-1.829zm-4.907 5.755c.95.533 1.902.838 2.663 1.029.114-.115.228-.191.304-.305l-1.826-1.829c-.38.381-.761.762-1.142 1.105zm5.365-14.711c.646.572 1.255 1.182 1.902 1.791.57-.609 1.141-1.219 1.674-1.791a80.386 80.386 0 0 0-1.826-1.791c-.61.534-1.18 1.143-1.75 1.791zm.959-5.563c-.38.381-.76.762-1.14 1.181.646.572 1.255 1.182 1.901 1.791a70.197 70.197 0 0 0 1.674-1.714l-1.826-1.83a8.939 8.939 0 0 0-.609.572zm-1.528 1.562c-.571.61-1.18 1.258-1.75 1.906a85.694 85.694 0 0 0 1.902 1.714c.57-.647 1.18-1.257 1.75-1.829-.647-.61-1.256-1.219-1.903-1.791zm-1.9-2.4c.609.533 1.255 1.067 1.864 1.677.57-.61 1.18-1.22 1.75-1.753a68.38 68.38 0 0 0-1.788-1.639h-.152c-.57.495-1.141 1.105-1.674 1.715zm3.956-.496c.342-.343.647-.647.989-.952-.837-.229-1.674-.343-2.359-.343.457.419.951.876 1.37 1.295zm-11.339 9.832c-.266-.419-.495-.8-.647-1.143-.114.915-.114 1.677-.114 2.172.038.153.114.305.152.496.114-.496.343-.991.61-1.525zm18.036 4.649c-.076.114-.114.229-.19.381.38.419.722.8.989 1.143.076-.19.152-.343.19-.533.114-.534.19-1.029.266-1.525-.152-.266-.342-.571-.532-.914-.229.457-.457.953-.723 1.448zm-8.561-7.164a81.474 81.474 0 0 0-1.75 1.905c.646.572 1.255 1.182 1.902 1.753a77.831 77.831 0 0 0 1.75-1.905c-.647-.572-1.293-1.181-1.902-1.753zm.116 12.88a80.017 80.017 0 0 1-1.902-1.753c-.57.61-1.142 1.143-1.674 1.715l1.826 1.829c.57-.61 1.141-1.181 1.75-1.791zm-1.329-21.416c-.57.038-1.446.114-2.397.419.38.305.761.61 1.142.953.38-.458.837-.915 1.255-1.372zm-.998 19.282c-.61-.61-1.256-1.219-1.827-1.829-.532.572-1.065 1.105-1.56 1.639.533.609 1.142 1.257 1.712 1.867.571-.534 1.104-1.105 1.675-1.677zm6.468-2.553c-.57-.533-1.18-1.067-1.788-1.638-.571.648-1.18 1.295-1.75 1.905.646.572 1.255 1.143 1.864 1.677.57-.61 1.141-1.258 1.674-1.944zM60.95 157.54c.57.496 1.179 1.029 1.825 1.601.571-.648 1.18-1.296 1.75-1.906a592.279 592.279 0 0 0-1.864-1.638 43.912 43.912 0 0 0-1.712 1.943zm.31 8.651c.608.571 1.217 1.181 1.864 1.753.57-.61 1.179-1.258 1.75-1.906-.647-.571-1.294-1.181-1.903-1.753a86.164 86.164 0 0 1-1.712 1.906zm-.161-4.383a73.05 73.05 0 0 1 1.826 1.677c.57-.648 1.18-1.296 1.75-1.906-.647-.571-1.255-1.143-1.902-1.715a28 28 0 0 1-1.674 1.944zm-4.216 8.08a43.658 43.658 0 0 1-.913-1.372c-.266.457-.495.876-.685 1.219 0 .038 0 .076.038.114.228.534.495 1.106.8 1.715.266-.381.608-.8.988-1.295a.787.787 0 0 0-.228-.381zm-1.487-4.117a7.514 7.514 0 0 1-.229.534c.19.457.495.99.8 1.524.266-.457.608-.991.989-1.524-.419-.534-.8-1.029-1.104-1.525a7.45 7.45 0 0 0-.456.991zm14.84 8.537c.457.381.875.724 1.256 1.029.19-.153.418-.343.609-.534a9.27 9.27 0 0 0 .608-.648c.114-.19.267-.419.38-.609-.418-.381-.874-.763-1.369-1.22a33.502 33.502 0 0 1-1.484 1.982zm4.719-8.765c-.076-.153-.114-.343-.228-.496l-.457-.914c-.266.495-.532.991-.913 1.562.38.496.723.991 1.028 1.41a8.86 8.86 0 0 0 .57-1.562zm-17.732.419c.38-.572.837-1.143 1.294-1.753a30.68 30.68 0 0 1-1.142-1.22c-.114-.114-.19-.19-.266-.304-.38.609-.76 1.219-1.065 1.753.342.495.723.99 1.18 1.524zm-1.297-5.259c.342.381.723.801 1.141 1.296.38-.61.837-1.258 1.294-1.905a10.462 10.462 0 0 0-.685-.648c-.228-.229-.495-.458-.685-.648-.418.61-.76 1.257-1.065 1.905zm16.244-1.791c-.19.229-.38.458-.609.686.495.61.952 1.22 1.37 1.791.267-.343.533-.686.761-1.029-.418-.609-.799-1.219-1.255-1.791-.076.153-.19.229-.267.343zm.611-.685c-.038.038-.038.076-.076.114.38.533.761 1.067 1.142 1.639-.343-.572-.685-1.144-1.066-1.753zm-16.051.266c-.114-.076-.19-.19-.266-.266-.342.686-.609 1.41-.837 2.134l.114.114c.266-.648.609-1.334.99-1.982zm-1.26 2.286c-.039.191-.115.381-.153.572.076-.153.114-.343.19-.495 0 0 0-.039-.038-.077zm18.945 3.011c.152.304.304.647.419.914.076.191.114.343.19.496 0-.039 0-.077.038-.077-.038-.8-.114-1.562-.228-2.248-.115.267-.267.572-.419.915zm-19.547 2.286v.496c0-.077.038-.153.038-.229.038-.114 0-.191-.038-.267zm19.707 1.258c.19.267.343.533.457.8.076-.838.076-1.638.076-2.324v-.039c-.152.496-.304 1.029-.533 1.563zm-1.832-4.916c-.304.419-.647.839-.99 1.258.496.571.952 1.105 1.37 1.638a19.26 19.26 0 0 0 .952-1.562c-.305-.534-.685-1.067-1.104-1.639-.076.115-.152.191-.228.305zm.454-.61c.38.572.76 1.143 1.027 1.677.19-.381.342-.724.494-1.029-.038-.19-.076-.419-.152-.572-.228-.381-.456-.724-.647-1.067-.228.267-.456.61-.722.991zm-18.144 4.801c-.038.153-.076.267-.115.42 0-.039 0-.077-.038-.077.038.648.114 1.487.305 2.363.152-.343.342-.724.57-1.143a13.756 13.756 0 0 1-.722-1.563zm1.785-4.229a26.575 26.575 0 0 1-1.103-1.258 11.612 11.612 0 0 0-.647 1.677c0 .038 0 .076-.038.152.19.381.456.762.76 1.22.305-.572.648-1.182 1.028-1.791zm12.982-.801l1.636 1.753c.456-.572.875-1.105 1.293-1.6a27.228 27.228 0 0 0-1.446-1.792c-.494.496-.989 1.067-1.483 1.639zm-11.531-5.601c-.076-.038-.114-.115-.19-.153a8.695 8.695 0 0 0-1.446 1.906c.114.076.19.19.304.266.419-.647.875-1.333 1.332-2.019zm15.941 11.47a70.082 70.082 0 0 0-1.066-1.41c-.38.572-.8 1.181-1.218 1.791.495.496.951.991 1.332 1.448.342-.686.685-1.257.951-1.829zm-16.86-5.182c.456.495.95.991 1.483 1.524.495-.61.99-1.257 1.522-1.905a441.48 441.48 0 0 0-1.636-1.525 46.42 46.42 0 0 0-1.37 1.906zm-.108-3.964c.456.419.913.838 1.446 1.334.494-.648.989-1.334 1.521-1.982a44.912 44.912 0 0 0-1.636-1.372 37.075 37.075 0 0 0-1.331 2.02zm12.322-.953a36.43 36.43 0 0 1 1.636 1.868c.342-.343.647-.686.913-.991a66.606 66.606 0 0 0-1.522-1.906c-.342.305-.685.648-1.027 1.029zm2.898.458c-.457-.648-.913-1.296-1.446-1.944l-.19.191c.532.61 1.065 1.219 1.522 1.867.076-.038.076-.076.114-.114zm.378 7.888c-.418-.533-.912-1.067-1.407-1.638a53.452 53.452 0 0 1-1.484 1.791l.305.305c.456.457.875.914 1.293 1.333.495-.647.913-1.219 1.294-1.791zm-1.558 2.173l-1.636-1.639c-.532.61-1.103 1.258-1.674 1.906.609.572 1.218 1.105 1.788 1.639.533-.648 1.028-1.296 1.522-1.906zm1.708 1.752a47.034 47.034 0 0 0-1.407-1.448 54.25 54.25 0 0 1-1.484 1.905c.57.534 1.103.991 1.598 1.448.456-.609.913-1.257 1.293-1.905zm-1.596 2.401c-.495-.457-1.066-.952-1.636-1.486-.533.648-1.104 1.296-1.636 1.944.608.533 1.179 1.029 1.75 1.524.532-.648 1.027-1.334 1.522-1.982zm-12.401-4.039c.38-.458.8-.953 1.256-1.449.114-.114.19-.228.304-.343l-1.674-1.676a44.342 44.342 0 0 0-1.37 1.753c.419.571.951 1.143 1.484 1.715zm13.009 3.887c.494.458.913.839 1.331 1.22.38-.686.685-1.334.99-1.982a99.314 99.314 0 0 0-1.066-1.181c-.38.61-.799 1.295-1.255 1.943zm-13.318-3.506a28.531 28.531 0 0 1-1.445-1.715c-.38.534-.761 1.067-1.066 1.525.343.571.761 1.143 1.218 1.715.38-.458.799-.991 1.293-1.525zm9.556 8.384c.113.077.19.153.304.229a9.293 9.293 0 0 0 2.51-1.296c-.38-.305-.76-.609-1.14-.952-.571.685-1.104 1.371-1.675 2.019zm-10.852-6.136c-.38.458-.76.915-1.065 1.296.342.61.76 1.258 1.217 1.905.38-.419.837-.876 1.294-1.371a33.49 33.49 0 0 1-1.446-1.83z" fill="#F1C355"/><path d="M59.127 169.24c1.408 4.039.837 8.879-1.864 12.309-1.56 1.943-4.3 3.353-7.267 3.429-2.93.038-5.06-.648-6.81-2.324-2.55-2.401-3.88-5.717-3.767-9.337.114-3.506.533-6.669 2.131-8.917 1.484-2.134 3.995-3.392 7.495-3.544 6.849-.305 8.484 3.849 10.082 8.384z" fill="#E9A954"/><path d="M44.862 161.351a12.79 12.79 0 0 1 1.18-.458c.342-.114.684-.152.988-.19-.418-.572-.913-.877-1.255-1.067-1.636-.839-3.919-.229-5.783 1.41.875-.267 2.397-.572 4.033-.038.304.076.57.19.837.343zm2.43-.686c.304-.038.609-.076.913-.076.38-.038.76-.038 1.103-.038-.076-.61-.342-1.753-1.217-2.934-1.218-1.601-2.816-2.134-3.386-2.325a9.633 9.633 0 0 0 1.18 3.43c.456.838.988 1.448 1.407 1.943zm2.316-.152c.456 0 .989 0 1.598.076.723.076 1.331.229 1.864.381 1.103-.305 2.207-.61 3.31-.876-1.294-.801-2.435-.991-3.082-1.029-.608-.038-1.103 0-1.37 0a8.476 8.476 0 0 0-2.51.571c.076.305.114.572.19.877z" fill="#6DBE46"/><path d="M53.611 158.874c-.608-.038-1.331-.076-2.168 0-.875.114-1.636.305-2.207.495v-.305c.495-.571 1.37-1.334 2.55-1.981 1.901-.991 3.69-1.029 4.565-1.029-.913.952-1.827 1.867-2.74 2.82zm-3.503-1.067c.076-.495.152-1.105.152-1.753 0-1.143-.19-2.096-.38-2.82a8.567 8.567 0 0 0-1.104 1.334c-.532.877-.837 1.677-.95 2.287.19.19.418.495.646.838.266.419.457.838.533 1.181.152-.19.304-.381.532-.571.229-.229.38-.381.571-.496zm.378-2.82c.038.343.076.762.076 1.181 0 .534-.038.991-.076 1.41a8.527 8.527 0 0 1 1.217-.8 7.284 7.284 0 0 1 1.332-.571 14 14 0 0 1 3.044-2.82 14.101 14.101 0 0 1 4.49-1.982 10.44 10.44 0 0 0-5.251.343c-2.625.8-4.223 2.477-4.832 3.239z" fill="#6DBE46"/><path d="M50.413 154.568c.457-.419.99-.877 1.56-1.334a30.08 30.08 0 0 1 1.522-1.105c.495-.953 1.18-2.134 2.245-3.315a16.133 16.133 0 0 1 4.26-3.468c-.836.152-1.94.457-3.195.952-2.169.915-3.576 2.058-4.451 2.744-1.142.953-2.778 2.477-4.262 4.688.153.228.305.457.457.647a4.38 4.38 0 0 1 .685-.914 3.3 3.3 0 0 1 .685-.61c.114.114.19.305.304.496.19.495.19.952.19 1.219zm-6.124 4.497c.228 0 .494.038.799.114.342.077.608.191.837.305a12.801 12.801 0 0 1-1.028-2.515c-.076-.267-.152-.533-.19-.762a8.314 8.314 0 0 0-2.853-.305 8.21 8.21 0 0 0-3.006.838c.342-.114 1.75-.457 3.272.229a4.858 4.858 0 0 1 2.169 2.096zm.225-3.201c-.19-.038-.38-.077-.608-.115a30.025 30.025 0 0 1-.723-.114 11.45 11.45 0 0 0-1.104-.838c-.228-.153-.95-.61-2.13-1.029-.8-.305-2.093-.648-3.805-.762.647-.343 3.12-1.525 6.24-.801.228.038 3.31.801 5.288 3.506.076.076.114.153.152.191-.076.228-.114.457-.19.648a6.737 6.737 0 0 0-1.864-1.334 5.047 5.047 0 0 0-1.294-.419c0 .381 0 .724.038 1.067z" fill="#6DBE46"/><path d="M47.899 155.711c.152-.343.304-.648.456-.991-.608-1.067-1.636-2.591-3.348-3.925-3.348-2.668-7.076-2.897-8.446-2.935a9.097 9.097 0 0 1 3.386 2.325 9.142 9.142 0 0 1 1.256 1.677 8.965 8.965 0 0 1 3.233.952c1.827.877 2.93 2.173 3.463 2.897z" fill="#6DBE46"/><path d="M47.865 153.425l.76-.953a11.477 11.477 0 0 0-2.587-4.497c-.57-.609-1.521-1.6-3.157-2.324a7.679 7.679 0 0 0-2.74-.686 10.203 10.203 0 0 1 2.625 2.934 9.91 9.91 0 0 1 .761 1.601c.685.381 1.56.991 2.435 1.791.875.762 1.484 1.486 1.903 2.134zm.952-1.068c-.114-.381-.267-.8-.457-1.258a438.76 438.76 0 0 1-.342-.686 13.03 13.03 0 0 1 2.663-3.848c1.978-2.02 4.109-2.973 5.327-3.43a9.902 9.902 0 0 0-2.436 2.82c-.57.991-.913 1.905-1.103 2.629a16.15 16.15 0 0 0-1.56 1.372c-.875.839-1.56 1.639-2.092 2.401zm-1.87-3.734a39.089 39.089 0 0 1-.38-2.553c-.152-1.372-.152-2.401-.152-3.582 0-.991.038-2.249.152-3.697a101.15 101.15 0 0 1 1.598 3.887 71.087 71.087 0 0 1 1.56 4.497 64.93 64.93 0 0 0-.951 1.334c-.343.533-.647 1.067-.914 1.524a3.8 3.8 0 0 0-.456-.724 5.366 5.366 0 0 0-.457-.686zm2.321-3.659a45.363 45.363 0 0 1 1.826-2.972 41.314 41.314 0 0 1 2.169-3.011c-.685 2.211-1.408 4.459-2.093 6.669l-.647.648c-.19.229-.38.458-.57.648-.114-.343-.229-.648-.343-.991a5.107 5.107 0 0 0-.342-.991zm-6.508-2.667a6.91 6.91 0 0 1 2.092 1.029 7.598 7.598 0 0 1 1.37 1.296c0 .495 0 1.067.076 1.676.076.762.19 1.448.342 2.058a7.618 7.618 0 0 0-1.217-1.334 11.559 11.559 0 0 0-.875-.686c0-.457-.115-1.143-.38-1.867a6.417 6.417 0 0 0-1.409-2.172z" fill="#6DBE46"/><path d="M53.993 169.315c-.533.572-1.066 1.182-1.636 1.792a76.521 76.521 0 0 1 1.788 1.753c.532-.61 1.027-1.22 1.522-1.792-.457-.495-.951-1.029-1.446-1.562a.99.99 0 0 1-.228-.191zm-1.829-2.552l1.788 1.791c.533-.572 1.028-1.105 1.522-1.639-.532-.61-1.103-1.219-1.674-1.867-.533.533-1.065 1.105-1.636 1.715zm-8.795-4.155c-.114.077-.228.191-.342.267l.076.076c.114-.114.19-.228.266-.343zm8.603-.151a78.054 78.054 0 0 1 1.788 1.829l1.027-1.029a39.11 39.11 0 0 0-1.788-1.829l-1.027 1.029zm3.272.381a2.724 2.724 0 0 0-.342-.419 4.588 4.588 0 0 0-.457-.42c-.152-.114-.342-.266-.608-.381-.115-.038-.19-.114-.305-.152.533.533 1.028 1.029 1.484 1.562.114-.038.152-.114.228-.19zm-3.349 17.11c-.61-.533-1.256-1.105-1.903-1.677-.57.648-1.18 1.258-1.75 1.868.647.61 1.256 1.181 1.903 1.753.608-.648 1.179-1.296 1.75-1.944zm-.15-4.344c-.609-.572-1.255-1.144-1.902-1.753a77.638 77.638 0 0 0-1.75 1.905c.646.61 1.255 1.181 1.902 1.753.57-.648 1.18-1.296 1.75-1.905zm.376-.457c.57-.648 1.142-1.258 1.674-1.906-.57-.571-1.18-1.143-1.826-1.753-.57.61-1.142 1.258-1.75 1.906.646.609 1.293 1.181 1.902 1.753zm-4.832.609c-.609-.61-1.256-1.181-1.826-1.753-.533.61-1.066 1.219-1.56 1.791a71.318 71.318 0 0 0 1.712 1.791 73.103 73.103 0 0 1 1.674-1.829zm-2.016 2.172l-1.674-1.791c-.494.571-.951 1.105-1.331 1.562.456.61.989 1.22 1.521 1.829.419-.495.952-1.029 1.484-1.6zm-1.481 2.363c-.495.495-.913.953-1.332 1.372.229.343.495.648.723.991.343.266.685.533 1.028.762.418-.381.837-.8 1.255-1.22-.57-.647-1.141-1.295-1.674-1.905zm10.276 1.562c-.571-.495-1.18-.99-1.789-1.524a41.015 41.015 0 0 1-1.75 1.906c.647.571 1.256 1.067 1.865 1.6.608-.648 1.141-1.334 1.674-1.982zm-10.465-14.519c.533.496 1.104.991 1.675 1.563a75.988 75.988 0 0 1 1.674-1.944 75.742 75.742 0 0 1-1.789-1.6 39.267 39.267 0 0 0-1.56 1.981zm.107 4.192c.534.533 1.104 1.105 1.713 1.676a765.09 765.09 0 0 1 1.674-1.905 73.214 73.214 0 0 0-1.826-1.677c-.533.648-1.066 1.296-1.56 1.906zm3.092-8.88c-.494-.419-.95-.8-1.407-1.143-.305.114-.647.267-.951.419-.343.419-.685.877-.99 1.296.533.419 1.066.876 1.674 1.372.571-.648 1.104-1.334 1.674-1.944zm2.81 15.244c-.646-.572-1.293-1.182-1.902-1.753a77.834 77.834 0 0 1-1.712 1.791c.609.61 1.218 1.219 1.864 1.791.571-.572 1.142-1.181 1.75-1.829zm-4.907 5.792c.95.534 1.902.839 2.663 1.029.114-.114.228-.19.304-.305l-1.826-1.829c-.38.381-.76.762-1.141 1.105zm5.322-14.709c.647.571 1.255 1.181 1.902 1.791.57-.61 1.142-1.22 1.674-1.791a78.325 78.325 0 0 0-1.826-1.791c-.57.533-1.141 1.143-1.75 1.791zm.991-5.564c-.38.381-.76.762-1.141 1.181.647.572 1.255 1.181 1.902 1.791.571-.572 1.142-1.143 1.674-1.715l-1.826-1.829c-.228.19-.418.381-.609.572zm-1.518 1.563c-.57.609-1.179 1.257-1.75 1.905.61.572 1.256 1.143 1.903 1.715.57-.648 1.18-1.258 1.75-1.829-.647-.61-1.294-1.22-1.902-1.791zm-1.899-2.402c.609.534 1.256 1.067 1.864 1.677.571-.61 1.18-1.219 1.75-1.753a72.086 72.086 0 0 0-1.788-1.639h-.152c-.57.496-1.141 1.106-1.674 1.715zm3.956-.495c.343-.343.647-.648.99-.953-.838-.228-1.675-.343-2.36-.343.457.419.914.877 1.37 1.296zm-11.382 9.832c-.266-.419-.495-.8-.647-1.143-.114.914-.114 1.676-.114 2.172.038.152.114.305.152.495a9.79 9.79 0 0 1 .609-1.524zm18.079 4.65c-.076.114-.114.228-.19.381.38.419.723.8.989 1.143.076-.191.152-.343.19-.534.114-.533.19-1.029.267-1.524-.153-.267-.343-.572-.533-.915-.228.458-.457.953-.723 1.449zm-8.604-7.203a77.831 77.831 0 0 0-1.75 1.905c.647.572 1.256 1.181 1.903 1.753a81.249 81.249 0 0 0 1.75-1.905c-.609-.572-1.256-1.144-1.902-1.753zm.117 12.919a81.983 81.983 0 0 1-1.903-1.753c-.57.609-1.141 1.143-1.674 1.714l1.826 1.83c.61-.61 1.18-1.182 1.75-1.791zm-1.329-21.418c-.57.039-1.446.115-2.397.42.38.305.76.609 1.141.952l1.256-1.372zm-.956 19.284c-.609-.61-1.256-1.22-1.826-1.829-.533.571-1.066 1.105-1.56 1.638.532.61 1.141 1.258 1.712 1.868l1.674-1.677zm6.468-2.554c-.57-.534-1.18-1.067-1.788-1.639-.57.648-1.18 1.296-1.75 1.906.646.571 1.255 1.143 1.864 1.676a40.372 40.372 0 0 0 1.674-1.943zm-8.444-12.652c.571.495 1.18 1.029 1.827 1.6.57-.648 1.179-1.295 1.75-1.905-.647-.572-1.256-1.105-1.865-1.639-.57.61-1.141 1.258-1.712 1.944zm.299 8.651c.609.572 1.218 1.181 1.864 1.753.571-.61 1.18-1.257 1.75-1.905-.646-.572-1.293-1.182-1.902-1.753a86.089 86.089 0 0 1-1.712 1.905zm-.149-4.383a73.39 73.39 0 0 1 1.826 1.677c.57-.648 1.18-1.296 1.75-1.905-.647-.572-1.255-1.144-1.902-1.715-.533.648-1.142 1.296-1.674 1.943zm-4.227 8.079a42.522 42.522 0 0 1-.913-1.372c-.266.458-.495.877-.685 1.22 0 .038 0 .076.038.114.228.534.495 1.105.8 1.715.265-.381.608-.8.988-1.296a3.36 3.36 0 0 0-.228-.381zm-1.519-4.115c-.076.19-.152.381-.228.533.19.457.494.991.799 1.525.266-.458.608-.991.989-1.525-.419-.533-.8-1.029-1.103-1.524-.153.343-.305.686-.457.991zm14.872 8.535c.457.381.876.724 1.256 1.029.19-.152.419-.343.609-.533.228-.229.418-.419.608-.648.115-.191.267-.419.381-.61-.419-.381-.875-.762-1.37-1.219a33.248 33.248 0 0 1-1.483 1.981zm4.719-8.802c-.076-.152-.114-.343-.228-.495l-.457-.915c-.266.496-.532.991-.913 1.563.38.495.723.991 1.028 1.41.228-.534.456-1.067.57-1.563zm-17.721.456c.38-.571.837-1.143 1.294-1.753a31.317 31.317 0 0 1-1.142-1.219 1.906 1.906 0 0 1-.266-.305c-.38.61-.76 1.22-1.065 1.753.342.457.723.991 1.18 1.524zm-1.297-5.257c.343.381.723.8 1.142 1.296.38-.61.837-1.258 1.293-1.906a10.735 10.735 0 0 0-.685-.648c-.228-.228-.494-.457-.684-.648a13.39 13.39 0 0 0-1.066 1.906zm16.201-1.792c.038 0 .038 0 0 0a9.84 9.84 0 0 1-.608.686c.494.61.95 1.219 1.37 1.791.266-.343.532-.686.76-1.029-.418-.61-.799-1.219-1.255-1.791-.076.114-.152.229-.267.343zm.611-.686c-.038.038-.038.076-.076.114.38.534.761 1.068 1.142 1.639-.305-.571-.647-1.181-1.066-1.753zm-16.019.267c-.114-.076-.19-.191-.266-.267-.342.686-.609 1.41-.837 2.134l.114.115a16.05 16.05 0 0 1 .99-1.982zm-1.25 2.286c-.038.19-.114.381-.152.571.076-.152.114-.342.19-.495 0 0-.038-.038-.038-.076zm18.946 3.011c.152.305.304.648.419.915.076.19.114.343.19.495 0-.038 0-.076.038-.076-.038-.8-.114-1.562-.228-2.248-.152.266-.267.571-.419.914zm-19.558 2.287v.495c0-.076.038-.152.038-.229 0-.114 0-.19-.038-.266zm19.708 1.257c.19.266.342.533.456.8.076-.839.076-1.639.076-2.325v-.038a38.843 38.843 0 0 1-.532 1.563zm-1.822-4.916a28.49 28.49 0 0 1-.99 1.257c.495.572.952 1.105 1.37 1.639.38-.572.685-1.067.951-1.562-.304-.534-.684-1.068-1.103-1.639-.076.114-.152.19-.228.305zm.454-.61c.38.571.76 1.143 1.027 1.677.19-.382.343-.725.495-1.029-.038-.191-.076-.42-.152-.572-.229-.381-.457-.724-.647-1.067-.228.267-.457.61-.723.991zm-18.144 4.802c-.039.152-.077.267-.115.419 0-.038 0-.076-.038-.076.038.648.114 1.486.304 2.363.153-.343.343-.724.571-1.144a17.643 17.643 0 0 1-.723-1.562zm1.742-4.23a26.093 26.093 0 0 1-1.103-1.257 11.602 11.602 0 0 0-.647 1.676c0 .038 0 .077-.038.153.19.381.456.762.76 1.219a30.53 30.53 0 0 1 1.028-1.791zm12.982-.838c.57.609 1.103 1.181 1.636 1.753.456-.572.875-1.106 1.294-1.601a27.221 27.221 0 0 0-1.446-1.791 53.976 53.976 0 0 1-1.484 1.639zm-11.499-5.564c-.076-.038-.114-.114-.19-.152a8.666 8.666 0 0 0-1.446 1.905c.114.076.19.191.305.267.418-.648.837-1.334 1.331-2.02zm15.909 11.471c-.305-.42-.685-.915-1.066-1.41-.38.571-.799 1.181-1.217 1.791.495.495.951.991 1.332 1.448.38-.686.684-1.258.95-1.829zm-16.85-5.184c.457.496.951.991 1.484 1.525.495-.61.99-1.258 1.522-1.906-.571-.533-1.142-1.067-1.636-1.524a47.106 47.106 0 0 0-1.37 1.905zm-.085-3.962c.456.419.913.838 1.445 1.333.495-.648.99-1.333 1.522-1.981a43.917 43.917 0 0 0-1.636-1.372 37.075 37.075 0 0 0-1.331 2.02zm12.333-.991c.57.609 1.103 1.257 1.636 1.867.342-.343.646-.686.913-.991a66.747 66.747 0 0 0-1.522-1.905l-1.027 1.029zm2.886.495c-.457-.647-.913-1.295-1.446-1.943l-.19.19c.532.61 1.065 1.22 1.521 1.868l.115-.115zm.379 7.888c-.418-.534-.913-1.067-1.408-1.639a51.385 51.385 0 0 1-1.483 1.791l.304.305c.457.457.875.915 1.294 1.334a34.26 34.26 0 0 0 1.293-1.791zm-1.591 2.173l-1.636-1.639c-.532.61-1.103 1.258-1.674 1.905.61.572 1.218 1.106 1.788 1.639a56.412 56.412 0 0 0 1.522-1.905zm1.751 1.753c-.418-.458-.875-.915-1.407-1.449-.457.61-.952 1.258-1.484 1.906.57.533 1.103.991 1.598 1.448.456-.61.875-1.258 1.293-1.905zm-1.597 2.4c-.494-.457-1.065-.953-1.635-1.486-.533.648-1.104 1.295-1.636 1.943.608.534 1.18 1.029 1.75 1.525.532-.648 1.027-1.334 1.522-1.982zm-12.443-4.039c.38-.457.8-.953 1.256-1.448.114-.114.19-.229.304-.343l-1.674-1.677a47.01 47.01 0 0 0-1.37 1.753c.457.572.952 1.143 1.484 1.715zm13.051 3.887c.495.457.913.838 1.332 1.219.38-.686.685-1.333.989-1.981a108.75 108.75 0 0 0-1.065-1.182c-.38.61-.8 1.296-1.256 1.944zm-13.359-3.506a28.83 28.83 0 0 1-1.446-1.715c-.38.534-.761 1.067-1.066 1.524a15.76 15.76 0 0 0 1.218 1.715c.419-.457.837-.991 1.294-1.524zm9.586 8.384c.115.076.19.152.305.229a9.294 9.294 0 0 0 2.51-1.296c-.38-.305-.76-.61-1.14-.953-.571.686-1.104 1.372-1.675 2.02zm-10.84-6.136c-.38.457-.76.915-1.065 1.296.342.609.76 1.257 1.217 1.905.38-.419.837-.876 1.294-1.372-.495-.61-.99-1.219-1.446-1.829z" fill="#F1C355"/><path d="M136.478 159.37l-3.691-9.451a1.39 1.39 0 0 1 .647-1.753c.761-.419 1.788-.915 2.816-1.182 1.103-.304 2.13-.038 2.815.229.457.191.799.61.875 1.143l1.598 12.081-5.06-1.067z" fill="#F48E48"/><path d="M141.071 166.991l3.5-17.263a1.441 1.441 0 0 1 1.484-1.143c.837.038 2.017.191 3.006.534 1.103.343 1.826 1.143 2.245 1.714.304.42.342.953.114 1.41l-7.952 17.34-2.397-2.592zm15.454 7.126l-1.142-14.748c-.038-.61.343-1.143.914-1.257.684-.153 1.674-.305 2.549-.267.951.038 1.712.495 2.206.876.343.267.495.686.419 1.105l-2.435 15.815-2.511-1.524zm2.853 6.745l7.572-17.872c.304-.725 1.103-1.106 1.826-.877.913.267 2.13.648 3.12 1.258a4.888 4.888 0 0 1 2.016 2.324c.228.496.152 1.105-.19 1.563l-12.403 16.958-1.941-3.354z" fill="#E38739"/><path d="M147.505 172.63l1.978-17.492c.076-.686.647-1.219 1.37-1.257.837 0 2.016 0 3.044.267 1.103.266 1.902.952 2.359 1.486.342.381.418.914.266 1.41l-6.392 17.987-2.625-2.401zm10.195 3.507l4.262-17.111c.152-.685.837-1.143 1.522-1.067.837.077 1.978.267 3.005.648 1.065.419 1.75 1.22 2.169 1.791.266.42.304.953.076 1.41l-8.713 16.959-2.321-2.63z" fill="#F48E48"/><path d="M174.592 186.655c2.984 0 5.403-2.15 5.403-4.802 0-2.651-2.419-4.801-5.403-4.801-2.984 0-5.403 2.15-5.403 4.801 0 2.652 2.419 4.802 5.403 4.802z" fill="#FFDE4F"/><path d="M159.889 171.359c.924-2.485-.483-5.303-3.141-6.294-2.659-.991-5.563.22-6.486 2.705-.924 2.486.483 5.304 3.142 6.295 2.658.991 5.562-.22 6.485-2.706z" fill="#977368"/><path d="M157.856 161.923s-1.598.419-2.016 1.562c-.419 1.144.19 2.439.19 2.439s1.522-.686 1.978-1.905c.419-1.22-.152-2.096-.152-2.096z" fill="#F2D86D"/><path d="M160.518 165.505s-1.179-1.258-2.435-1.067c-1.256.19-2.093 1.41-2.093 1.41s1.37 1.067 2.702.838c1.331-.191 1.826-1.181 1.826-1.181z" fill="#F2D86D"/><path d="M156.102 165.962s-.152-1.715-1.255-2.324c-1.104-.61-2.512-.191-2.512-.191s.419 1.677 1.598 2.325c1.142.648 2.169.19 2.169.19z" fill="#F2D86D"/><path d="M147.207 173.333c.777-2.336-.613-4.904-3.105-5.736-2.492-.832-5.142.388-5.919 2.724-.777 2.336.612 4.904 3.104 5.736 2.492.832 5.142-.388 5.92-2.724z" fill="#977368"/><path d="M145.035 164.704s-1.446.457-1.826 1.524c-.342 1.067.266 2.249.266 2.249s1.37-.686 1.75-1.829c.381-1.182-.19-1.944-.19-1.944z" fill="#F2D86D"/><path d="M147.618 167.906s-1.141-1.143-2.283-.915c-1.141.229-1.902 1.372-1.902 1.372s1.294.915 2.511.686c1.256-.19 1.674-1.143 1.674-1.143z" fill="#F2D86D"/><path d="M143.552 168.439s-.191-1.563-1.218-2.134c-1.027-.572-2.321-.076-2.321-.076s.457 1.524 1.56 2.095c1.065.61 1.979.115 1.979.115z" fill="#F2D86D"/><path d="M165.32 175.927c.458-2.931-1.712-5.707-4.847-6.198-3.135-.491-6.047 1.487-6.505 4.419-.459 2.932 1.711 5.707 4.846 6.199 3.135.491 6.048-1.488 6.506-4.42z" fill="#4D3A2C"/><path d="M160.979 166.037s-1.674.838-1.864 2.172c-.229 1.372.761 2.63.761 2.63s1.521-1.067 1.75-2.515c.19-1.487-.647-2.287-.647-2.287z" fill="#F2D86D"/><path d="M164.708 169.353s-1.56-1.105-2.892-.647c-1.331.495-1.978 2.019-1.978 2.019s1.712.839 3.158.343c1.408-.495 1.712-1.715 1.712-1.715z" fill="#F2D86D"/><path d="M159.95 170.84s-.571-1.868-1.903-2.287c-1.331-.419-2.815.381-2.815.381s.837 1.753 2.283 2.21c1.445.458 2.435-.304 2.435-.304z" fill="#F2D86D"/><path d="M154.842 167.722c.458-2.932-1.712-5.707-4.847-6.198-3.135-.491-6.047 1.487-6.505 4.419-.459 2.932 1.711 5.707 4.846 6.199 3.135.491 6.048-1.488 6.506-4.42z" fill="#4D3A2C"/><path d="M150.509 157.807s-1.674.838-1.864 2.172c-.19 1.334.761 2.629.761 2.629s1.522-1.067 1.75-2.515c.228-1.448-.647-2.286-.647-2.286z" fill="#F2D86D"/><path d="M154.277 161.16s-1.56-1.105-2.891-.648c-1.332.496-1.979 2.02-1.979 2.02s1.712.838 3.158.343c1.37-.534 1.712-1.715 1.712-1.715z" fill="#F2D86D"/><path d="M149.487 162.608s-.571-1.867-1.903-2.286c-1.331-.42-2.815.381-2.815.381s.837 1.753 2.283 2.21c1.446.457 2.435-.305 2.435-.305z" fill="#F2D86D"/><path d="M146.958 186.163c2.997-1.044 4.638-4.162 3.664-6.965-.973-2.803-4.191-4.229-7.188-3.185s-4.637 4.163-3.664 6.965c.973 2.803 4.192 4.229 7.188 3.185z" fill="#4D3A2C"/><path d="M142.141 172.479s-1.065 1.524-.647 2.82c.457 1.295 1.903 1.981 1.903 1.981s.837-1.677.342-3.048c-.495-1.372-1.598-1.753-1.598-1.753z" fill="#F2D86D"/><path d="M147.006 173.66s-1.902-.228-2.853.801c-.951 1.067-.799 2.705-.799 2.705s1.94-.076 2.929-1.181c1.028-1.105.723-2.325.723-2.325z" fill="#F2D86D"/><path d="M143.507 177.204s-1.37-1.372-2.739-1.105c-1.408.267-2.283 1.639-2.283 1.639s1.56 1.143 3.043.876c1.446-.267 1.979-1.41 1.979-1.41z" fill="#F2D86D"/><path d="M120.648 201.822c4.392 0 7.952-3.566 7.952-7.965s-3.56-7.964-7.952-7.964c-4.391 0-7.951 3.565-7.951 7.964 0 4.399 3.56 7.965 7.951 7.965z" fill="#B6695B"/><path d="M123.997 147.937c-1.37-.153-2.055-1.029-3.463-.534-1.407.495-3.956 3.506-3.081 8.27.875 4.763 2.244 5.716 3.5 6.059 1.255.381 6.544.533 7.99 0 1.445-.534 3.5-1.715 3.804-4.726.305-3.048-.494-6.44-2.853-8.383-2.321-1.982-5.327-.648-5.897-.686z" fill="#F9DEBA"/><path d="M134.569 157.083c1.141-.19 2.663-1.105 3.615-.8.951.305 5.212 3.163 4.489 7.05-.723 3.887-2.815 7.965-4.033 8.346-1.179.381-8.332-.419-9.816-.953s-4.68-9.68-3.006-12.195c1.674-2.515 5.898-2.782 6.887-2.286.989.495 1.331.914 1.864.838z" fill="#FCCAA5"/><path d="M123.045 160.208c-1.369-.152-2.054-1.029-3.462-.533-1.407.495-3.957 3.506-3.082 8.269.837 4.726 2.245 5.716 3.501 6.059 1.255.381 6.544.534 7.99 0 1.445-.533 3.5-1.715 3.804-4.725.305-3.049-.494-6.44-2.853-8.384-2.321-1.944-5.327-.61-5.898-.686zm-.502 19.512c-1.37-.153-2.054-1.029-3.462-.534-1.408.496-3.957 3.506-3.082 8.27.875 4.763 2.245 5.716 3.5 6.059 1.256.381 6.544.534 7.99 0 1.446-.533 3.5-1.715 3.805-4.725.304-3.049-.495-6.441-2.854-8.384-2.359-1.944-5.364-.61-5.897-.686z" fill="#F6C38F"/><path d="M119.735 170.077c1.142-.19 2.663-1.105 3.615-.8.951.305 5.212 3.163 4.489 7.05-.723 3.887-2.815 7.965-4.033 8.346-1.217.381-8.332-.419-9.816-.953-1.484-.533-4.68-9.679-3.006-12.195 1.674-2.515 5.898-2.781 6.887-2.286 1.027.533 1.331.915 1.864.838z" fill="#FCCAA5"/><path d="M110.562 162.798c4.812 0 8.712-3.907 8.712-8.726 0-4.82-3.9-8.727-8.712-8.727-4.812 0-8.713 3.907-8.713 8.727 0 4.819 3.901 8.726 8.713 8.726z" fill="#E9C117"/><path d="M100.787 169.278a6.092 6.092 0 0 0 6.087-6.098 6.092 6.092 0 0 0-6.087-6.097 6.093 6.093 0 0 0-6.088 6.097 6.093 6.093 0 0 0 6.088 6.098z" fill="#FFEB9E"/><path d="M104.972 184.025c4.812 0 8.713-3.907 8.713-8.727s-3.901-8.727-8.713-8.727c-4.811 0-8.712 3.907-8.712 8.727s3.901 8.727 8.712 8.727z" fill="#FEF7D2"/><path d="M103.626 193.044c2.896-4.084 2.563-9.302-.743-11.654-3.306-2.352-8.334-.949-11.23 3.135-2.897 4.084-2.564 9.302.742 11.654 3.307 2.352 8.335.949 11.231-3.135zm57.59 2.197c2.896-4.084 2.563-9.302-.743-11.654-3.307-2.352-8.335-.948-11.231 3.136-2.896 4.083-2.563 9.301.743 11.653 3.307 2.353 8.335.949 11.231-3.135z" fill="#DFD774"/><path d="M87.007 178.538c3.236 0 5.86-3.14 5.86-7.012 0-3.873-2.624-7.012-5.86-7.012s-5.86 3.139-5.86 7.012c0 3.872 2.624 7.012 5.86 7.012z" fill="#B48748"/><path d="M71.949 185.131c3.236 0 5.86-2.884 5.86-6.441s-2.624-6.44-5.86-6.44-5.86 2.883-5.86 6.44c0 3.557 2.624 6.441 5.86 6.441z" fill="#C1915C"/><path d="M77.403 196.571c2.718-2.723 1.646-8.212-2.395-12.26s-9.522-5.122-12.24-2.398c-2.72 2.723-1.648 8.212 2.394 12.26 4.041 4.048 9.521 5.122 12.24 2.398z" fill="#C9C051"/><path d="M63.542 185.283c2.837 0 5.136-2.525 5.136-5.64 0-3.115-2.3-5.64-5.136-5.64-2.837 0-5.136 2.525-5.136 5.64 0 3.115 2.3 5.64 5.136 5.64zm22.861-7.611c1.18-3.378-.358-6.989-3.432-8.065-3.075-1.077-6.523.788-7.701 4.166-1.18 3.378.358 6.988 3.432 8.065 3.075 1.076 6.523-.789 7.701-4.166z" fill="#EAC28A"/><path d="M88.067 191.348c1.963-1.684 1.527-5.421-.974-8.346-2.501-2.926-6.12-3.933-8.083-2.249-1.963 1.684-1.528 5.42.974 8.346 2.5 2.926 6.12 3.933 8.083 2.249zm1.117-21.898c2.147-1.016 2.666-4.431 1.158-7.629-1.508-3.197-4.47-4.965-6.617-3.949-2.147 1.015-2.666 4.431-1.158 7.628s4.47 4.965 6.617 3.95z" fill="#D4C332"/><path d="M99.489 173.725c2.896-4.084 2.744-9.173-.34-11.367-3.084-2.194-7.931-.662-10.827 3.422-2.896 4.084-2.744 9.173.34 11.367 3.083 2.194 7.93.662 10.827-3.422z" fill="#DFD774"/><path d="M99.005 183.087c.63-5.394-2.412-10.182-6.794-10.696-4.383-.514-8.447 3.441-9.077 8.834-.63 5.393 2.411 10.182 6.794 10.696 4.382.514 8.446-3.441 9.077-8.834zm74.444 4.474c.631-5.393-2.411-10.182-6.793-10.696-4.383-.514-8.447 3.442-9.077 8.835-.631 5.393 2.411 10.182 6.793 10.696 4.383.514 8.447-3.442 9.077-8.835z" fill="#C9C051"/><path d="M61.168 193.162c2.921-2.505 2.275-8.061-1.442-12.41-3.717-4.348-9.098-5.843-12.02-3.338-2.92 2.505-2.275 8.061 1.443 12.41 3.717 4.348 9.098 5.843 12.02 3.338z" fill="#DFD774"/><path d="M58.035 201.236c2.719-2.724 1.647-8.213-2.395-12.261-4.04-4.048-9.521-5.122-12.24-2.398-2.72 2.723-1.647 8.212 2.394 12.26s9.522 5.122 12.24 2.399z" fill="#C9C051"/><path d="M101.678 200.518c3.616-4.046 3.882-9.715.595-12.663-3.287-2.948-8.884-2.058-12.5 1.987-3.616 4.046-3.882 9.715-.595 12.663 3.288 2.948 8.884 2.058 12.5-1.987zm-30.005 1.268c2.921-2.505 2.276-8.061-1.442-12.41-3.717-4.348-9.098-5.843-12.02-3.338-2.92 2.505-2.274 8.061 1.443 12.41 3.717 4.348 9.098 5.843 12.02 3.338z" fill="#D4C332"/><path d="M86.83 198.631c2.896-4.084 2.563-9.302-.743-11.654-3.307-2.352-8.335-.949-11.23 3.135-2.897 4.084-2.564 9.302.742 11.654 3.306 2.352 8.334.949 11.23-3.135zm-14.808-22.44c2.565-1.484 3.163-5.258 1.335-8.429-1.828-3.172-5.39-4.54-7.955-3.056-2.566 1.484-3.164 5.258-1.336 8.429 1.828 3.171 5.39 4.539 7.956 3.056z" fill="#DFD774"/><path d="M73.616 190.467c3.236 0 5.86-2.884 5.86-6.441s-2.624-6.44-5.86-6.44-5.86 2.883-5.86 6.44c0 3.557 2.624 6.441 5.86 6.441zm5.525-17.836c3.236 0 5.86-2.884 5.86-6.441s-2.624-6.44-5.86-6.44-5.859 2.883-5.859 6.44c0 3.557 2.624 6.441 5.86 6.441z" fill="#C1915C"/><path d="M70.838 179.643c3.236 0 5.859-3.139 5.859-7.012 0-3.872-2.623-7.012-5.86-7.012-3.235 0-5.859 3.14-5.859 7.012 0 3.873 2.624 7.012 5.86 7.012z" fill="#B48748"/><path d="M113.64 172.631c4.476 0 8.104-3.634 8.104-8.117 0-4.483-3.628-8.118-8.104-8.118-4.476 0-8.104 3.635-8.104 8.118 0 4.483 3.628 8.117 8.104 8.117zm-1.668 25.456c4.812 0 8.713-3.907 8.713-8.726 0-4.82-3.901-8.727-8.713-8.727-4.811 0-8.712 3.907-8.712 8.727 0 4.819 3.901 8.726 8.712 8.726zm25.682 1.868c4.812 0 8.713-3.907 8.713-8.727s-3.901-8.727-8.713-8.727c-4.812 0-8.713 3.907-8.713 8.727s3.901 8.727 8.713 8.727z" fill="#FBECC2"/><path d="M133.006 170.192c-1.37-.152-2.055-1.028-3.462-.533-1.408.495-3.957 3.506-3.082 8.269.875 4.764 2.245 5.717 3.5 6.06 1.256.343 6.544.533 7.99 0 1.446-.534 3.5-1.715 3.805-4.726.304-3.01-.495-6.44-2.854-8.384-2.359-1.943-5.326-.647-5.897-.686z" fill="#F9DEBA"/><path d="M144.043 198.43c4.391 0 7.951-3.566 7.951-7.964 0-4.399-3.56-7.965-7.951-7.965-4.392 0-7.952 3.566-7.952 7.965 0 4.398 3.56 7.964 7.952 7.964z" fill="#B6695B"/><path d="M132.821 199.193c4.391 0 7.952-3.566 7.952-7.965 0-4.398-3.561-7.964-7.952-7.964-4.392 0-7.952 3.566-7.952 7.964 0 4.399 3.56 7.965 7.952 7.965z" fill="#905E4D"/><path d="M162.986 197.364c3.173 0 5.745-2.406 5.745-5.374 0-2.967-2.572-5.373-5.745-5.373s-5.745 2.406-5.745 5.373c0 2.968 2.572 5.374 5.745 5.374z" fill="#865F50"/><path d="M162.909 182.845s-1.522 1.067-1.522 2.439 1.18 2.477 1.18 2.477 1.332-1.296 1.332-2.782-.99-2.134-.99-2.134z" fill="#F2D86D"/><path d="M167.135 185.588s-1.712-.877-2.968-.191c-1.256.686-1.636 2.287-1.636 2.287s1.826.571 3.158-.153c1.331-.724 1.446-1.943 1.446-1.943z" fill="#F2D86D"/><path d="M162.646 187.76s-.837-1.753-2.244-1.982c-1.408-.228-2.702.801-2.702.801s1.104 1.6 2.588 1.829c1.521.267 2.358-.648 2.358-.648z" fill="#F2D86D"/><path d="M149.445 181.739c3.173 0 5.745-2.406 5.745-5.374 0-2.967-2.572-5.373-5.745-5.373s-5.745 2.406-5.745 5.373c0 2.968 2.572 5.374 5.745 5.374z" fill="#865F50"/><path d="M149.412 167.22s-1.522 1.067-1.522 2.439 1.179 2.477 1.179 2.477 1.332-1.296 1.332-2.782c-.038-1.448-.989-2.134-.989-2.134z" fill="#F2D86D"/><path d="M153.594 169.963s-1.712-.877-2.968-.191c-1.255.686-1.636 2.287-1.636 2.287s1.827.571 3.158-.153c1.332-.724 1.446-1.943 1.446-1.943z" fill="#F2D86D"/><path d="M149.106 172.135s-.837-1.753-2.245-1.982c-1.408-.228-2.701.801-2.701.801s1.103 1.6 2.587 1.829c1.522.267 2.359-.648 2.359-.648z" fill="#F2D86D"/><path d="M155.195 189.589c3.173 0 5.745-2.405 5.745-5.373 0-2.968-2.572-5.373-5.745-5.373s-5.745 2.405-5.745 5.373c0 2.968 2.572 5.373 5.745 5.373z" fill="#977368"/><path d="M155.15 175.069s-1.521 1.067-1.521 2.439 1.179 2.477 1.179 2.477 1.332-1.295 1.332-2.782c-.038-1.448-.99-2.134-.99-2.134z" fill="#F2D86D"/><path d="M159.376 177.813s-1.712-.876-2.968-.19c-1.255.686-1.636 2.286-1.636 2.286s1.826.572 3.158-.152c1.294-.724 1.446-1.944 1.446-1.944z" fill="#F2D86D"/><path d="M154.888 179.986s-.837-1.753-2.245-1.982c-1.408-.229-2.701.8-2.701.8s1.103 1.601 2.587 1.829c1.484.267 2.359-.647 2.359-.647z" fill="#F2D86D"/><path d="M69.553 89.669c.609-.267 1.217-1.41 1.18-2.706 0-.152.113-.229.266-.19l1.065.304c.114.038.19.153.114.305-.304.61-1.027 2.325-.647 3.544l-1.027-.305-.951-.952z" fill="#DBD143"/><path d="M71.447 90.545c-.152-1.181.456-2.63.723-3.201.038-.114 0-.267-.115-.305l-.266-.076c-.799 1.715-.837 3.315-.837 3.315l.495.267z" fill="#C4B52B"/><path d="M70.002 90.088c.19-.19.99-1.105 1.218-3.239l-.19-.038c-.114-.038-.267.076-.267.19.038 1.296-.57 2.44-1.179 2.706l.418.382z" fill="#DBD143"/><path d="M71.487 91.46c-2.663 8.575-12.289 12.081-19.213 8.918a1.528 1.528 0 0 1-.837-1.144c-.114-.876.57-1.638 1.445-1.676 4.947-.039 12.708-3.278 16.132-7.47.495-.61 1.446-.686 2.055-.152.418.381.57.953.418 1.524z" fill="#FFD600"/><path d="M69.012 90.088c-3.424 4.154-11.185 7.393-16.131 7.47a1.46 1.46 0 0 0-1.294.8c5.63 1.41 15.066-2.325 19.023-8.651-.532-.267-1.18-.114-1.598.381z" fill="#FFE894"/><path d="M69.7 89.63c-.076.04-.152.04-.19.077.038 0 .114-.038.19-.076z" fill="#FFD600"/><path d="M71.264 90.927c-3.31 7.012-12.897 10.594-19.289 8.65a.967.967 0 0 1-.495-.342c.076.495.38.914.837 1.105 6.887 3.201 16.55-.305 19.214-8.918.114-.38.076-.8-.114-1.143-.038.229-.038.42-.153.648z" fill="#E9C117"/><path d="M51.934 98.816c-.077.343-.153.647-.381.61-.228-.039-.38-.382-.304-.725.076-.343.304-.61.57-.571.19.038.19.343.114.686z" fill="#966D29"/><path d="M71.07 90.317c.533-.458.875-1.83.457-3.202-.038-.152.076-.266.228-.266h1.18c.152 0 .228.114.228.266-.114.724-.38 2.744.342 3.887l-1.141-.038-1.294-.647z" fill="#DBD143"/><path d="M73.273 90.66c-.495-1.182-.267-2.897-.152-3.545.038-.152-.077-.266-.229-.266h-.304c-.343 2.02.076 3.696.076 3.696l.609.114z" fill="#C4B52B"/><path d="M71.641 90.621c.152-.266.723-1.448.342-3.772h-.228c-.152 0-.266.152-.228.266.418 1.372.114 2.706-.457 3.202l.571.304z" fill="#DBD143"/><path d="M73.589 91.613c-.267 9.755-9.322 16.234-17.464 14.938-.532-.076-.989-.457-1.217-.953-.38-.876.114-1.905 1.027-2.172 5.136-1.486 12.289-7.164 14.648-12.537.342-.8 1.293-1.144 2.093-.763.57.305.913.877.913 1.487z" fill="#FFD600"/><path d="M70.615 90.927c-2.36 5.335-9.512 11.013-14.648 12.537-.609.191-.99.648-1.142 1.22 6.316-.191 15.067-6.86 17.35-14.634a1.413 1.413 0 0 0-1.56.877z" fill="#FFE894"/><path d="M71.186 90.24c-.076.038-.114.077-.19.153.076-.038.114-.115.19-.153z" fill="#FFD600"/><path d="M73.205 91.118c-1.407 8.307-10.386 14.862-17.653 14.709-.228 0-.457-.076-.609-.19.228.495.647.838 1.18.915 8.141 1.295 17.196-5.183 17.463-14.939 0-.457-.152-.876-.457-1.181.076.228.114.457.076.686z" fill="#E9C117"/><path d="M55.323 105.065c.038.381.038.724-.229.724-.266.038-.494-.267-.532-.648-.038-.381.152-.724.418-.762.229-.038.305.305.343.686z" fill="#966D29"/><path d="M72.746 90.774c.418-.61.342-2.058-.457-3.278-.076-.114 0-.304.114-.343l1.18-.343c.152-.038.266.039.304.191.076.724.38 2.82 1.446 3.735l-1.142.304-1.445-.266z" fill="#DBD143"/><path d="M75.07 90.469c-.837-.99-1.103-2.782-1.179-3.468 0-.152-.152-.229-.304-.19l-.305.076c.228 2.096 1.142 3.62 1.142 3.62l.646-.038z" fill="#C4B52B"/><path d="M73.392 90.889c.076-.305.304-1.639-.723-3.81l-.228.075c-.153.038-.229.229-.153.343.8 1.22.876 2.63.457 3.278l.647.114z" fill="#DBD143"/><path d="M75.588 91.306c2.473 9.718-4.603 18.635-13.011 19.664a1.522 1.522 0 0 1-1.446-.609 1.669 1.669 0 0 1 .418-2.439c4.642-2.935 10.12-10.556 10.92-16.501a1.572 1.572 0 0 1 1.826-1.334c.647.152 1.141.61 1.293 1.22z" fill="#FFD600"/><path d="M72.471 91.459c-.837 5.945-6.277 13.566-10.919 16.501a1.631 1.631 0 0 0-.76 1.486c6.163-1.944 12.935-11.013 13.011-19.321-.685.114-1.255.648-1.332 1.334z" fill="#FFE894"/><path d="M72.858 90.66c-.038.076-.115.114-.153.19.038-.076.076-.153.153-.19z" fill="#FFD600"/><path d="M75.105 90.926c.95 8.575-6.05 17.568-13.279 19.474-.228.076-.456.038-.684 0a1.55 1.55 0 0 0 1.407.571c8.409-1.029 15.485-9.946 13.012-19.664-.114-.457-.418-.8-.799-1.029.19.19.305.381.343.648z" fill="#E9C117"/><path d="M61.364 109.713c.153.381.229.686-.038.801-.266.114-.57-.115-.723-.496-.152-.381-.038-.762.19-.838.267-.115.42.19.571.533z" fill="#966D29"/><path d="M73.316 85.248l-2.435.267c-.229.038-.419.228-.419.419l-.076 1.181c0 .267.228.496.495.496l2.777-.153a.45.45 0 0 0 .418-.571l-.266-1.296c0-.229-.228-.381-.494-.343z" fill="#DBD143"/><path d="M71.223 87.192l.076-1.372a.42.42 0 0 1 .228-.381l-.646.076c-.229.038-.419.228-.419.419l-.076 1.181c0 .267.228.496.495.496l.494-.038a.582.582 0 0 1-.152-.381z" fill="#DBD143"/><path d="M73.316 85.248l-.419.038a.346.346 0 0 1 .115.267l.304 1.486a.564.564 0 0 1-.152.495l.532-.038a.451.451 0 0 0 .419-.571l-.266-1.296c-.038-.267-.267-.42-.533-.381z" fill="#C4B52B"/><path d="M75.822 89.707c-.608-.267-1.217-1.41-1.18-2.706 0-.152-.113-.229-.265-.19l-1.066.304c-.114.038-.19.153-.114.305.304.61 1.027 2.325.647 3.544l1.027-.305.951-.952z" fill="#DBD143"/><path d="M73.919 90.546c.152-1.181-.457-2.63-.723-3.201-.038-.114 0-.267.114-.305l.266-.076c.8 1.715.837 3.315.837 3.315l-.494.267z" fill="#C4B52B"/><path d="M75.365 90.088c-.19-.19-.989-1.105-1.217-3.239l.19-.038c.114-.038.266.076.266.19-.038 1.296.571 2.44 1.18 2.706l-.419.382z" fill="#DBD143"/><path d="M73.89 91.46c2.663 8.575 12.289 12.081 19.213 8.918.457-.229.761-.648.837-1.144.114-.876-.57-1.638-1.446-1.676-4.946-.039-12.707-3.278-16.131-7.47-.495-.61-1.446-.686-2.055-.152a1.52 1.52 0 0 0-.418 1.524z" fill="#FFD600"/><path d="M76.366 90.126c3.424 4.154 11.186 7.393 16.132 7.47.57 0 1.065.342 1.293.8-5.63 1.41-15.066-2.325-19.023-8.65.533-.268 1.18-.115 1.598.38z" fill="#FFE894"/><path d="M75.676 89.668c.077.038.153.038.191.076a.292.292 0 0 0-.19-.076z" fill="#FFD600"/><path d="M74.118 90.925c3.31 7.012 12.898 10.594 19.29 8.65a.966.966 0 0 0 .495-.342c-.076.495-.38.914-.837 1.105-6.887 3.201-16.55-.305-19.214-8.917-.114-.382-.076-.8.114-1.144.038.229.038.458.153.648z" fill="#E9C117"/><path d="M93.451 98.853c.076.343.152.648.38.61.229-.039.381-.382.305-.725-.076-.343-.304-.61-.57-.571-.19.038-.19.305-.115.686z" fill="#966D29"/><path d="M74.307 90.355c-.533-.458-.876-1.83-.457-3.202.038-.152-.076-.266-.228-.266h-1.18c-.152 0-.228.114-.228.266.114.724.38 2.744-.342 3.887l1.141-.038 1.294-.647z" fill="#DBD143"/><path d="M72.096 90.66c.494-1.182.266-2.897.152-3.545-.038-.152.076-.266.228-.266h.305c.342 2.02-.077 3.696-.077 3.696l-.608.114z" fill="#C4B52B"/><path d="M73.739 90.621c-.153-.266-.723-1.448-.343-3.772h.228c.153 0 .267.152.229.266-.419 1.372-.114 2.706.456 3.202l-.57.304z" fill="#DBD143"/><path d="M71.797 91.65c.266 9.756 9.321 16.235 17.463 14.939.533-.076.99-.457 1.218-.952.38-.877-.115-1.906-1.028-2.173-5.136-1.486-12.289-7.164-14.648-12.537-.342-.8-1.293-1.144-2.092-.763-.57.267-.913.839-.913 1.487z" fill="#FFD600"/><path d="M74.767 90.926c2.36 5.335 9.512 11.013 14.648 12.538.609.19.99.648 1.142 1.219-6.316-.19-15.067-6.86-17.35-14.633a1.508 1.508 0 0 1 1.56.876z" fill="#FFE894"/><path d="M74.19 90.278a.673.673 0 0 1 .192.153c-.077-.076-.115-.114-.191-.153z" fill="#FFD600"/><path d="M72.177 91.155c1.408 8.307 10.387 14.862 17.654 14.71.228 0 .456-.077.608-.191-.228.495-.646.838-1.179.915-8.142 1.295-17.197-5.183-17.463-14.939 0-.457.152-.876.456-1.181a1.32 1.32 0 0 0-.076.686z" fill="#E9C117"/><path d="M90.064 105.065c-.038.381-.038.724.228.724.266.038.494-.267.532-.648.038-.381-.152-.724-.418-.762-.228 0-.304.305-.343.686z" fill="#966D29"/><path d="M72.631 90.774c-.418-.61-.342-2.058.457-3.278.076-.114 0-.304-.114-.343l-1.18-.343c-.152-.038-.266.039-.304.191-.076.724-.38 2.82-1.446 3.735l1.141.304 1.446-.266z" fill="#DBD143"/><path d="M70.311 90.469c.837-.99 1.103-2.782 1.18-3.468 0-.152.152-.229.304-.19l.304.076c-.228 2.096-1.141 3.62-1.141 3.62l-.647-.038z" fill="#C4B52B"/><path d="M71.98 90.889c-.077-.305-.305-1.639.722-3.81l.228.075c.153.038.229.229.115.343-.8 1.22-.876 2.63-.457 3.278l-.609.114z" fill="#DBD143"/><path d="M69.773 91.345c-2.473 9.718 4.603 18.635 13.012 19.664a1.521 1.521 0 0 0 1.445-.609 1.669 1.669 0 0 0-.418-2.439c-4.642-2.935-10.12-10.556-10.92-16.501a1.572 1.572 0 0 0-1.826-1.334 1.585 1.585 0 0 0-1.293 1.22z" fill="#FFD600"/><path d="M72.893 91.497c.837 5.945 6.278 13.567 10.92 16.501.532.343.799.914.76 1.486-6.163-1.943-12.935-11.013-13.011-19.32a1.5 1.5 0 0 1 1.331 1.333z" fill="#FFE894"/><path d="M72.513 90.66c.038.077.114.115.153.191a.669.669 0 0 0-.153-.19z" fill="#FFD600"/><path d="M70.272 90.965c-.95 8.575 6.05 17.568 13.278 19.474.229.076.457.038.685 0-.342.419-.875.648-1.407.571-8.409-1.029-15.485-9.946-13.012-19.664.114-.457.418-.8.799-1.029a.991.991 0 0 0-.343.648z" fill="#E9C117"/><path d="M84.005 109.751c-.152.381-.228.686.038.801.266.114.57-.115.723-.496.152-.381.038-.762-.19-.838-.267-.153-.419.152-.571.533z" fill="#966D29"/><path d="M72.055 85.248l2.435.267c.228.038.419.228.419.419l.076 1.181a.504.504 0 0 1-.495.496l-2.777-.153a.451.451 0 0 1-.419-.571l.267-1.296c0-.19.228-.381.494-.343z" fill="#DBD143"/><path d="M74.153 87.23l-.076-1.372a.42.42 0 0 0-.228-.381l.646.076c.229.038.419.228.419.419l.076 1.181a.504.504 0 0 1-.495.496l-.494-.038a.582.582 0 0 0 .152-.381z" fill="#DBD143"/><path d="M72.061 85.248l.419.038a.346.346 0 0 0-.114.267l-.305 1.486a.564.564 0 0 0 .153.496l-.533-.039a.452.452 0 0 1-.419-.571l.267-1.296a.474.474 0 0 1 .532-.381z" fill="#C4B52B"/><path d="M72.248 89.517c-1.636 0-2.055-.915-2.055-.953-.038-.114 0-.228.114-.266.114-.039.228 0 .266.114 0 .038.419.8 1.979.686 1.636-.115 2.207-.839 2.245-.839.076-.076.228-.114.304-.038.076.076.114.19.038.305-.038.038-.685.839-2.55.99h-.341z" fill="#C2B59B"/><path d="M13.85 260.471L83.705 274l12.099-105.065H13.85v91.536z" fill="#7C5D5D"/><path d="M143.092 17.491L58.096 24.77l28.8 62.155h113.379L143.092 17.49z" fill="#735757"/><path d="M143.355 0H64.257L.224 78.275h79.29L143.354 0z" fill="#7C5D5D"/><path d="M87.85 87.001H8.598L0 78.351h79.213L87.849 87z" fill="#6E5151"/><path d="M143.094 17.492L87.85 87.002l-8.636-8.651L143.36 0l64.641 79.228-7.724 7.698-57.183-69.434zM83.702 274l112.009-11.433v-93.632H83.702V274z" fill="#8F7373"/><path d="M28.006 86.696H18.8v82.505h9.207V86.696zm53.073 0H71.87v82.505h9.208V86.696zm47.515 0h-9.207v82.505h9.207V86.696zm58.139 0h-9.208v82.505h9.208V86.696z" fill="#3B4146"/><path d="M116.265 90.546h-.875V52.932l.875-1.333v38.947z" fill="#C2B59B"/><path d="M112.697 79.418c.608-.267 1.217-1.41 1.179-2.706 0-.153.114-.229.266-.19l1.066.304c.114.038.19.153.114.305-.305.61-1.027 2.325-.647 3.544l-1.027-.305-.951-.952z" fill="#DBD143"/><path d="M114.591 80.256c-.152-1.181.457-2.63.723-3.201.038-.114 0-.267-.114-.305l-.266-.076c-.799 1.753-.837 3.353-.837 3.353l.494.229z" fill="#C4B52B"/><path d="M113.115 79.8c.19-.191.989-1.106 1.218-3.24l-.191-.076c-.114-.038-.266.076-.266.19.038 1.296-.571 2.44-1.179 2.706l.418.42z" fill="#DBD143"/><path d="M114.599 81.171c-2.663 8.575-12.289 12.08-19.213 8.918a1.528 1.528 0 0 1-.837-1.144c-.114-.876.57-1.638 1.445-1.676 4.947-.039 12.708-3.278 16.132-7.47.495-.61 1.446-.686 2.055-.152.456.38.608.99.418 1.524z" fill="#FFD600"/><path d="M112.157 79.837c-3.425 4.154-11.186 7.393-16.132 7.47-.57 0-1.065.342-1.294.8 5.631 1.41 15.067-2.325 19.024-8.65a1.303 1.303 0 0 0-1.598.38z" fill="#FFE894"/><path d="M112.813 79.38c-.076.038-.153.038-.191.076a.641.641 0 0 1 .191-.076z" fill="#FFD600"/><path d="M114.409 80.637c-3.31 7.012-12.898 10.594-19.29 8.65a.967.967 0 0 1-.494-.342c.076.495.38.914.837 1.105 6.886 3.201 16.55-.305 19.213-8.918.114-.38.076-.8-.114-1.143-.038.229-.076.458-.152.648z" fill="#E9C117"/><path d="M95.078 88.565c-.076.343-.152.647-.38.61-.229-.039-.381-.382-.305-.725.076-.343.304-.61.57-.571.19.038.153.304.115.686z" fill="#966D29"/><path d="M114.182 80.066c.533-.458.875-1.83.457-3.202-.038-.152.076-.266.228-.266h1.18c.152 0 .228.114.228.266-.114.724-.381 2.744.342 3.887l-1.141-.038-1.294-.647z" fill="#DBD143"/><path d="M116.417 80.409c-.494-1.182-.266-2.897-.152-3.545.038-.152-.076-.266-.228-.266h-.305c-.342 2.02.077 3.696.077 3.696l.608.115z" fill="#C4B52B"/><path d="M114.753 80.332c.152-.266.723-1.448.342-3.772h-.228c-.152 0-.266.152-.228.266.418 1.372.114 2.706-.457 3.201l.571.305z" fill="#DBD143"/><path d="M116.69 81.362c-.266 9.755-9.321 16.234-17.463 14.938-.533-.076-.99-.457-1.218-.953-.38-.876.114-1.905 1.028-2.172 5.136-1.486 12.288-7.164 14.647-12.537.343-.8 1.294-1.144 2.093-.763.609.267.951.839.913 1.487z" fill="#FFD600"/><path d="M113.716 80.637c-2.359 5.335-9.511 11.013-14.648 12.538-.608.19-.989.648-1.141 1.22 6.316-.191 15.066-6.86 17.349-14.635-.609-.076-1.255.267-1.56.877z" fill="#FFE894"/><path d="M114.281 79.988c-.038.038-.114.077-.152.115.038-.038.114-.076.152-.115z" fill="#FFD600"/><path d="M116.339 80.866c-1.408 8.307-10.387 14.862-17.654 14.71-.228 0-.457-.077-.609-.191.229.495.647.838 1.18.915 8.142 1.295 17.197-5.183 17.463-14.939 0-.457-.152-.876-.457-1.181.077.19.115.419.077.686z" fill="#E9C117"/><path d="M98.424 94.775c.038.38.038.724-.228.724-.266.038-.495-.267-.533-.648-.038-.381.152-.724.419-.762.266 0 .342.305.342.686z" fill="#966D29"/><path d="M115.89 80.485c.418-.61.342-2.058-.457-3.278-.076-.114 0-.304.114-.343l1.18-.343c.152-.038.266.038.304.191.076.724.381 2.82 1.446 3.735l-1.142.304-1.445-.266z" fill="#DBD143"/><path d="M118.172 80.18c-.837-.991-1.103-2.782-1.18-3.468 0-.153-.152-.229-.304-.19l-.304.076c.228 2.096 1.141 3.62 1.141 3.62l.647-.038z" fill="#C4B52B"/><path d="M116.537 80.6c.076-.305.305-1.639-.723-3.81l-.228.075c-.152.038-.228.229-.114.343.799 1.22.875 2.63.457 3.278l.608.114z" fill="#DBD143"/><path d="M118.732 81.056c2.474 9.718-4.603 18.635-13.011 19.664a1.521 1.521 0 0 1-1.446-.609 1.67 1.67 0 0 1 .418-2.44c4.642-2.934 10.121-10.555 10.92-16.5a1.572 1.572 0 0 1 1.826-1.334c.609.114 1.103.572 1.293 1.22z" fill="#FFD600"/><path d="M115.584 81.209c-.837 5.945-6.278 13.566-10.919 16.5a1.631 1.631 0 0 0-.761 1.487c6.163-1.944 12.935-11.013 13.011-19.321-.684.076-1.217.61-1.331 1.334z" fill="#FFE894"/><path d="M115.959 80.371c-.038.077-.114.115-.153.191a.659.659 0 0 0 .153-.19z" fill="#FFD600"/><path d="M118.206 80.675c.951 8.575-6.049 17.568-13.278 19.474-.229.076-.457.038-.685 0a1.55 1.55 0 0 0 1.408.571c8.408-1.029 15.485-9.946 13.012-19.664-.039-.457-.343-.838-.723-1.029.152.153.228.381.266.648z" fill="#E9C117"/><path d="M104.509 99.463c.152.381.228.686-.038.801-.267.114-.571-.115-.723-.496-.153-.381-.038-.762.19-.838.266-.153.418.152.571.533z" fill="#966D29"/><path d="M116.46 74.959l-2.435.267c-.228.038-.419.228-.419.419l-.076 1.181c0 .267.229.496.495.496l2.777-.153a.451.451 0 0 0 .419-.571l-.266-1.296c-.038-.19-.229-.343-.495-.343z" fill="#DBD143"/><path d="M114.367 76.94l.077-1.371a.42.42 0 0 1 .228-.382l-.647.077c-.228.038-.419.228-.419.419l-.076 1.181c0 .267.229.496.495.496l.495-.038c-.115-.077-.153-.23-.153-.382z" fill="#DBD143"/><path d="M116.46 74.959l-.418.038a.346.346 0 0 1 .114.267l.304 1.486a.564.564 0 0 1-.152.496l.533-.039c.266 0 .494-.266.418-.571l-.266-1.296a.538.538 0 0 0-.533-.381z" fill="#C4B52B"/><path d="M118.935 79.418c-.609-.267-1.218-1.41-1.18-2.706 0-.153-.114-.229-.266-.19l-1.065.304c-.114.038-.191.153-.114.305.304.61 1.027 2.325.646 3.544l1.028-.305.951-.952z" fill="#DBD143"/><path d="M117.031 80.295c.152-1.181-.456-2.63-.723-3.201-.038-.114 0-.267.114-.305l.267-.076c.799 1.715.875 3.315.875 3.315l-.533.267z" fill="#C4B52B"/><path d="M118.51 79.838c-.191-.191-.99-1.106-1.218-3.24l.19-.038c.114-.038.267.076.267.19-.038 1.296.57 2.44 1.179 2.706l-.418.382z" fill="#DBD143"/><path d="M117.034 81.21c2.663 8.574 12.289 12.08 19.213 8.917.457-.229.761-.648.837-1.144.115-.876-.57-1.638-1.445-1.676-4.946-.038-12.708-3.278-16.132-7.47-.495-.61-1.446-.686-2.054-.152-.419.381-.571.953-.419 1.524z" fill="#FFD600"/><path d="M119.51 79.837c3.424 4.154 11.186 7.393 16.132 7.47.57 0 1.065.342 1.293.8-5.631 1.41-15.066-2.325-19.023-8.65.533-.268 1.18-.115 1.598.38z" fill="#FFE894"/><path d="M118.821 79.38c.076.038.153.038.191.076-.038-.038-.115-.038-.191-.076z" fill="#FFD600"/><path d="M117.263 80.675c3.31 7.012 12.897 10.594 19.289 8.65a.968.968 0 0 0 .495-.342c-.076.495-.381.914-.837 1.105-6.887 3.201-16.55-.305-19.214-8.917-.114-.382-.076-.8.114-1.144 0 .229.039.42.153.648z" fill="#E9C117"/><path d="M136.593 88.565c.076.343.152.647.38.61.228-.039.381-.382.304-.725-.076-.343-.304-.61-.57-.571-.229.038-.19.343-.114.686z" fill="#966D29"/><path d="M117.451 80.066c-.533-.458-.875-1.83-.457-3.202.038-.152-.076-.266-.228-.266h-1.18c-.152 0-.228.114-.228.266.114.724.381 2.744-.342 3.887l1.141-.038 1.294-.647z" fill="#DBD143"/><path d="M115.208 80.409c.495-1.182.266-2.897.152-3.545-.038-.152.076-.266.229-.266h.304c.342 2.02-.076 3.696-.076 3.696l-.609.115z" fill="#C4B52B"/><path d="M116.883 80.37c-.152-.266-.723-1.448-.342-3.772h.228c.152 0 .266.152.228.266-.418 1.372-.114 2.706.457 3.201l-.571.305z" fill="#DBD143"/><path d="M114.943 81.362c.266 9.755 9.321 16.234 17.463 14.938.533-.076.99-.457 1.218-.953.38-.876-.114-1.905-1.027-2.172-5.137-1.486-12.289-7.164-14.648-12.537-.343-.8-1.294-1.144-2.093-.763-.609.305-.951.877-.913 1.487z" fill="#FFD600"/><path d="M117.912 80.676c2.359 5.335 9.511 11.013 14.648 12.537.608.19.989.648 1.141 1.22-6.316-.19-15.066-6.86-17.349-14.634.609-.114 1.293.229 1.56.877z" fill="#FFE894"/><path d="M115.322 80.866c1.407 8.307 10.386 14.862 17.653 14.71.228 0 .457-.077.609-.191-.228.495-.647.838-1.18.915-8.142 1.295-17.197-5.183-17.463-14.939 0-.457.152-.876.457-1.181a1.36 1.36 0 0 0-.076.686z" fill="#E9C117"/><path d="M133.208 94.814c-.038.38-.038.724.228.724.267.038.495-.267.533-.648.038-.381-.152-.724-.418-.762-.229-.038-.305.305-.343.686z" fill="#966D29"/><path d="M115.733 80.485c-.419-.61-.343-2.058.456-3.278.076-.114 0-.304-.114-.343l-1.179-.343c-.153-.038-.267.038-.305.191-.076.724-.38 2.82-1.446 3.735l1.142.304 1.446-.266z" fill="#DBD143"/><path d="M113.455 80.18c.837-.991 1.104-2.782 1.18-3.468 0-.153.152-.229.304-.19l.304.076c-.228 2.096-1.141 3.62-1.141 3.62l-.647-.038z" fill="#C4B52B"/><path d="M115.123 80.638c-.076-.305-.304-1.639.723-3.81l.229.075c.152.038.228.229.114.343-.799 1.22-.875 2.63-.457 3.278l-.609.114z" fill="#DBD143"/><path d="M112.917 81.056c-2.473 9.718 4.604 18.635 13.012 19.664a1.522 1.522 0 0 0 1.446-.609 1.67 1.67 0 0 0-.419-2.44c-4.642-2.934-10.12-10.555-10.919-16.5a1.572 1.572 0 0 0-1.826-1.334 1.637 1.637 0 0 0-1.294 1.22z" fill="#FFD600"/><path d="M116.037 81.209c.837 5.945 6.278 13.566 10.92 16.5.532.344.799.915.761 1.487-6.164-1.944-12.936-11.013-13.012-19.321a1.616 1.616 0 0 1 1.331 1.334z" fill="#FFE894"/><path d="M115.657 80.371c.038.077.115.115.153.191-.038-.038-.115-.114-.153-.19z" fill="#FFD600"/><path d="M113.417 80.676c-.952 8.575 6.049 17.568 13.278 19.474.228.076.456.038.685 0a1.55 1.55 0 0 1-1.408.571c-8.408-1.029-15.485-9.946-13.012-19.664.114-.457.419-.8.799-1.029-.19.19-.304.381-.342.648z" fill="#E9C117"/><path d="M127.149 99.463c-.152.381-.228.686.038.8.266.115.571-.114.723-.495.152-.381.038-.762-.19-.838-.228-.077-.457.152-.571.533z" fill="#966D29"/><path d="M115.167 74.997l2.435.267c.229.038.419.229.419.419l.076 1.181a.504.504 0 0 1-.495.496l-2.777-.153a.451.451 0 0 1-.418-.571l.266-1.296a.43.43 0 0 1 .494-.343z" fill="#DBD143"/><path d="M117.297 76.94l-.076-1.371a.42.42 0 0 0-.228-.382l.647.077c.228.038.418.228.418.419l.076 1.181a.504.504 0 0 1-.494.496l-.495-.038a.583.583 0 0 0 .152-.382z" fill="#DBD143"/><path d="M115.163 74.997l.418.038a.346.346 0 0 0-.114.267l-.304 1.486a.564.564 0 0 0 .152.496l-.533-.039a.451.451 0 0 1-.418-.571l.266-1.296c.076-.267.304-.42.533-.381z" fill="#C4B52B"/><path d="M115.243 79.075c-1.636 0-2.055-.915-2.055-.953-.038-.115 0-.229.114-.267.114-.038.229 0 .267.114 0 .038.418.8 1.978.686 1.636-.114 2.207-.838 2.245-.838.076-.076.228-.114.304-.038.076.076.114.19.038.305-.038.038-.685.838-2.549.99h-.342z" fill="#C2B59B"/></svg>