<svg width="128" height="180" fill="none" xmlns="http://www.w3.org/2000/svg"><path d="M108.501 36.087s0-19.563-6.567-21.598c-7.969-2.504-15.116-.104-15.454 8.764-.048 4.748-.386 56.708-.386 56.708" stroke="#fff" stroke-width="6" stroke-miterlimit="10"/><path d="M87.012 19.446s.483-15.651-10.431-15.651c-8.306 0-11.3 4.173-11.639 12.99-.048 4.747-.337 65.316-.337 65.316" stroke="#fff" stroke-width="6" stroke-miterlimit="10"/><path d="M64.846 29.932s.483-12.051-8.596-12.051c-8.307 0-10.48 4.486-10.818 13.303-.048 4.8-.241 53.108-.241 53.108l-.773 18.99S19.79 79.858 16.312 78.188c-3.477-1.721-6.278-.626-8.789 1.722-2.511 2.347-4.346 5.06-4.346 10.33 0 4.903 39.02 62.133 44.235 69.854.483.678.918 1.304 1.497 1.93 3.332 3.704 15.647 15.755 33.611 14.659 19.076-1.199 28.831-6.573 38.538-24.31 2.173-3.965 3.283-8.556 3.283-13.147V39.218s-.724-9.39-7.34-9.756c-8.693-.47-9.079 9.912-9.079 9.912l-1.255 45.388" stroke="#fff" stroke-width="6" stroke-miterlimit="10"/><path d="M109.516 122.323c0-8.608-6.471-15.598-14.44-15.598-4.54 0-8.499 2.295-11.155 5.79-2.656-3.495-6.616-5.79-11.156-5.79-7.968 0-14.439 6.99-14.439 15.598 0 6.26 7.389 14.608 7.63 14.921l16.903 19.928 18.35-19.668c.29-.26 8.307-8.66 8.307-15.181z" stroke="#fff" stroke-width="6" stroke-miterlimit="10"/></svg>