<svg width="181" height="122" fill="none" xmlns="http://www.w3.org/2000/svg"><path d="M89.808 54.369c12.94 0 23.43-11.37 23.43-25.396 0-14.026-10.49-25.397-23.43-25.397s-23.43 11.37-23.43 25.396c0 14.026 10.49 25.397 23.43 25.397zm-50.504 5.54c12.185 0 22.063-10.707 22.063-23.916 0-13.208-9.878-23.915-22.063-23.915-12.186 0-22.064 10.707-22.064 23.915 0 13.209 9.878 23.916 22.064 23.916zm35.879 58.251H21.088c-9.755 0-17.662-7.907-17.662-17.662 0-18.046 13.511-32.691 30.16-32.691h11.437c5.617 0 13.106 2.962 17.66 5.924m79.347-13.822c12.186 0 22.064-10.707 22.064-23.916 0-13.208-9.878-23.915-22.064-23.915-12.185 0-22.063 10.707-22.063 23.915 0 13.209 9.878 23.916 22.063 23.916zm-24.289 14.699c4.807-3.51 12.297-6.801 18.521-6.801h11.437c16.648 0 30.16 14.645 30.16 32.691 0 9.755-7.908 17.662-17.662 17.662h-54.045" stroke="#fff" stroke-width="6" stroke-miterlimit="10"/><path d="M97.55 64.297H81.964c-1.265 0-2.53.164-3.745.548-15.434 5.321-26.617 20.899-26.617 39.384 0 7.694 6.237 13.932 13.932 13.932h48.447c7.694 0 13.932-6.238 13.932-13.932 0-18.485-11.184-34.063-26.618-39.384-1.214-.384-2.48-.548-3.745-.548z" stroke="#fff" stroke-width="6" stroke-miterlimit="10"/></svg>