<svg width="1920" height="425" fill="none" xmlns="http://www.w3.org/2000/svg"><mask id="a" maskUnits="userSpaceOnUse" x="0" y="0" width="1920" height="425"><path fill="#C4C4C4" d="M0 0h1920v425H0z"/></mask><g mask="url(#a)" fill="#003249"><path opacity=".5" d="M2218.51-1142.34H-414.6V660.999h2633.11V-1142.34z"/><g opacity=".45"><path opacity=".45" d="M-13.357 231.076h-.118c-2.519.034-4.749 1.269-5.812 3.204l-27.29 49.622c-1.206 2.192-.63 4.807 1.614 6.531 1.234.935 2.874 1.369 4.527 1.369h56.56c2.257 0 4.487-.835 5.76-2.426 1.364-1.702 1.508-3.827.42-5.64l-29.835-49.622c-1.129-1.892-3.346-3.038-5.826-3.038zm27.12 55.163l-51.785.022c-1.22 0-2.02-1.068-1.509-2.002l24.705-45.016c.59-1.068 2.362-1.091 2.991-.045l27.08 44.994c.564.934-.236 2.047-1.483 2.047z"/><path opacity=".45" d="M-14.408 251.382l-14.957 27.214c-.55 1.001.315 2.158 1.627 2.158H3.58c1.338 0 2.204-1.201 1.6-2.202l-16.36-27.215c-.683-1.135-2.598-1.101-3.228.045zm-.589-22.853c.682 1.123 2.585 1.101 3.214-.045L3.174 201.27c.551-1.001-.315-2.159-1.627-2.159H-29.77c-1.338 0-2.204 1.202-1.6 2.203l16.373 27.215zm264.302 28.27c1.128 1.88 3.346 3.026 5.825 3.026h.118c2.52-.033 4.75-1.268 5.813-3.204l27.289-49.622c1.207-2.192.63-4.806-1.614-6.531-1.233-.934-2.873-1.368-4.526-1.368h-56.56c-2.257 0-4.487.834-5.76 2.425-1.364 1.702-1.509 3.827-.42 5.641l29.835 49.633zm-21.28-52.125l51.784-.023c1.22 0 2.021 1.069 1.509 2.003l-24.705 45.016c-.59 1.068-2.362 1.09-2.991.044l-27.08-44.993c-.564-.935.236-2.047 1.483-2.047z"/><path opacity=".45" d="M252.966 239.577c.682 1.124 2.584 1.102 3.214-.044l14.957-27.214c.551-1.002-.315-2.159-1.627-2.159h-31.317c-1.339 0-2.204 1.202-1.601 2.203l16.374 27.214zm-85.334-8.501h-.118c-2.519.034-4.75 1.269-5.812 3.204l-27.29 49.622c-1.207 2.192-.63 4.807 1.614 6.531 1.233.935 2.873 1.369 4.526 1.369h56.56c2.257 0 4.487-.835 5.76-2.426 1.365-1.702 1.509-3.827.42-5.64l-29.835-49.622c-1.128-1.892-3.346-3.038-5.825-3.038zm27.119 55.163l-51.785.022c-1.22 0-2.02-1.068-1.509-2.002l24.705-45.016c.591-1.068 2.362-1.091 2.992-.045l27.079 44.994c.565.934-.236 2.047-1.482 2.047z"/><path opacity=".45" d="M166.584 251.382l-14.956 27.214c-.551 1.001.315 2.158 1.627 2.158h31.317c1.338 0 2.204-1.201 1.601-2.202l-16.361-27.215c-.695-1.135-2.598-1.101-3.228.045zm-.593-22.853c.682 1.123 2.585 1.101 3.215-.045l14.956-27.214c.551-1.001-.314-2.159-1.626-2.159h-31.318c-1.338 0-2.204 1.202-1.601 2.203l16.374 27.215zm173.566 2.547h-.118c-2.519.034-4.749 1.269-5.812 3.204l-27.289 49.622c-1.207 2.192-.63 4.807 1.614 6.531 1.233.935 2.873 1.369 4.526 1.369h56.56c2.257 0 4.487-.835 5.76-2.426 1.364-1.702 1.509-3.827.42-5.64l-29.835-49.622c-1.129-1.892-3.359-3.038-5.826-3.038zm27.119 55.163l-51.784.022c-1.22 0-2.021-1.068-1.509-2.002l24.705-45.016c.59-1.068 2.362-1.091 2.991-.045l27.08 44.994c.551.934-.249 2.047-1.483 2.047z"/><path opacity=".45" d="M338.508 251.382l-14.957 27.214c-.551 1.001.315 2.158 1.627 2.158h31.318c1.338 0 2.204-1.201 1.6-2.202l-16.36-27.215c-.696-1.135-2.598-1.101-3.228.045zm-.591-22.853c.682 1.123 2.585 1.101 3.214-.045l14.957-27.214c.551-1.001-.315-2.159-1.627-2.159h-31.317c-1.338 0-2.204 1.202-1.601 2.203l16.374 27.215zm183.535 2.547h-.118c-2.519.034-4.749 1.269-5.812 3.204l-27.29 49.622c-1.207 2.192-.63 4.807 1.614 6.531 1.233.935 2.873 1.369 4.526 1.369h56.561c2.256 0 4.487-.835 5.759-2.426 1.365-1.702 1.509-3.827.42-5.64l-29.835-49.622c-1.128-1.892-3.345-3.038-5.825-3.038zm27.119 55.163l-51.784.022c-1.221 0-2.021-1.068-1.509-2.002l24.705-45.016c.59-1.068 2.361-1.091 2.991-.045l27.08 44.994c.564.934-.237 2.047-1.483 2.047z"/><path opacity=".45" d="M520.403 251.382l-14.957 27.214c-.551 1.001.315 2.158 1.627 2.158h31.317c1.338 0 2.204-1.201 1.601-2.202l-16.361-27.215c-.682-1.135-2.597-1.101-3.227.045zm-.59-22.853c.683 1.123 2.585 1.101 3.215-.045l14.957-27.214c.551-1.001-.315-2.159-1.627-2.159H505.04c-1.338 0-2.204 1.202-1.6 2.203l16.373 27.215zM76.186 256.801c1.128 1.88 3.346 3.026 5.825 3.026h.118c2.52-.033 4.75-1.268 5.813-3.204l27.289-49.622c1.207-2.192.63-4.806-1.614-6.531-1.233-.935-2.873-1.368-4.526-1.368h-56.56c-2.257 0-4.487.834-5.76 2.425-1.364 1.702-1.509 3.827-.42 5.641l29.835 49.633zm-21.294-52.125l51.785-.023c1.22 0 2.02 1.069 1.509 2.003l-24.705 45.016c-.59 1.068-2.362 1.09-2.992.044l-27.08-44.993c-.563-.935.237-2.047 1.483-2.047z"/><path opacity=".45" d="M79.847 239.577c.682 1.124 2.584 1.102 3.214-.044l14.957-27.214c.55-1.002-.315-2.159-1.627-2.159H65.074c-1.339 0-2.205 1.202-1.601 2.203l16.374 27.214zm342.589 17.222c1.128 1.88 3.346 3.026 5.825 3.026h.118c2.519-.033 4.75-1.268 5.813-3.204l27.289-49.622c1.207-2.192.63-4.806-1.614-6.531-1.233-.934-2.873-1.368-4.526-1.368h-56.56c-2.257 0-4.487.834-5.76 2.425-1.364 1.702-1.509 3.827-.42 5.641l29.835 49.633zm-21.294-52.125l51.785-.023c1.22 0 2.02 1.069 1.509 2.003l-24.705 45.016c-.591 1.068-2.362 1.09-2.992.044l-27.079-44.993c-.564-.935.249-2.047 1.482-2.047z"/><path opacity=".45" d="M426.097 239.577c.682 1.124 2.584 1.102 3.214-.044l14.957-27.214c.551-1.002-.315-2.159-1.627-2.159h-31.317c-1.339 0-2.205 1.202-1.601 2.203l16.374 27.214zm359.132 17.224c1.128 1.88 3.346 3.026 5.825 3.026h.118c2.519-.033 4.75-1.268 5.812-3.204l27.29-49.622c1.207-2.192.63-4.806-1.614-6.531-1.233-.935-2.873-1.368-4.526-1.368h-56.56c-2.257 0-4.487.834-5.76 2.425-1.364 1.702-1.509 3.827-.42 5.641l29.835 49.633zm-21.294-52.125l51.785-.023c1.22 0 2.02 1.069 1.509 2.003l-24.705 45.016c-.591 1.068-2.362 1.09-2.992.044l-27.079-44.993c-.564-.935.249-2.047 1.482-2.047z"/><path opacity=".45" d="M788.89 239.577c.682 1.124 2.584 1.102 3.214-.044l14.957-27.214c.551-1.002-.315-2.159-1.627-2.159h-31.317c-1.339 0-2.205 1.202-1.601 2.203l16.374 27.214zm-85.332-8.501h-.118c-2.519.034-4.75 1.269-5.813 3.204l-27.289 49.622c-1.207 2.192-.63 4.807 1.614 6.531 1.233.935 2.873 1.369 4.526 1.369h56.56c2.257 0 4.487-.835 5.76-2.426 1.364-1.702 1.509-3.827.42-5.64l-29.835-49.622c-1.128-1.892-3.359-3.038-5.825-3.038zm27.119 55.163l-51.785.022c-1.22 0-2.021-1.068-1.509-2.002l24.705-45.016c.591-1.068 2.362-1.091 2.992-.045l27.079 44.994c.564.934-.249 2.047-1.482 2.047z"/><path opacity=".45" d="M702.508 251.382l-14.957 27.214c-.551 1.001.315 2.158 1.627 2.158h31.318c1.338 0 2.204-1.201 1.6-2.202l-16.36-27.215c-.696-1.135-2.598-1.101-3.228.045zm-.591-22.853c.682 1.123 2.585 1.101 3.214-.045l14.957-27.214c.551-1.001-.315-2.159-1.627-2.159h-31.317c-1.338 0-2.204 1.202-1.601 2.203l16.374 27.215zm173.564 2.547h-.118c-2.519.034-4.749 1.269-5.812 3.204l-27.289 49.622c-1.207 2.192-.63 4.807 1.613 6.531 1.234.935 2.874 1.369 4.527 1.369h56.56c2.256 0 4.487-.835 5.759-2.426 1.365-1.702 1.509-3.827.42-5.64l-29.835-49.622c-1.128-1.892-3.358-3.038-5.825-3.038zm27.106 55.163l-51.784.022c-1.22 0-2.021-1.068-1.509-2.002l24.705-45.016c.59-1.068 2.361-1.091 2.991-.045l27.08 44.994c.564.934-.237 2.047-1.483 2.047z"/><path opacity=".45" d="M874.418 251.382l-14.956 27.214c-.551 1.001.315 2.158 1.627 2.158h31.317c1.338 0 2.204-1.201 1.601-2.202l-16.361-27.215c-.682-1.135-2.585-1.101-3.228.045zm-16.937-50.068l16.361 27.215c.682 1.123 2.584 1.101 3.214-.045l14.957-27.214c.551-1.001-.315-2.159-1.627-2.159h-31.317c-1.326 0-2.192 1.191-1.588 2.203zM612.11 256.801c1.128 1.88 3.345 3.026 5.825 3.026h.118c2.519-.033 4.75-1.268 5.812-3.204l27.29-49.622c1.207-2.192.63-4.806-1.614-6.531-1.233-.935-2.873-1.368-4.526-1.368h-56.56c-2.257 0-4.488.834-5.76 2.425-1.365 1.702-1.509 3.827-.42 5.641l29.835 49.633zm-21.294-52.125l51.785-.023c1.22 0 2.02 1.069 1.508 2.003l-24.704 45.016c-.591 1.068-2.362 1.09-2.992.044l-27.079-44.993c-.565-.935.236-2.047 1.482-2.047z"/><path opacity=".45" d="M615.757 239.577c.683 1.124 2.585 1.102 3.215-.044l14.957-27.214c.551-1.002-.315-2.159-1.627-2.159h-31.305c-1.338 0-2.204 1.202-1.6 2.203l16.36 27.214zm514.783 17.224c1.12 1.88 3.34 3.026 5.82 3.026h.12c2.52-.033 4.75-1.268 5.81-3.204l27.29-49.622c1.21-2.192.63-4.806-1.61-6.531-1.24-.935-2.88-1.368-4.53-1.368h-56.56c-2.26 0-4.49.834-5.76 2.425-1.36 1.702-1.51 3.827-.42 5.641l29.84 49.633zm-21.3-52.125l51.79-.023c1.22 0 2.02 1.069 1.51 2.003l-24.71 45.016c-.59 1.068-2.36 1.09-2.99.044l-27.08-44.993c-.56-.935.24-2.047 1.48-2.047z"/><path opacity=".45" d="M1134.19 239.577c.69 1.124 2.59 1.102 3.22-.044l14.96-27.214c.55-1.002-.32-2.159-1.63-2.159h-31.32c-1.34 0-2.2 1.202-1.6 2.203l16.37 27.214zm-85.34-8.501h-.12c-2.52.034-4.75 1.269-5.81 3.204l-27.29 49.622c-1.21 2.192-.63 4.807 1.61 6.531 1.24.935 2.88 1.369 4.53 1.369h56.56c2.26 0 4.49-.835 5.76-2.426 1.36-1.702 1.51-3.827.42-5.64l-29.84-49.622c-1.12-1.892-3.34-3.038-5.82-3.038zm27.12 55.163l-51.79.022c-1.22 0-2.02-1.068-1.51-2.002l24.71-45.016c.59-1.068 2.36-1.091 2.99-.045l27.08 44.994c.56.934-.24 2.047-1.48 2.047z"/><path opacity=".45" d="M1047.8 251.382l-14.96 27.214c-.55 1.001.32 2.158 1.63 2.158h31.32c1.33 0 2.2-1.201 1.6-2.202l-16.36-27.215c-.69-1.135-2.6-1.101-3.23.045zm-.58-22.853c.68 1.123 2.59 1.101 3.22-.045l14.95-27.214c.55-1.001-.31-2.159-1.62-2.159h-31.32c-1.34 0-2.21 1.202-1.6 2.203l16.37 27.215zm173.55 2.547h-.12c-2.51.034-4.75 1.269-5.81 3.204l-27.29 49.622c-1.2 2.192-.63 4.807 1.62 6.531 1.23.935 2.87 1.369 4.52 1.369h56.56c2.26 0 4.49-.835 5.76-2.426 1.37-1.702 1.51-3.827.42-5.64l-29.83-49.622c-1.13-1.892-3.35-3.038-5.83-3.038zm27.12 55.163l-51.78.022c-1.22 0-2.02-1.068-1.51-2.002l24.7-45.016c.59-1.068 2.36-1.091 2.99-.045l27.08 44.994c.57.934-.23 2.047-1.48 2.047z"/><path opacity=".45" d="M1219.72 251.382l-14.95 27.214c-.55 1.001.31 2.158 1.62 2.158h31.32c1.34 0 2.2-1.201 1.6-2.202l-16.36-27.215c-.68-1.135-2.6-1.101-3.23.045zm-.59-22.853c.68 1.123 2.59 1.101 3.22-.045l14.95-27.214c.55-1.001-.31-2.159-1.62-2.159h-31.32c-1.34 0-2.21 1.202-1.6 2.203l16.37 27.215zm183.55 2.547h-.12c-2.52.034-4.75 1.269-5.81 3.204l-27.29 49.622c-1.21 2.192-.63 4.807 1.61 6.531 1.24.935 2.88 1.369 4.53 1.369h56.56c2.26 0 4.49-.835 5.76-2.426 1.37-1.702 1.51-3.827.42-5.64l-29.83-49.622c-1.13-1.892-3.36-3.038-5.83-3.038zm27.12 55.163l-51.79.022c-1.22 0-2.02-1.068-1.5-2.002l24.7-45.016c.59-1.068 2.36-1.091 2.99-.045l27.08 44.994c.55.934-.25 2.047-1.48 2.047z"/><path opacity=".45" d="M1401.63 251.382l-14.96 27.214c-.55 1.001.32 2.158 1.63 2.158h31.32c1.34 0 2.2-1.201 1.6-2.202l-16.36-27.215c-.7-1.135-2.6-1.101-3.23.045zm-.59-22.853c.68 1.123 2.59 1.101 3.22-.045l14.95-27.214c.55-1.001-.31-2.159-1.62-2.159h-31.32c-1.34 0-2.21 1.202-1.6 2.203l16.37 27.215zm-443.639 28.272c1.128 1.88 3.345 3.026 5.825 3.026h.118c2.519-.033 4.75-1.268 5.812-3.204l27.29-49.622c1.207-2.192.63-4.806-1.614-6.531-1.233-.935-2.873-1.368-4.526-1.368h-56.561c-2.256 0-4.486.834-5.759 2.425-1.365 1.702-1.509 3.827-.42 5.641l29.835 49.633zm-21.294-52.125l51.785-.023c1.22 0 2.02 1.069 1.508 2.003l-24.704 45.016c-.591 1.068-2.362 1.09-2.992.044l-27.079-44.993c-.565-.935.236-2.047 1.482-2.047z"/><path opacity=".45" d="M961.063 239.577c.683 1.124 2.585 1.102 3.215-.044l14.956-27.214c.552-1.002-.314-2.159-1.626-2.159H946.29c-1.338 0-2.204 1.202-1.6 2.203l16.373 27.214zm342.587 17.224c1.13 1.88 3.35 3.026 5.83 3.026h.12c2.52-.033 4.75-1.268 5.81-3.204l27.29-49.622c1.2-2.192.63-4.806-1.62-6.531-1.23-.935-2.87-1.368-4.52-1.368H1280c-2.26 0-4.49.834-5.76 2.425-1.37 1.702-1.51 3.827-.42 5.641l29.83 49.633zm-21.28-52.125l51.79-.023c1.22 0 2.02 1.069 1.51 2.003l-24.71 45.016c-.59 1.068-2.36 1.09-2.99.044l-27.08-44.993c-.56-.935.24-2.047 1.48-2.047z"/><path opacity=".45" d="M1307.31 239.577c.69 1.124 2.59 1.102 3.22-.044l14.95-27.214c.56-1.002-.31-2.159-1.62-2.159h-31.32c-1.34 0-2.2 1.202-1.6 2.203l16.37 27.214zm358.03 17.222c1.13 1.88 3.35 3.026 5.83 3.026h.12c2.52-.033 4.75-1.268 5.81-3.204l27.29-49.622c1.21-2.192.63-4.806-1.61-6.531-1.24-.934-2.88-1.368-4.53-1.368h-56.56c-2.26 0-4.49.834-5.76 2.425-1.37 1.702-1.51 3.827-.42 5.641l29.83 49.633zm-21.29-52.125l51.79-.023c1.22 0 2.02 1.069 1.5 2.003l-24.7 45.016c-.59 1.068-2.36 1.09-2.99.044l-27.08-44.993c-.57-.935.23-2.047 1.48-2.047z"/><path opacity=".45" d="M1669 239.577c.69 1.124 2.59 1.102 3.22-.044l14.96-27.214c.55-1.002-.32-2.159-1.63-2.159h-31.32c-1.34 0-2.2 1.202-1.6 2.203l16.37 27.214zm-85.34-8.501h-.12c-2.52.034-4.75 1.269-5.81 3.204l-27.29 49.622c-1.21 2.192-.63 4.807 1.61 6.531 1.24.935 2.88 1.369 4.53 1.369h56.56c2.26 0 4.49-.835 5.76-2.426 1.36-1.702 1.51-3.827.42-5.64l-29.84-49.622c-1.12-1.892-3.34-3.038-5.82-3.038zm27.12 55.163l-51.79.022c-1.22 0-2.02-1.068-1.51-2.002l24.71-45.016c.59-1.068 2.36-1.091 2.99-.045l27.08 44.994c.56.934-.24 2.047-1.48 2.047z"/><path opacity=".45" d="M1582.61 251.382l-14.96 27.214c-.55 1.001.32 2.158 1.63 2.158h31.32c1.34 0 2.2-1.201 1.6-2.202l-16.36-27.215c-.68-1.135-2.6-1.101-3.23.045zm-.58-22.853c.68 1.123 2.58 1.101 3.21-.045l14.96-27.214c.55-1.001-.31-2.159-1.63-2.159h-31.31c-1.34 0-2.21 1.202-1.6 2.203l16.37 27.215zm173.55 2.547h-.12c-2.51.034-4.74 1.269-5.81 3.204l-27.29 49.622c-1.2 2.192-.63 4.807 1.62 6.531 1.23.935 2.87 1.369 4.52 1.369h56.56c2.26 0 4.49-.835 5.76-2.426 1.37-1.702 1.51-3.827.42-5.64l-29.83-49.622c-1.13-1.892-3.35-3.038-5.83-3.038zm27.12 55.163l-51.78.022c-1.22 0-2.02-1.068-1.51-2.002l24.7-45.016c.59-1.068 2.37-1.091 2.99-.045l27.08 44.994c.57.934-.23 2.047-1.48 2.047z"/><path opacity=".45" d="M1754.53 251.382l-14.95 27.214c-.55 1.001.31 2.158 1.62 2.158h31.32c1.34 0 2.21-1.201 1.6-2.202l-16.36-27.215c-.68-1.135-2.6-1.101-3.23.045zm-.59-22.853c.69 1.123 2.59 1.101 3.22-.045l14.96-27.214c.55-1.001-.32-2.159-1.63-2.159h-31.32c-1.34 0-2.2 1.202-1.6 2.203l16.37 27.215zm183.55 2.547h-.12c-2.52.034-4.75 1.269-5.81 3.204l-27.29 49.622c-1.21 2.192-.63 4.807 1.62 6.531 1.23.935 2.87 1.369 4.52 1.369h56.56c2.26 0 4.49-.835 5.76-2.426 1.37-1.702 1.51-3.827.42-5.64l-29.83-49.622c-1.13-1.892-3.36-3.038-5.83-3.038zm27.12 55.163l-51.78.022c-1.22 0-2.02-1.068-1.51-2.002l24.7-45.016c.59-1.068 2.36-1.091 2.99-.045l27.08 44.994c.55.934-.25 2.047-1.48 2.047zm-28.76-57.71c.68 1.123 2.59 1.101 3.22-.045l14.95-27.214c.55-1.001-.31-2.159-1.62-2.159h-31.32c-1.34 0-2.2 1.202-1.6 2.203l16.37 27.215zm-443.64 28.27c1.13 1.88 3.35 3.026 5.83 3.026h.12c2.52-.033 4.75-1.268 5.81-3.204l27.29-49.622c1.21-2.192.63-4.806-1.62-6.531-1.23-.934-2.87-1.368-4.52-1.368h-56.56c-2.26 0-4.49.834-5.76 2.425-1.37 1.702-1.51 3.827-.42 5.641l29.83 49.633zm-21.29-52.125l51.78-.023c1.22 0 2.02 1.069 1.51 2.003l-24.7 45.016c-.59 1.068-2.36 1.09-2.99.044l-27.08-44.993c-.57-.935.23-2.047 1.48-2.047z"/><path opacity=".45" d="M1495.87 239.577c.69 1.124 2.59 1.102 3.22-.044l14.96-27.214c.55-1.002-.32-2.159-1.63-2.159h-31.32c-1.34 0-2.2 1.202-1.6 2.203l16.37 27.214zm342.59 17.222c1.13 1.88 3.35 3.026 5.83 3.026h.11c2.52-.033 4.75-1.268 5.82-3.204l27.29-49.622c1.2-2.192.63-4.806-1.62-6.531-1.23-.934-2.87-1.368-4.52-1.368h-56.56c-2.27 0-4.49.834-5.76 2.425-1.37 1.702-1.51 3.827-.42 5.641l29.83 49.633zm-21.28-52.125l51.79-.023c1.22 0 2.02 1.069 1.5 2.003l-24.7 45.016c-.59 1.068-2.36 1.09-2.99.044l-27.08-44.993c-.57-.935.23-2.047 1.48-2.047z"/><path opacity=".45" d="M1842.12 239.577c.68 1.124 2.59 1.102 3.22-.044l14.95-27.214c.55-1.002-.31-2.159-1.62-2.159h-31.32c-1.34 0-2.21 1.202-1.6 2.203l16.37 27.214z"/><path opacity=".45" d="M2366.41-8.945h-135.2c.14-.267.12-.557-.17-.835l-15.48-15.153 36.63-2.048c2.27-.089 3.41-2.358 1.93-3.816l-18.04-29.884 36.48-1.914c2.27-.089 3.41-2.359 1.93-3.816l-22.28-34.647c-.6-.589-1.44-.834-2.24-.779a5.966 5.966 0 0 1-.5 4.696l-17.15 31.197-2.91 5.296-14.46 26.302c-1.02 1.858-2.9 3.204-5.14 3.76-.49.123-1 .19-1.51.234-.24.022-.47.045-.71.056h-.14c-.57 0-1.1-.067-1.63-.156a6.84 6.84 0 0 1-.85-.178c-2.09-.556-3.85-1.78-4.88-3.505l-16.18-26.902-3.12-5.196-18.46-30.697c-.93-1.535-1.13-3.26-.66-4.873-.58.1-1.13.345-1.55.768l-21.57 34.969c-1.45 1.48-.26 3.727 2.01 3.783l36.51 1.38-17.42 30.15c-1.45 1.48-.26 3.728 2.01 3.783l38.39 1.57-14.6 15.631c-.25.267-.27.545-.14.801h-127.23c.14-.267.11-.556-.17-.834l-15.49-15.154 36.64-2.047c2.27-.089 3.41-2.359 1.92-3.816l-18.02-29.862 36.48-1.914c2.27-.089 3.42-2.359 1.93-3.816l-22.28-34.647c-.6-.589-1.44-.834-2.24-.779a5.966 5.966 0 0 1-.5 4.696l-17.14 31.197-2.92 5.296-14.46 26.302c-1.02 1.858-2.9 3.204-5.14 3.76-.48.123-1 .19-1.51.234-.23.022-.47.045-.71.056h-.14c-.56 0-1.1-.067-1.64-.156a6.84 6.84 0 0 1-.85-.178c-2.09-.556-3.85-1.78-4.88-3.505l-16.18-26.902-3.12-5.196-18.46-30.697c-.93-1.535-1.13-3.26-.66-4.873-.58.1-1.13.345-1.55.768l-21.57 34.969c-1.45 1.48-.26 3.727 2.01 3.783l36.51 1.38-17.42 30.15c-1.46 1.48-.26 3.728 2.01 3.783l38.39 1.57-14.61 15.631c-.25.267-.26.545-.13.801H1868.4c.15-.267.12-.556-.17-.834l-15.48-15.154 36.63-2.047c2.27-.089 3.41-2.359 1.93-3.816l-18.04-29.885 36.49-1.913c2.27-.09 3.41-2.359 1.92-3.816l-22.27-34.647c-.61-.59-1.45-.834-2.25-.779a5.924 5.924 0 0 1-.5 4.695l-17.14 31.198-2.92 5.296-14.45 26.302c-1.03 1.858-2.9 3.204-5.15 3.76-.48.123-.99.19-1.51.234-.23.022-.47.044-.7.055h-.15c-.56 0-1.1-.066-1.63-.155a7.79 7.79 0 0 1-.85-.178c-2.08-.557-3.84-1.78-4.88-3.505L1821.1-61.06l-3.12-5.195-18.46-30.697c-.93-1.536-1.13-3.26-.65-4.873-.58.1-1.13.345-1.55.767l-21.57 34.97c-1.46 1.48-.26 3.727 2.01 3.782l36.51 1.38-17.43 30.151c-1.45 1.48-.26 3.728 2.01 3.783l38.39 1.569-14.6 15.632c-.25.267-.26.545-.13.801h-127.23c.15-.267.12-.556-.17-.834l-15.48-15.154 36.63-2.047c2.27-.09 3.41-2.359 1.93-3.816l-18.04-29.885 36.49-1.914c2.27-.089 3.41-2.358 1.93-3.816l-22.28-34.646c-.61-.59-1.44-.835-2.25-.779.48 1.547.33 3.204-.49 4.695l-17.15 31.198-2.91 5.295-14.46 26.302c-1.03 1.858-2.9 3.205-5.15 3.761-.48.122-.99.19-1.5.234-.24.022-.48.044-.71.055h-.15c-.56 0-1.1-.066-1.62-.155-.29-.045-.58-.1-.86-.178-2.08-.557-3.84-1.78-4.88-3.505l-16.17-26.903-3.13-5.196-18.46-30.697a6.024 6.024 0 0 1-.65-4.873c-.58.1-1.13.345-1.55.768l-21.57 34.97c-1.46 1.479-.26 3.726 2.01 3.782l36.51 1.38-17.42 30.151c-1.46 1.48-.27 3.727 2 3.783l38.39 1.569-14.6 15.632c-.25.267-.26.545-.13.8h-127.24c.15-.266.12-.555-.17-.834L1506.5-25l36.63-2.047c2.27-.09 3.41-2.36 1.93-3.817l-18.04-29.884 36.49-1.914c2.27-.089 3.41-2.359 1.93-3.816l-22.28-34.646c-.61-.59-1.45-.835-2.25-.779.48 1.546.33 3.204-.49 4.695l-17.15 31.197-2.92 5.296-14.45 26.302c-1.03 1.858-2.9 3.204-5.15 3.76-.48.123-.99.19-1.51.234-.23.023-.47.045-.7.056h-.15c-.56 0-1.1-.067-1.63-.156a7.56 7.56 0 0 1-.85-.178c-2.08-.556-3.84-1.78-4.88-3.505l-16.18-26.902-3.12-5.196-18.46-30.697c-.93-1.535-1.13-3.26-.65-4.873-.58.1-1.13.345-1.55.768l-21.57 34.969c-1.46 1.48-.26 3.727 2.01 3.783l36.51 1.38-17.42 30.15c-1.46 1.48-.27 3.728 2 3.784l38.39 1.569-14.6 15.632c-.25.267-.26.545-.13.8h-142.67c.15-.266.12-.556-.17-.834l-15.48-15.154 36.63-2.047c2.27-.089 3.41-2.358 1.93-3.816l-18.04-29.884 36.49-1.914c2.27-.09 3.41-2.359 1.92-3.816l-22.27-34.647c-.61-.589-1.45-.834-2.25-.779a5.925 5.925 0 0 1-.5 4.696l-17.14 31.197-2.92 5.296-14.45 26.302c-1.03 1.858-2.9 3.204-5.15 3.76-.48.123-.99.19-1.51.234-.23.022-.47.045-.7.056h-.15c-.56 0-1.1-.067-1.63-.156a7.56 7.56 0 0 1-.85-.178c-2.08-.556-3.84-1.78-4.88-3.505l-16.18-26.902-3.12-5.196-18.46-30.697c-.93-1.535-1.13-3.26-.65-4.873-.58.1-1.13.345-1.55.768l-21.57 34.969c-1.46 1.48-.26 3.727 2.01 3.782l36.51 1.38-17.42 30.152c-1.46 1.48-.27 3.727 2 3.783l38.39 1.568-14.6 15.632c-.25.267-.26.545-.13.801h-127.23c.15-.267.12-.556-.17-.834l-15.48-15.154 36.63-2.047c2.27-.089 3.41-2.359 1.93-3.816l-18.04-29.885 36.49-1.913c2.27-.09 3.41-2.359 1.93-3.816l-22.28-34.647c-.6-.59-1.44-.834-2.24-.779a6.008 6.008 0 0 1-.5 4.695l-17.15 31.198-2.91 5.296-14.46 26.302c-1.03 1.858-2.9 3.204-5.14 3.76-.49.123-1 .19-1.51.234-.24.022-.48.044-.71.056h-.15c-.56 0-1.1-.067-1.62-.156-.29-.045-.58-.1-.86-.178-2.08-.556-3.84-1.78-4.88-3.505l-16.17-26.903-3.13-5.195-18.46-30.697a6.023 6.023 0 0 1-.65-4.873c-.58.1-1.13.344-1.55.767l-21.57 34.97c-1.46 1.48-.26 3.727 2.01 3.782l36.51 1.38-17.42 30.151c-1.46 1.48-.26 3.728 2 3.783l38.39 1.569-14.6 15.632c-.25.267-.26.545-.13.801H987.343c.144-.267.118-.556-.171-.834l-15.481-15.154 36.629-2.047c2.27-.09 3.41-2.359 1.93-3.816l-18.04-29.885 36.49-1.913c2.27-.09 3.41-2.36 1.93-3.817l-22.28-34.646c-.61-.59-1.45-.835-2.25-.779.48 1.546.33 3.204-.49 4.695l-17.152 31.198-2.913 5.295-14.458 26.302c-1.023 1.858-2.899 3.205-5.143 3.761-.486.122-.997.19-1.509.234-.236.022-.472.044-.708.055h-.145a9.662 9.662 0 0 1-1.627-.155 7.15 7.15 0 0 1-.852-.178c-2.086-.557-3.845-1.78-4.881-3.505l-16.177-26.903-3.122-5.196-18.46-30.697c-.932-1.535-1.129-3.259-.656-4.873-.577.1-1.129.345-1.548.768l-21.57 34.97c-1.456 1.479-.262 3.726 2.008 3.782l36.513 1.38-17.424 30.151c-1.456 1.48-.262 3.727 2.008 3.783l38.389 1.569L941.58-9.902c-.249.267-.262.545-.131.8h-126.28c.145-.266.118-.555-.17-.834l-15.482-15.153 36.631-2.047c2.27-.09 3.411-2.36 1.929-3.817l-18.04-29.884 36.486-1.914c2.27-.089 3.412-2.358 1.929-3.816l-22.278-34.646c-.603-.59-1.443-.835-2.243-.779a5.969 5.969 0 0 1-.499 4.695L816.285-66.1l-2.913 5.296-14.458 26.302c-1.024 1.858-2.9 3.205-5.143 3.76-.486.123-.998.19-1.509.234-.236.023-.472.045-.709.056h-.144a9.662 9.662 0 0 1-1.627-.156 7.208 7.208 0 0 1-.853-.178c-2.086-.556-3.844-1.78-4.88-3.504l-16.177-26.903-3.123-5.196-18.46-30.697c-.931-1.535-1.128-3.26-.656-4.873-.577.1-1.128.345-1.548.768l-21.569 34.969c-1.456 1.48-.262 3.727 2.007 3.783l36.513 1.38-17.423 30.15c-1.456 1.48-.262 3.728 2.007 3.784l38.389 1.569-14.602 15.632c-.249.267-.262.545-.131.8H642.051c.145-.266.118-.556-.17-.834L626.399-25.11l36.631-2.048c2.27-.089 3.411-2.358 1.929-3.816l-18.04-29.884 36.486-1.914c2.27-.09 3.412-2.359 1.929-3.816l-22.278-34.469c-.603-.589-1.443-.834-2.243-.779a5.97 5.97 0 0 1-.499 4.696l-17.147 31.197-2.913 5.296-14.458 26.302c-1.024 1.858-2.9 3.204-5.143 3.76-.486.123-.997.19-1.509.234-.236.022-.472.045-.709.056h-.144a9.662 9.662 0 0 1-1.627-.156 7.166 7.166 0 0 1-.853-.178c-2.086-.556-3.844-1.78-4.88-3.505l-16.177-26.902-3.123-5.196-18.46-30.697c-.931-1.535-1.128-3.26-.656-4.873-.577.1-1.128.345-1.548.768l-21.569 34.969c-1.456 1.48-.262 3.727 2.007 3.783l36.513 1.38-17.423 30.15c-1.456 1.48-.262 3.728 2.007 3.783l38.389 1.57L596.289-9.77c-.249.267-.263.545-.131.801H452.389c.144-.267.118-.556-.171-.834l-15.481-15.154 36.631-2.047c2.27-.089 3.411-2.359 1.928-3.816l-18.04-29.885 36.487-1.913c2.27-.09 3.411-2.359 1.929-3.816l-22.278-34.647c-.603-.59-1.443-.834-2.244-.779a5.97 5.97 0 0 1-.498 4.695l-17.148 31.198-2.913 5.296-14.458 26.302c-1.023 1.858-2.899 3.204-5.143 3.76a9.47 9.47 0 0 1-1.509.234c-.236.022-.472.044-.708.055h-.144a9.662 9.662 0 0 1-1.627-.155 7.125 7.125 0 0 1-.853-.178c-2.086-.557-3.844-1.78-4.881-3.505L405.091-61.06l-3.122-5.195-18.46-30.697c-.931-1.536-1.128-3.26-.656-4.873-.577.1-1.128.345-1.548.767l-21.569 34.97c-1.457 1.48-.263 3.727 2.007 3.782l36.513 1.38-17.423 30.151c-1.457 1.48-.263 3.728 2.007 3.783l38.389 1.569-14.603 15.632c-.249.267-.262.545-.131.801H279.258c.144-.267.118-.556-.171-.834l-15.481-15.154 36.631-2.047c2.269-.09 3.411-2.359 1.928-3.816l-18.04-29.885 36.487-1.914c2.27-.089 3.411-2.358 1.929-3.816l-22.278-34.646c-.604-.59-1.443-.835-2.244-.779a5.969 5.969 0 0 1-.498 4.695l-17.148 31.198-2.913 5.295-14.458 26.302c-1.023 1.858-2.899 3.205-5.143 3.761-.485.122-.997.19-1.509.234-.236.022-.472.044-.708.055h-.145a9.64 9.64 0 0 1-1.626-.155 7.125 7.125 0 0 1-.853-.178c-2.086-.557-3.844-1.78-4.881-3.505L231.96-61.082l-3.122-5.196-18.46-30.697c-.932-1.535-1.128-3.259-.656-4.873-.577.1-1.128.345-1.548.768l-21.57 34.97c-1.456 1.479-.262 3.726 2.008 3.782l36.513 1.38-17.424 30.151c-1.456 1.48-.262 3.727 2.008 3.783l38.389 1.569-14.603 15.632c-.249.267-.262.545-.131.8H106.14c.144-.266.118-.555-.171-.834L90.488-25l36.631-2.047c2.269-.09 3.411-2.36 1.928-3.817l-18.04-29.884 36.487-1.914c2.27-.089 3.411-2.359 1.928-3.816l-22.277-34.646c-.604-.59-1.443-.835-2.244-.779a5.969 5.969 0 0 1-.498 4.695l-17.148 31.197-2.913 5.296-14.458 26.302c-1.023 1.858-2.9 3.204-5.143 3.76a9.47 9.47 0 0 1-1.509.234 15.07 15.07 0 0 1-.708.056h-.145a9.644 9.644 0 0 1-1.626-.156 7.176 7.176 0 0 1-.853-.178c-2.086-.556-3.844-1.78-4.88-3.505L58.841-61.104 55.72-66.3 37.26-96.997c-.932-1.535-1.128-3.26-.656-4.873-.577.1-1.129.345-1.548.768l-21.57 34.969c-1.456 1.48-.262 3.727 2.008 3.783l36.513 1.38-17.424 30.15c-1.456 1.48-.262 3.728 2.008 3.784l38.389 1.569L60.377-9.836c-.249.267-.262.545-.131.8H-82.407c.144-.266.118-.556-.171-.834l-15.481-15.154 36.63-2.047c2.27-.089 3.412-2.358 1.929-3.816L-77.54-60.77l36.487-1.914c2.27-.09 3.41-2.359 1.928-3.816l-22.277-34.647c-.604-.589-1.444-.834-2.244-.779a5.971 5.971 0 0 1-.498 4.696l-17.148 31.197-2.913 5.296-14.458 26.302c-1.023 1.858-2.9 3.204-5.143 3.76-.486.123-.997.19-1.509.234-.236.022-.472.045-.708.056h-.145a9.662 9.662 0 0 1-1.627-.156 7.15 7.15 0 0 1-.852-.178c-2.086-.556-3.845-1.78-4.881-3.505l-16.177-26.902-3.122-5.196-18.46-30.697c-.932-1.535-1.129-3.26-.656-4.873-.578.1-1.129.345-1.548.768l-21.57 34.969c-1.456 1.48-.262 3.727 2.008 3.782l36.513 1.38-17.424 30.152c-1.456 1.48-.262 3.727 2.008 3.783l38.389 1.568-14.603 15.632c-.249.267-.262.545-.131.801h-127.238c.145-.267.118-.556-.17-.834l-15.482-15.154 36.631-2.047c2.27-.089 3.411-2.359 1.929-3.816l-18.04-29.885 36.487-1.913c2.269-.09 3.411-2.359 1.928-3.816l-22.278-34.647c-.603-.59-1.443-.834-2.243-.779a5.97 5.97 0 0 1-.499 4.695l-17.147 31.198-2.913 5.296-14.458 26.302c-1.024 1.858-2.9 3.204-5.143 3.76-.486.123-.997.19-1.509.234-.236.022-.472.044-.709.056h-.144a9.662 9.662 0 0 1-1.627-.156 7.208 7.208 0 0 1-.853-.178c-2.086-.556-3.844-1.78-4.88-3.505l-16.177-26.903-3.123-5.195-18.459-30.697c-.932-1.536-1.129-3.26-.656-4.873-.578.1-1.129.344-1.549.767l-21.569 34.97c-1.456 1.48-.262 3.727 2.008 3.782l36.512 1.38-17.423 30.151c-1.456 1.48-.262 3.728 2.007 3.783l38.389 1.569-14.602 15.632c-.249.267-.262.545-.131.801H-428.67c.145-.267.118-.556-.17-.834l-15.482-15.154 36.631-2.047c2.27-.09 3.411-2.359 1.929-3.816l-18.04-29.751 36.486-1.914c2.27-.089 3.412-2.359 1.929-3.816l-22.278-34.647c-.603-.589-1.443-.834-2.243-.779a5.97 5.97 0 0 1-.499 4.696l-17.148 31.197-2.912 5.296-14.458 26.302c-1.024 1.858-2.9 3.204-5.143 3.76-.486.123-.998.19-1.509.234-.236.022-.473.045-.709.056h-.144a9.662 9.662 0 0 1-1.627-.156 7.166 7.166 0 0 1-.853-.178c-2.086-.556-3.844-1.78-4.88-3.505l-16.177-26.902-3.123-5.196-18.499-30.686c-.931-1.535-1.128-3.26-.656-4.873-.577.1-1.128.345-1.548.768l-21.569 34.98c-1.457 1.48-.263 3.727 2.007 3.783l36.513 1.38-17.423 30.15c-1.457 1.48-.263 3.728 2.007 3.784l38.389 1.569-14.603 15.632c-.734.778.407 1.68 2.139 1.68h16.767V.679h1.522V85.77h-1.522v9.624h1.916V198.99h43.716a5.958 5.958 0 0 1-.512 4.662l-17.148 31.197-2.913 5.296-14.458 26.302c-1.023 1.869-2.899 3.204-5.143 3.761a9.584 9.584 0 0 1-1.509.233c-.236.022-.472.045-.708.056h-.144a9.651 9.651 0 0 1-1.627-.156 7.01 7.01 0 0 1-.853-.178c-2.086-.556-3.844-1.78-4.881-3.505l-16.177-26.902-3.122-5.196-18.46-30.697c-.931-1.535-1.128-3.26-.656-4.873-.577.1-1.128.345-1.548.768l-21.569 34.969c-1.457 1.479-.263 3.727 2.007 3.783l36.513 1.379-17.423 30.152c-1.457 1.479-.263 3.727 2.007 3.783l38.389 1.568-14.603 15.632c-.734.779.407 1.68 2.139 1.68h16.767v8.745h1.522v85.092h-1.522v9.624h1.916v103.127h-28.654c-2.257 0-4.487.835-5.76 2.426-1.364 1.702-1.509 3.827-.42 5.641l29.835 49.622c1.128 1.88 3.346 3.026 5.825 3.026h.118c2.52-.033 4.75-1.268 5.813-3.204l27.289-49.622c1.207-2.192.63-4.807-1.614-6.531a5.964 5.964 0 0 0-1.731-.89h13.133a5.992 5.992 0 0 1-.63 4.061l-17.148 31.197-2.913 5.296-14.458 26.302c-1.023 1.869-2.899 3.204-5.143 3.761a9.584 9.584 0 0 1-1.509.233c-.236.022-.472.045-.708.056h-.144a9.651 9.651 0 0 1-1.627-.156 7.01 7.01 0 0 1-.853-.178c-2.086-.556-3.844-1.78-4.881-3.505l-16.177-26.903-3.122-5.195-18.46-30.697c-.931-1.535-1.128-3.26-.656-4.873-.577.1-1.128.345-1.548.767l-21.569 34.97c-1.457 1.479-.263 3.727 2.007 3.782l36.513 1.38-17.423 30.152c-1.457 1.479-.263 3.727 2.007 3.783l38.389 1.568-14.603 15.632c-.734.779.407 1.68 2.139 1.68h16.767v8.745h1.522v85.092h-1.522v9.624h1.916v103.595h2636.9v-43.792l-19.68 34.034-19.14-34.034h38.82v-59.814h173.88V592.004h-125.95c.15-.267.12-.556-.17-.834l-15.48-15.154 36.63-2.047c2.27-.089 3.41-2.359 1.93-3.816l-18.04-29.885 36.49-1.913c2.27-.089 3.41-2.359 1.92-3.816l-22.27-34.647c-.61-.59-1.45-.834-2.25-.779a5.923 5.923 0 0 1-.5 4.695l-17.14 31.198-2.92 5.296-14.45 26.302c-1.03 1.869-2.9 3.204-5.15 3.76-.48.123-.99.189-1.51.234-.23.022-.47.045-.7.056h-.15c-.56 0-1.1-.067-1.63-.156a7.79 7.79 0 0 1-.85-.178c-2.08-.556-3.84-1.78-4.88-3.505l-16.18-26.903-3.12-5.195-18.46-30.697a6.058 6.058 0 0 1-.76-4.284h13.23c-1.17.401-2.21 1.057-2.93 1.958-1.36 1.703-1.51 3.828-.42 5.641l29.84 49.622c1.12 1.881 3.34 3.027 5.82 3.027h.12c2.52-.034 4.75-1.269 5.81-3.205l27.29-49.622c1.21-2.191.63-4.806-1.61-6.531-1.24-.934-2.88-1.368-4.53-1.368h-50.89v-43.314l-19.68 34.035-19.14-34.035h38.82v-59.813h173.88v-104.34h-125.96c.15-.267.12-.556-.17-.834l-15.48-15.154 36.63-2.047c2.27-.089 3.41-2.359 1.93-3.816l-18.04-29.885 36.49-1.914c2.27-.089 3.41-2.358 1.93-3.816l-22.28-34.646c-.6-.59-1.44-.835-2.24-.779a6.008 6.008 0 0 1-.5 4.695l-17.15 31.197-2.91 5.296-14.46 26.302c-1.02 1.869-2.9 3.205-5.14 3.761-.49.122-1 .189-1.51.234-.24.022-.47.044-.71.055h-.15c-.56 0-1.1-.067-1.62-.156-.29-.044-.58-.1-.85-.178-2.09-.556-3.85-1.78-4.89-3.504l-16.17-26.903-3.13-5.196-18.46-30.697a6.023 6.023 0 0 1-.65-4.873c-.58.1-1.13.345-1.55.768l-21.57 34.969c-1.45 1.48-.26 3.727 2.01 3.783l36.51 1.379-17.42 30.152c-1.46 1.48-.26 3.727 2.01 3.783l38.38 1.569-14.6 15.632c-.25.267-.26.545-.13.801h-127.24c.15-.267.12-.557-.17-.835l-15.48-15.153 36.63-2.048c2.27-.089 3.41-2.358 1.93-3.816l-18.04-29.884 36.49-1.914c2.27-.089 3.41-2.359 1.93-3.816l-22.28-34.647c-.43-.422-.99-.656-1.56-.745h105.74v-43.792l-19.68 34.035-19.14-34.035h38.82V95.305h193.56V-9.034h-10.4v.089zm-133.14 515.78l-24.71 45.016c-.59 1.068-2.36 1.09-2.99.044l-27.08-44.993c-.56-.935.24-2.048 1.48-2.048l51.79-.022c1.21 0 2.02 1.068 1.51 2.003zM1019.91 140.399l19.14-34.034 19.68 34.034h-38.82zm38.99 14.798l-19.68 34.034-19.14-34.034h38.82zm120.34 43.781a5.98 5.98 0 0 1-.52 4.661l-17.14 31.198-2.92 5.296-14.46 26.302c-1.02 1.869-2.89 3.204-5.14 3.76-.48.123-1 .19-1.51.234-.23.022-.47.045-.71.056h-.14c-.56 0-1.1-.067-1.63-.156-.29-.045-.57-.1-.85-.178-2.09-.556-3.84-1.78-4.88-3.505l-16.18-26.903-3.12-5.195-18.46-30.697c-.93-1.535-1.13-3.26-.66-4.873-.57.1-1.12.345-1.54.767l-21.57 34.97c-1.46 1.479-.26 3.727 2 3.782l36.52 1.38-17.43 30.152c-1.45 1.479-.26 3.727 2.01 3.782l38.39 1.569-14.6 15.632c-.25.267-.26.545-.13.801H987.33c.144-.267.118-.556-.171-.834l-15.482-15.154 36.633-2.047c2.27-.089 3.41-2.359 1.93-3.816l-18.043-29.885 36.483-1.913c2.27-.089 3.41-2.359 1.93-3.817l-22.28-34.646c-.43-.423-.98-.657-1.56-.746h172.47v.023zm-116.09-58.579l19.14-34.034 19.68 34.034h-38.82zm38.99 14.798l-19.68 34.034-19.14-34.034h38.82zm4.25-14.798l19.15-34.034 19.68 34.034h-38.83zm39 14.798l-19.68 34.034-19.15-34.034h38.83zm47.49-14.798l19.14-34.034 19.68 34.034h-38.82zm38.99 14.798l-19.68 34.034-19.14-34.034h38.82zm120.5 43.781c.46 1.535.31 3.171-.52 4.661l-17.14 31.198-2.92 5.296-14.45 26.302c-1.03 1.869-2.9 3.204-5.15 3.76-.48.123-.99.19-1.51.234-.23.022-.47.045-.7.056h-.15c-.56 0-1.1-.067-1.63-.156a7.79 7.79 0 0 1-.85-.178c-2.08-.556-3.84-1.78-4.88-3.505l-16.18-26.903-3.12-5.195-18.46-30.697c-.93-1.535-1.13-3.26-.65-4.873-.58.1-1.13.345-1.55.767l-21.57 34.97c-1.46 1.479-.26 3.727 2.01 3.782l36.51 1.38-17.42 30.152c-1.46 1.479-.27 3.727 2 3.782l38.39 1.569-14.6 15.632c-.25.267-.26.545-.13.801h-127.23c.15-.267.12-.556-.17-.834l-15.48-15.154 36.63-2.047c2.27-.089 3.41-2.359 1.93-3.816l-18.04-29.885 36.49-1.913c2.27-.089 3.41-2.359 1.93-3.817l-22.28-34.646c-.43-.423-.99-.657-1.56-.746h172.45v.023zm-116.23-58.579l19.14-34.034 19.68 34.034h-38.82zm38.98 14.798l-19.68 34.034-19.15-34.034h38.83zm4.26-14.798l19.14-34.034 19.68 34.034h-38.82zm38.98 14.798l-19.68 34.034-19.14-34.034h38.82zm47.51-14.798l19.14-34.034 19.68 34.034h-38.82zm38.99 14.798l-19.68 34.034-19.14-34.034h38.82zm136.07 43.781c.46 1.535.31 3.171-.51 4.661l-17.15 31.198-2.92 5.296-14.45 26.302c-1.03 1.869-2.9 3.204-5.15 3.76-.48.123-.99.19-1.51.234-.23.022-.47.045-.7.056h-.15c-.56 0-1.1-.067-1.63-.156a7.79 7.79 0 0 1-.85-.178c-2.08-.556-3.84-1.78-4.88-3.505l-16.18-26.903-3.12-5.195-18.46-30.697c-.93-1.535-1.13-3.26-.65-4.873-.58.1-1.13.345-1.55.767l-21.57 34.97c-1.46 1.479-.26 3.727 2.01 3.782l36.51 1.38-17.42 30.152c-1.46 1.479-.27 3.727 2 3.782l38.39 1.569-14.6 15.632c-.25.267-.26.545-.13.801h-142.67c.15-.267.12-.556-.17-.834l-15.48-15.154 36.63-2.047c2.27-.089 3.41-2.359 1.93-3.816l-18.04-29.885 36.49-1.913c2.27-.089 3.41-2.359 1.92-3.817l-22.27-34.646c-.44-.423-.99-.657-1.56-.746h187.89v.023zm-131.82-58.579l19.14-34.034 19.68 34.034h-38.82zm38.99 14.798l-19.68 34.034-19.14-34.034h38.82zm4.25-14.798l19.15-34.034 19.68 34.034h-38.83zm39 14.798l-19.68 34.034-19.15-34.034h38.83zm4.25-14.798l19.14-34.034 19.68 34.034h-38.82zm38.99 14.798l-19.68 34.034-19.14-34.034h38.82zm47.51-14.798l19.14-34.034 19.68 34.034h-38.82zm38.98 14.798l-19.68 34.034-19.15-34.034h38.83zm92.96 43.781a5.933 5.933 0 0 1-.51 4.661l-17.14 31.198-2.92 5.296-14.46 26.302c-1.02 1.869-2.9 3.204-5.14 3.76-.48.123-1 .19-1.51.234-.23.022-.47.045-.71.056h-.14c-.56 0-1.1-.067-1.63-.156-.29-.045-.57-.1-.85-.178-2.09-.556-3.84-1.78-4.88-3.505l-16.18-26.903-3.12-5.195-18.46-30.697c-.93-1.535-1.13-3.26-.66-4.873-.57.1-1.12.345-1.54.767l-21.57 34.97c-1.46 1.479-.27 3.727 2 3.782l36.52 1.38-17.43 30.152c-1.45 1.479-.26 3.727 2.01 3.782l38.39 1.569-14.6 15.632c-.25.267-.26.545-.13.801h-127.24c.14-.267.12-.556-.17-.834l-15.48-15.154 36.63-2.047c2.27-.089 3.41-2.359 1.93-3.816l-18.04-29.885 36.48-1.913c2.27-.089 3.41-2.359 1.93-3.817l-22.28-34.646c-.43-.423-.98-.657-1.56-.746h172.46v.023zm-88.7-58.579l19.14-34.034 19.68 34.034h-38.82zm38.98 14.798l-19.68 34.034-19.14-34.034h38.82zm4.26-14.798l19.15-34.045 19.68 34.034h-38.83v.011zm39 14.798l-19.68 34.034-19.15-34.034h38.83zm47.49-14.798l19.14-34.034 19.68 34.034h-38.82zm38.99 14.798l-19.68 34.034-19.14-34.034h38.82zm93.12 43.781c.46 1.535.31 3.171-.52 4.661l-17.14 31.198-2.92 5.296-14.45 26.302c-1.03 1.869-2.9 3.204-5.15 3.76-.48.123-.99.19-1.51.234-.23.022-.47.045-.7.056h-.15c-.56 0-1.1-.067-1.63-.156a7.79 7.79 0 0 1-.85-.178c-2.08-.556-3.84-1.78-4.88-3.505l-16.18-26.903-3.12-5.195-18.46-30.697c-.93-1.535-1.13-3.26-.65-4.873-.58.1-1.13.345-1.55.767l-21.57 34.97c-1.46 1.479-.26 3.727 2.01 3.782l36.51 1.38-17.43 30.152c-1.45 1.479-.26 3.727 2.01 3.782l38.39 1.569-14.6 15.632c-.25.267-.26.545-.13.801h-127.24c.14-.267.12-.556-.17-.834l-15.48-15.154 36.63-2.047c2.27-.089 3.41-2.359 1.93-3.816l-18.04-29.885 36.48-1.913c2.27-.089 3.42-2.359 1.93-3.817l-22.27-34.646c-.44-.423-.99-.657-1.57-.746h172.47v.023zm-88.87-58.579l19.15-34.034 19.68 34.034h-38.83zm39 14.798l-19.68 34.034-19.14-34.034h38.82zm4.25-14.798l19.14-34.034 19.68 34.034h-38.82zm38.99 14.798l-19.68 34.034-19.14-34.034h38.82zm4.25-14.798l19.14-34.034 19.68 34.034h-38.82zm38.99 14.798l-19.68 34.034-19.14-34.034h38.82zm-514.68 285.972l19.14-34.035 19.68 34.035h-38.82zm38.99 14.798l-19.68 34.034-19.14-34.034h38.82zm-62.92 34.045l-19.14-34.034h38.82l-19.68 34.034zm-19.31-48.843l19.14-34.035 19.68 34.035h-38.82zm19.11 58.59c-.5.445-.67 1.123-.3 1.735l16.36 27.214c.68 1.124 2.59 1.102 3.22-.044l14.95-27.214c.33-.601.15-1.257-.34-1.691h32.38a1.62 1.62 0 0 0-.21.178l-21.57 34.969c-1.45 1.479-.26 3.727 2.01 3.782l36.51 1.38-17.42 30.152c-1.46 1.48-.26 3.727 2.01 3.783l38.39 1.568-14.61 15.632c-.25.267-.26.546-.13.801h-142.66c.14-.267.11-.556-.17-.834l-15.49-15.154 36.63-2.047c2.27-.089 3.42-2.359 1.93-3.816l-18.04-29.885 36.49-1.913c2.27-.089 3.41-2.359 1.93-3.816l-22.28-34.647c-.05-.056-.12-.089-.18-.145h30.59v.012zm629.56-58.59l19.15-34.035 19.68 34.035h-38.83zm39 14.798l-19.68 34.034-19.14-34.034h38.82zm22.8 47.853l-17.15 31.197-2.91 5.296-14.46 26.302c-1.02 1.869-2.9 3.204-5.14 3.761-.49.122-1 .189-1.51.233-.24.022-.47.045-.71.056h-.14c-.57 0-1.11-.067-1.64-.156-.29-.044-.58-.1-.86-.178-2.08-.556-3.84-1.78-4.88-3.505l-16.17-26.903-3.13-5.195-18.46-30.697a6.058 6.058 0 0 1-.76-4.284h13.23c-1.17.401-2.21 1.057-2.93 1.959-1.36 1.702-1.51 3.827-.42 5.641l29.84 49.622c1.13 1.88 3.34 3.026 5.82 3.026h.12c2.52-.034 4.75-1.268 5.81-3.204l27.29-49.622c1.21-2.192.63-4.807-1.61-6.531-.51-.39-1.12-.679-1.73-.891h13.13a6.025 6.025 0 0 1-.63 4.073zm146.89 97.797v85.092h-10.15v-85.092h10.15zm-20.58 0v85.092h-10.16v-85.092h10.16zm-20.59 85.092h-10.15v-85.092h10.15v85.092zM866.311 707.715l19.444 33.634h-38.363l18.919-33.634zm19.601 48.432l-19.444 33.634-18.919-33.634h38.363zM-286.712 566.826l-16.177-26.903-3.122-5.195-18.46-30.697a6.017 6.017 0 0 1-.761-4.284h13.225c-1.168.401-2.204 1.057-2.926 1.959-1.364 1.702-1.508 3.827-.42 5.641l29.835 49.622c1.129 1.88 3.346 3.026 5.826 3.026h.118c2.519-.034 4.749-1.268 5.812-3.204l27.289-49.622c1.207-2.192.63-4.807-1.613-6.531a6.01 6.01 0 0 0-1.732-.891h13.133a5.985 5.985 0 0 1-.63 4.061l-17.148 31.198-2.912 5.296-14.459 26.302c-1.023 1.869-2.899 3.204-5.143 3.76a9.59 9.59 0 0 1-1.508.234c-.237.022-.473.045-.709.056h-.144a9.662 9.662 0 0 1-1.627-.156 7.246 7.246 0 0 1-.853-.178c-2.086-.545-3.857-1.769-4.894-3.494zm-81.015-110.859l-19.68 34.034-19.142-34.034h38.822zm-38.993-14.798l19.142-34.035 19.68 34.035h-38.822zm43.401 14.798h38.822l-19.68 34.034-19.142-34.034zm-.158-14.798l19.142-34.035 19.68 34.035h-38.822zm86.487 0l19.142-34.035 19.68 34.035h-38.822zm38.993 14.798l-19.68 34.034-19.142-34.034h38.822zm-15.508 50.868l-24.705 45.016c-.59 1.068-2.361 1.09-2.991.044l-27.08-44.993c-.564-.935.236-2.048 1.483-2.048l51.784-.022c1.22 0 2.034 1.068 1.509 2.003zm-47.416-16.823l-19.142-34.034h38.822l-19.68 34.034zm-19.312-48.843l19.142-34.035 19.68 34.035h-38.822zm216.23 0l19.142-34.035 19.68 34.035h-38.822zm38.993 14.798l-19.68 34.034-19.142-34.034h38.822zm-15.364 50.868l-24.705 45.016c-.59 1.068-2.361 1.09-2.991.044l-27.08-44.993c-.564-.935.236-2.048 1.483-2.048l51.784-.022c1.22 0 2.02 1.068 1.51 2.003zm-47.573-16.823l-19.142-34.034h38.822l-19.68 34.034zm-19.299-48.843l19.142-34.035 19.68 34.035h-38.822zm8.383 58.59c-1.167.4-2.204 1.057-2.925 1.958-1.365 1.702-1.509 3.827-.42 5.641l29.835 49.622c1.128 1.88 3.345 3.026 5.825 3.026h.118c2.519-.033 4.749-1.268 5.812-3.204l27.29-49.622c1.207-2.192.63-4.807-1.614-6.531a5.969 5.969 0 0 0-1.732-.89h13.133a5.987 5.987 0 0 1-.63 4.061l-17.147 31.197-2.913 5.296-14.458 26.302c-1.024 1.869-2.9 3.204-5.143 3.761a9.602 9.602 0 0 1-1.509.233c-.236.022-.472.045-.709.056h-.144a9.662 9.662 0 0 1-1.627-.156 7.09 7.09 0 0 1-.853-.178c-2.086-.556-3.844-1.78-4.88-3.505l-16.177-26.903-3.123-5.195-18.46-30.697a6.012 6.012 0 0 1-.76-4.284h13.211v.012zm140.66-9.747l-19.143-34.034h38.823l-19.68 34.034zm-19.313-48.843l19.142-34.035 19.68 34.035h-38.822zm-23.93 48.843l-19.143-34.034h38.822l-19.68 34.034zm-19.314-48.843l19.143-34.035 19.68 34.035H-60.76zm29.717 58.59c-.498.445-.669 1.123-.302 1.735l16.361 27.214c.682 1.124 2.585 1.102 3.214-.044L3.188 501.45c.328-.601.145-1.257-.34-1.691h32.38a1.431 1.431 0 0 0-.21.178l-21.57 34.969c-1.456 1.479-.262 3.727 2.008 3.782l36.512 1.38-17.423 30.152c-1.456 1.48-.262 3.727 2.007 3.783l38.39 1.568-14.603 15.632c-.25.267-.263.546-.131.801H-82.447c.145-.267.118-.556-.17-.834L-98.1 576.016l36.631-2.047c2.27-.089 3.411-2.359 1.929-3.816l-18.04-29.885 36.486-1.913c2.27-.089 3.412-2.359 1.929-3.816l-22.278-34.647c-.052-.056-.118-.089-.183-.145h30.582v.012zm100.014-58.59l19.142-34.035 19.68 34.035H68.971zm38.992 14.798l-19.68 34.034-19.142-34.034h38.822zm133.995-14.798l19.142-34.035 19.68 34.035h-38.822zm38.992 14.798l-19.68 34.034-19.142-34.034h38.822zm133.981-14.798l19.142-34.035 19.68 34.035h-38.822zm38.993 14.798l-19.68 34.034-19.142-34.034h38.822zm66.807 34.045l-19.142-34.034h38.822l-19.68 34.034zm-19.3-48.843l19.142-34.035 19.68 34.035h-38.822zm2.336 58.59c-.499.445-.669 1.123-.302 1.735l16.361 27.214c.682 1.124 2.584 1.102 3.214-.044l14.957-27.214c.328-.601.144-1.257-.341-1.691h33.495a1.442 1.442 0 0 0-.21.178l-21.569 34.969c-1.457 1.479-.263 3.727 2.007 3.782l36.513 1.38-17.423 30.152c-1.457 1.48-.263 3.727 2.007 3.783l38.389 1.568-14.602 15.632c-.25.267-.263.546-.132.801H452.363c.144-.267.118-.556-.171-.834l-15.481-15.154 36.631-2.047c2.269-.089 3.411-2.359 1.928-3.816l-18.04-29.885 36.487-1.913c2.27-.089 3.411-2.359 1.929-3.816l-22.278-34.647c-.053-.056-.118-.089-.184-.145h30.583v.012zm-736.411-229.775l-18.04-29.885 36.486-1.913c2.27-.089 3.412-2.359 1.929-3.816l-22.278-34.647c-.433-.423-.984-.656-1.561-.745h172.449a5.952 5.952 0 0 1-.512 4.661l-17.147 31.198-2.913 5.296-14.458 26.302c-1.024 1.869-2.9 3.204-5.143 3.76-.486.123-.997.19-1.509.234-.236.022-.472.045-.709.056h-.144a9.662 9.662 0 0 1-1.627-.156 7.289 7.289 0 0 1-.853-.178c-2.086-.556-3.844-1.78-4.88-3.505l-16.177-26.903-3.123-5.195-18.46-30.697c-.931-1.535-1.128-3.26-.656-4.873-.577.1-1.128.345-1.548.767l-21.569 34.97c-1.456 1.479-.262 3.727 2.007 3.782l36.513 1.38-17.423 30.152c-1.456 1.479-.262 3.727 2.007 3.782l38.389 1.569-14.602 15.632c-.249.267-.263.545-.131.801h-127.238c.144-.267.118-.556-.17-.834l-15.482-15.154 36.631-2.047c2.283-.067 3.424-2.337 1.942-3.794zm-1.102-129.585l19.142-34.034 19.68 34.034h-38.822zm38.992 14.798l-19.68 34.034-19.142-34.034h38.822zm4.264-14.798l19.142-34.034 19.68 34.034h-38.822zm38.98 14.798l-19.68 34.034-19.142-34.034h38.822zm4.264-14.798l19.142-34.034 19.68 34.034h-38.822zm38.979 14.798l-19.68 34.034-19.142-34.034h38.822zm4.264-14.798l19.142-34.034 19.68 34.034h-38.822zm38.993 14.798l-19.68 34.034-19.142-34.034h38.822zm4.25-14.798l19.143-34.034 19.68 34.034H-60.76zm38.993 14.798l-19.68 34.034-19.142-34.034h38.822zm146.655 43.781a5.95 5.95 0 0 1-.512 4.661l-17.147 31.198-2.913 5.296-14.458 26.302c-1.024 1.869-2.9 3.204-5.143 3.76a9.48 9.48 0 0 1-1.509.234c-.236.022-.472.045-.709.056h-.144a9.657 9.657 0 0 1-1.627-.156 7.239 7.239 0 0 1-.852-.178c-2.087-.556-3.845-1.78-4.881-3.505l-16.177-26.903-3.123-5.195-18.46-30.697c-.93-1.535-1.128-3.26-.655-4.873-.578.1-1.129.345-1.549.767l-21.569 34.97c-1.456 1.479-.262 3.727 2.008 3.782l36.513 1.38-17.424 30.152c-1.456 1.479-.262 3.727 2.008 3.782l38.389 1.569-14.603 15.632c-.25.267-.262.545-.131.801H-82.434c.145-.267.118-.556-.17-.834l-15.482-15.154 36.631-2.047c2.27-.089 3.411-2.359 1.929-3.816l-18.04-29.885 36.486-1.913c2.27-.089 3.412-2.359 1.93-3.817l-22.279-34.646c-.433-.423-.984-.657-1.56-.746h187.877v.023zm-142.404-58.579l19.142-34.034 19.68 34.034h-38.822zm38.992 14.798l-19.68 34.034-19.142-34.034h38.823zm4.251-14.798l19.142-34.034 19.68 34.034H25.727zm38.993 14.798l-19.68 34.034-19.142-34.034H64.72zm4.25-14.798l19.143-34.034 19.68 34.034H68.971zm38.993 14.798l-19.68 34.034-19.142-34.034h38.822zm47.508-14.798l19.142-34.034 19.68 34.034h-38.822zm38.979 14.798l-19.68 34.034-19.142-34.034h38.822zm103.569 43.781a5.95 5.95 0 0 1-.511 4.661l-17.148 31.198-2.913 5.296-14.458 26.302c-1.023 1.869-2.899 3.204-5.143 3.76a9.47 9.47 0 0 1-1.509.234c-.236.022-.472.045-.708.056h-.145a9.662 9.662 0 0 1-1.627-.156 7.23 7.23 0 0 1-.852-.178c-2.086-.556-3.844-1.78-4.881-3.505l-16.177-26.903-3.122-5.195-18.46-30.697c-.932-1.535-1.128-3.26-.656-4.873-.577.1-1.128.345-1.548.767l-21.57 34.97c-1.456 1.479-.262 3.727 2.008 3.782l36.513 1.38-17.424 30.152c-1.456 1.479-.262 3.727 2.008 3.782l38.389 1.569-14.603 15.632c-.249.267-.262.545-.131.801H106.127c.144-.267.118-.556-.171-.834l-15.482-15.154 36.631-2.047c2.27-.089 3.412-2.359 1.929-3.816l-18.04-29.885 36.487-1.913c2.27-.089 3.411-2.359 1.928-3.817l-22.277-34.646c-.433-.423-.984-.657-1.562-.746h172.449v.023zm-99.305-58.579l19.142-34.034 19.68 34.034h-38.822zm38.98 14.798l-19.68 34.034-19.142-34.034h38.822zm4.264-14.798l19.142-34.034 19.68 34.034h-38.822zm38.992 14.798l-19.68 34.034-19.142-34.034h38.822zm47.495-14.798l19.142-34.034 19.68 34.034h-38.822zm38.992 14.798l-19.68 34.034-19.142-34.034h38.822zm103.713 43.781a5.95 5.95 0 0 1-.511 4.661l-17.148 31.198-2.913 5.296-14.458 26.302c-1.023 1.869-2.899 3.204-5.143 3.76a9.47 9.47 0 0 1-1.509.234c-.236.022-.472.045-.708.056h-.144a9.641 9.641 0 0 1-1.627-.156 7.204 7.204 0 0 1-.853-.178c-2.086-.556-3.844-1.78-4.881-3.505l-16.177-26.903-3.122-5.195-18.46-30.697c-.932-1.535-1.128-3.26-.656-4.873-.577.1-1.128.345-1.548.767l-21.569 34.97c-1.457 1.479-.263 3.727 2.007 3.782l36.513 1.38-17.423 30.152c-1.457 1.479-.263 3.727 2.007 3.782l38.389 1.569-14.603 15.632c-.249.267-.262.545-.131.801H279.245c.144-.267.118-.556-.171-.834l-15.481-15.154 36.631-2.047c2.269-.089 3.411-2.359 1.928-3.816l-18.04-29.885 36.487-1.913c2.27-.089 3.411-2.359 1.928-3.817l-22.277-34.646c-.433-.423-.984-.657-1.562-.746H471.15v.023zm-99.462-58.579l19.142-34.034 19.68 34.034h-38.822zm38.993 14.798l-19.68 34.034-19.142-34.034h38.822zm4.25-14.798l19.142-34.034 19.68 34.034h-38.822zm38.993 14.798l-19.68 34.034-19.142-34.034h38.822zm47.507-14.798l19.142-34.034 19.68 34.034h-38.822zm38.98 14.798l-19.68 34.034-19.142-34.034h38.822zm120.402 43.781a5.95 5.95 0 0 1-.512 4.661l-17.148 31.198-2.912 5.296-14.458 26.302c-1.024 1.869-2.9 3.204-5.144 3.76-.485.123-.997.19-1.508.234-.236.022-.473.045-.709.056h-.144a9.662 9.662 0 0 1-1.627-.156 7.246 7.246 0 0 1-.853-.178c-2.086-.556-3.844-1.78-4.88-3.505l-16.177-26.903-3.123-5.195-18.46-30.697c-.931-1.535-1.128-3.26-.656-4.873-.577.1-1.128.345-1.548.767l-21.569 34.97c-1.456 1.479-.262 3.727 2.007 3.782l36.513 1.38-17.423 30.152c-1.456 1.479-.263 3.727 2.007 3.782l38.389 1.569-14.602 15.632c-.25.267-.263.545-.131.801H452.376c.144-.267.118-.556-.171-.834l-15.481-15.154 36.631-2.047c2.269-.089 3.411-2.359 1.928-3.816l-18.04-29.885 36.487-1.913c2.27-.089 3.411-2.359 1.929-3.817l-22.278-34.646c-.433-.423-.984-.657-1.561-.746h188.993v.023zm-116.138-58.579l19.142-34.034 19.68 34.034h-38.822zm38.979 14.798l-19.68 34.034-19.142-34.034h38.822zm4.264-14.798l19.142-34.034 19.68 34.034h-38.822zm38.993 14.798l-19.68 34.034-19.142-34.034h38.822zm47.494-14.798l19.142-34.034 19.68 34.034h-38.822zm38.993 14.798l-19.68 34.034-19.142-34.034h38.822zm120.546 43.781a5.95 5.95 0 0 1-.512 4.661l-17.147 31.198-2.913 5.296-14.458 26.302c-1.024 1.869-2.9 3.204-5.143 3.76-.486.123-.998.19-1.509.234-.236.022-.472.045-.709.056h-.144a9.662 9.662 0 0 1-1.627-.156 7.289 7.289 0 0 1-.853-.178c-2.086-.556-3.844-1.78-4.88-3.505l-16.177-26.903-3.123-5.195-18.46-30.697c-.931-1.535-1.128-3.26-.656-4.873-.577.1-1.128.345-1.548.767l-21.569 34.97c-1.456 1.479-.262 3.727 2.007 3.782l36.513 1.38-17.423 30.152c-1.456 1.479-.262 3.727 2.007 3.782l38.389 1.569-14.602 15.632c-.249.267-.262.545-.131.801H642.051c.145-.267.118-.556-.17-.834l-15.482-15.154 36.631-2.047c2.27-.089 3.411-2.359 1.929-3.816l-18.04-29.885 36.486-1.913c2.27-.089 3.412-2.359 1.929-3.817l-22.278-34.624c-.433-.423-.984-.656-1.561-.745h172.449zm-116.295-58.579l19.142-34.034 19.68 34.034h-38.822zm38.992 14.798l-19.68 34.034-19.142-34.034h38.822zm4.251-14.798l19.142-34.034 19.68 34.034h-38.822zm38.993 14.798l-19.68 34.034-19.142-34.034h38.822zm4.25-14.798l19.142-34.034 19.68 34.034h-38.822zm38.993 14.798l-19.68 34.034-19.142-34.034h38.822zM1842.58 386.54v-85.092h10.16v85.092h-10.16zm-10.42-85.092v85.092h-10.15v-85.092h10.15zm-20.58 85.092h-10.16v-85.092h10.16v85.092zm-20.59 0h-10.15v-85.092h10.15v85.092zm-20.58 0h-10.16v-85.092h10.16v85.092zm-20.59 0h-10.15v-85.092h10.15v85.092zm-20.57 0h-10.15v-85.092h10.15v85.092zm-20.58 0h-10.16v-85.092h10.16v85.092zm-20.59 0h-10.15v-85.092h10.15v85.092zm-20.58-85.092v85.092h-10.16v-85.092h10.16zm-20.59 85.092h-10.15v-85.092h10.15v85.092zm-20.57 0h-10.16v-85.092h10.16v85.092zm-20.59 0h-10.15v-85.092h10.15v85.092zm-20.58 0h-10.16v-85.092h10.16v85.092zm-20.59 0h-10.15v-85.092h10.15v85.092zm-20.58 0h-10.16v-85.092H1544v85.092zm-20.58 0h-10.15v-85.092h10.15v85.092zm-20.58-85.092v85.092h-10.16v-85.092h10.16zm-20.59 0v85.092h-10.15v-85.092h10.15zm-20.58 85.092h-10.16v-85.092h10.16v85.092zm-20.59 0h-10.15v-85.092h10.15v85.092zm-20.57 0h-10.15v-85.092h10.15v85.092zm-20.58 0h-10.16v-85.092h10.16v85.092zm-20.59 0h-10.15v-85.092h10.15v85.092zm-20.58 0h-10.16v-85.092h10.16v85.092zm-20.59 0h-10.15v-85.092h10.15v85.092zm-20.57-85.092v85.092h-10.16v-85.092h10.16zm-20.59 0v85.092h-10.15v-85.092h10.15zm-20.58 85.092h-10.16v-85.092h10.16v85.092zm-20.59 0h-10.15v-85.092h10.15v85.092zm-20.58 0h-10.16v-85.092h10.16v85.092zm-20.57 0h-10.16v-85.092h10.16v85.092zm-20.59 0h-10.15v-85.092h10.15v85.092zm-20.58 0h-10.16v-85.092h10.16v85.092zm-20.59 0h-10.15v-85.092h10.15v85.092zm-20.59-85.092v85.092h-10.15v-85.092h10.15zm-20.57 85.092h-10.15v-85.092h10.15v85.092zm-20.58 0h-10.16v-85.092h10.16v85.092zm-20.59 0h-10.15v-85.092h10.15v85.092zm-20.58 0h-10.16v-85.092h10.16v85.092zm-20.59 0h-10.15v-85.092h10.15v85.092zm-20.57 0h-10.156v-85.092h10.156v85.092zm-20.586 0h-10.155v-85.092h10.155v85.092zm-30.74-85.092h10.155v85.092h-10.155v-85.092zm-11.939 0v85.092H935.44v-85.092h10.155zm43.807 205.387l-24.704 45.016c-.591 1.068-2.362 1.09-2.992.044l-27.079-44.993c-.565-.935.236-2.048 1.482-2.048l51.785-.022c1.22 0 2.02 1.068 1.508 2.003zm-61.834.523l29.835 49.622c1.128 1.88 3.346 3.026 5.825 3.026h.118c2.519-.033 4.75-1.268 5.812-3.204l27.29-49.622c1.207-2.192.63-4.807-1.614-6.531a5.957 5.957 0 0 0-1.732-.89h13.138a6.05 6.05 0 0 1-.63 4.061l-17.152 31.197-2.913 5.296-14.458 26.302c-1.023 1.869-2.899 3.204-5.143 3.761a9.602 9.602 0 0 1-1.509.233c-.236.022-.472.045-.708.056h-.145a9.662 9.662 0 0 1-1.627-.156 7.033 7.033 0 0 1-.852-.178c-2.086-.556-3.845-1.78-4.881-3.505l-16.177-26.903-3.122-5.195-18.46-30.697a6.007 6.007 0 0 1-.761-4.284h13.225c-1.168.401-2.204 1.057-2.926 1.959-1.378 1.702-1.522 3.838-.433 5.652zM2027.84 686.709v-85.092h10.15v85.092h-10.15zm-10.44-85.092v85.092h-10.15v-85.092h10.15zm-20.58 85.092h-10.16v-85.092h10.16v85.092zm-20.59 0h-10.15v-85.092h10.15v85.092zm-20.58 0h-10.16v-85.092h10.16v85.092zm-20.57 0h-10.16v-85.092h10.16v85.092zm-20.59 0h-10.15v-85.092h10.15v85.092zm-20.58 0h-10.16v-85.092h10.16v85.092zm-20.59 0h-10.15v-85.092h10.15v85.092zm-20.58-85.092v85.092h-10.16v-85.092h10.16zm-20.58 0v85.092h-10.15v-85.092h10.15zm-20.58 85.092h-10.16v-85.092h10.16v85.092zm-20.59 0h-10.15v-85.092h10.15v85.092zm-20.58 0h-10.16v-85.092h10.16v85.092zm-20.59 0h-10.15v-85.092h10.15v85.092zm-20.57 0h-10.15v-85.092h10.15v85.092zm-20.58 0h-10.16v-85.092h10.16v85.092zm-20.59 0h-10.15v-85.092h10.15v85.092zm-20.58-85.092v85.092h-10.16v-85.092h10.16zm-20.59 85.092h-10.15v-85.092h10.15v85.092zm-20.57 0h-10.16v-85.092h10.16v85.092zm-20.59 0h-10.15v-85.092h10.15v85.092zm-20.58 0h-10.16v-85.092h10.16v85.092zm-20.59 0h-10.15v-85.092h10.15v85.092zm-20.58 0h-10.16v-85.092H1544v85.092zm-20.58 0h-10.15v-85.092h10.15v85.092zm-20.58-85.092v85.092h-10.16v-85.092h10.16zm-20.59 0v85.092h-10.15v-85.092h10.15zm-20.58 85.092h-10.16v-85.092h10.16v85.092zm-20.59 0h-10.15v-85.092h10.15v85.092zm-20.57 0h-10.15v-85.092h10.15v85.092zm-20.58 0h-10.16v-85.092h10.16v85.092zm-20.59 0h-10.15v-85.092h10.15v85.092zm-20.58 0h-10.16v-85.092h10.16v85.092zm-20.59 0h-10.15v-85.092h10.15v85.092zm-20.57-85.092v85.092h-10.16v-85.092h10.16zm-20.59 0v85.092h-10.15v-85.092h10.15zm-20.58 85.092h-10.16v-85.092h10.16v85.092zm-20.59 0h-10.15v-85.092h10.15v85.092zm-20.58 0h-10.16v-85.092h10.16v85.092zm-20.57 0h-10.16v-85.092h10.16v85.092zm-20.59 0h-10.15v-85.092h10.15v85.092zm-20.58 0h-10.16v-85.092h10.16v85.092zm-20.59 0h-10.15v-85.092h10.15v85.092zm-20.59-85.092v85.092h-10.15v-85.092h10.15zm-20.57 85.092h-10.15v-85.092h10.15v85.092zm-20.58 0h-10.16v-85.092h10.16v85.092zm-20.59 0h-10.15v-85.092h10.15v85.092zm-20.58 0h-10.16v-85.092h10.16v85.092zm-20.59 0h-10.15v-85.092h10.15v85.092zm-20.57 0h-10.156v-85.092h10.156v85.092zm-20.586 0h-10.155v-85.092h10.155v85.092zm-1257.051-85.092v85.092h-10.154v-85.092h10.154zm10.418 0h10.155v85.092h-10.155v-85.092zm20.585 0h10.155v85.092h-10.155v-85.092zm20.585 0h10.155v85.092h-10.155v-85.092zm20.585 0h10.155v85.092h-10.155v-85.092zm20.572 0h10.155v85.092h-10.155v-85.092zm20.586 0h10.155v85.092h-10.155v-85.092zm20.585 0h10.155v85.092h-10.155v-85.092zm20.585 0h10.155v85.092h-10.155v-85.092zm20.585 0h10.155v85.092H-93.69v-85.092zm20.573 0h10.154v85.092h-10.154v-85.092zm20.585 0h10.155v85.092h-10.155v-85.092zm20.585 0h10.155v85.092h-10.155v-85.092zm20.585 0h10.155v85.092h-10.155v-85.092zm20.585 0h10.155v85.092H9.222v-85.092zm20.573 0h10.154v85.092H29.796v-85.092zm20.585 0h10.155v85.092H50.38v-85.092zm20.585 0H81.12v85.092H70.965v-85.092zm20.585 0h10.155v85.092H91.55v-85.092zm20.585 0h10.155v85.092h-10.155v-85.092zm20.573 0h10.154v85.092h-10.154v-85.092zm20.585 0h10.155v85.092h-10.155v-85.092zm20.585 0h10.155v85.092h-10.155v-85.092zm20.585 0h10.155v85.092h-10.155v-85.092zm20.586 0h10.154v85.092h-10.154v-85.092zm20.572 0h10.155v85.092h-10.155v-85.092zm20.585 0h10.155v85.092h-10.155v-85.092zm20.585 0h10.155v85.092h-10.155v-85.092zm20.586 0h10.154v85.092h-10.154v-85.092zm20.585 0h10.155v85.092h-10.155v-85.092zm20.572 0h10.155v85.092h-10.155v-85.092zm20.585 0h10.155v85.092h-10.155v-85.092zm20.585 0h10.155v85.092h-10.155v-85.092zm20.585 0h10.155v85.092h-10.155v-85.092zm20.586 0h10.155v85.092h-10.155v-85.092zm20.572 0h10.155v85.092h-10.155v-85.092zm20.585 0h10.155v85.092h-10.155v-85.092zm20.585 0h10.155v85.092h-10.155v-85.092zm20.586 0h10.155v85.092h-10.155v-85.092zm20.585 0h10.155v85.092h-10.155v-85.092zm20.572 0h10.155v85.092H544.36v-85.092zm20.585 0H575.1v85.092h-10.155v-85.092zm20.585 0h10.155v85.092H585.53v-85.092zm20.586 0h10.155v85.092h-10.155v-85.092zm20.585 0h10.155v85.092h-10.155v-85.092zm20.572 0h10.155v85.092h-10.155v-85.092zm20.585 0h10.155v85.092h-10.155v-85.092zm20.585 0h10.155v85.092h-10.155v-85.092zm20.586 0h10.155v85.092h-10.155v-85.092zm20.585 0h10.155v85.092h-10.155v-85.092zm20.572 0h10.155v85.092h-10.155v-85.092zm20.585 0h10.155v85.092h-10.155v-85.092zm20.586 0h10.154v85.092h-10.154v-85.092zm20.585 0h10.155v85.092h-10.155v-85.092zm20.585 0h10.155v85.092h-10.155v-85.092zm82.328 85.092v-85.092h10.155v85.092h-10.155zm-10.431 0H894.27v-85.092h10.154v85.092zm-20.585 0h-10.155v-85.092h10.155v85.092zm-20.572 0h-10.155v-85.092h10.155v85.092zm72.173-85.092h10.155v85.092H935.44v-85.092zm22.094 0h10.155v85.092h-10.155v-85.092zm-48.058-111.605l-19.143-34.034h38.823l-19.68 34.034zm-43.165-82.477l19.444 33.634h-38.363l18.919-33.634zm.157 82.066l-18.919-33.634h38.363l-19.444 33.634zm23.708-48.432l19.142-34.035 19.68 34.035h-38.822zm34.834-54.629h-10.155v-85.092h10.155v85.092zm-20.586 0H894.27v-85.092h10.154v85.092zm-20.585 0h-10.155v-85.092h10.155v85.092zm-20.572 0h-10.155v-85.092h10.155v85.092zm-20.585 0h-10.155v-85.092h10.155v85.092zm-20.585 0h-10.155v-85.092h10.155v85.092zm-1090.874-85.092v85.092h-10.154v-85.092h10.154zm10.418 0h10.155v85.092h-10.155v-85.092zm20.585 0h10.155v85.092h-10.155v-85.092zm20.585 0h10.155v85.092h-10.155v-85.092zm20.585 0h10.155v85.092h-10.155v-85.092zm20.572 0h10.155v85.092h-10.155v-85.092zm20.586 0h10.155v85.092h-10.155v-85.092zm20.585 0h10.155v85.092h-10.155v-85.092zm20.585 0h10.155v85.092h-10.155v-85.092zm20.585 0h10.155v85.092H-93.69v-85.092zm20.573 0h10.154v85.092h-10.154v-85.092zm20.585 0h10.155v85.092h-10.155v-85.092zm20.585 0h10.155v85.092h-10.155v-85.092zm20.585 0h10.155v85.092h-10.155v-85.092zm20.585 0h10.155v85.092H9.222v-85.092zm20.573 0h10.154v85.092H29.796v-85.092zm20.585 0h10.155v85.092H50.38v-85.092zm20.585 0H81.12v85.092H70.965v-85.092zm20.585 0h10.155v85.092H91.55v-85.092zm20.585 0h10.155v85.092h-10.155v-85.092zm20.573 0h10.154v85.092h-10.154v-85.092zm20.585 0h10.155v85.092h-10.155v-85.092zm20.585 0h10.155v85.092h-10.155v-85.092zm20.585 0h10.155v85.092h-10.155v-85.092zm20.586 0h10.154v85.092h-10.154v-85.092zm20.572 0h10.155v85.092h-10.155v-85.092zm20.585 0h10.155v85.092h-10.155v-85.092zm20.585 0h10.155v85.092h-10.155v-85.092zm20.586 0h10.154v85.092h-10.154v-85.092zm20.585 0h10.155v85.092h-10.155v-85.092zm20.572 0h10.155v85.092h-10.155v-85.092zm20.585 0h10.155v85.092h-10.155v-85.092zm20.585 0h10.155v85.092h-10.155v-85.092zm20.585 0h10.155v85.092h-10.155v-85.092zm20.586 0h10.155v85.092h-10.155v-85.092zm20.572 0h10.155v85.092h-10.155v-85.092zm20.585 0h10.155v85.092h-10.155v-85.092zm20.585 0h10.155v85.092h-10.155v-85.092zm20.586 0h10.155v85.092h-10.155v-85.092zm20.585 0h10.155v85.092h-10.155v-85.092zm20.572 0h10.155v85.092H544.36v-85.092zm20.585 0H575.1v85.092h-10.155v-85.092zm20.585 0h10.155v85.092H585.53v-85.092zm20.586 0h10.155v85.092h-10.155v-85.092zm20.585 0h10.155v85.092h-10.155v-85.092zm20.572 0h10.155v85.092h-10.155v-85.092zm20.585 0h10.155v85.092h-10.155v-85.092zm20.585 0h10.155v85.092h-10.155v-85.092zm20.586 0h10.155v85.092h-10.155v-85.092zm20.585 0h10.155v85.092h-10.155v-85.092zm20.572 0h10.155v85.092h-10.155v-85.092zm20.585 0h10.155v85.092h-10.155v-85.092zm20.586 0h10.154v85.092h-10.154v-85.092zM650.474 189.231l-19.142-34.034h38.822l-19.68 34.034zm-19.312-48.832l19.142-34.034 19.68 34.034h-38.822zm-153.675 48.832l-19.142-34.034h38.822l-19.68 34.034zm-19.312-48.832l19.142-34.034 19.68 34.034h-38.822zm-153.661 48.832l-19.142-34.034h38.822l-19.68 34.034zm-19.313-48.832l19.142-34.034 19.68 34.034h-38.822zm-153.674 48.832l-19.142-34.034h38.822l-19.68 34.034zm-19.313-48.832l19.142-34.034 19.68 34.034h-38.822zm-401.576 161.049v85.092h-10.155v-85.092h10.155zm-20.585 85.092h-10.155v-85.092h10.155v85.092zm-20.585 0h-10.155v-85.092h10.155v85.092zm-20.586 0h-10.154v-85.092h10.154v85.092zm-20.572 0h-10.155v-85.092h10.155v85.092zm-20.585 0h-10.155v-85.092h10.155v85.092zm-20.585 0h-10.155v-85.092h10.155v85.092zM857.783 499.759c-.499.445-.669 1.123-.302 1.735l16.361 27.214c.682 1.124 2.584 1.102 3.214-.044l14.957-27.214c.328-.601.144-1.257-.341-1.691h24.77a1.497 1.497 0 0 0-.21.178l-21.569 34.969c-1.456 1.479-.262 3.727 2.008 3.782l36.512 1.38-17.423 30.152c-1.456 1.48-.262 3.727 2.007 3.783l38.389 1.568-14.602 15.632c-.249.267-.262.546-.131.801h-126.28c.144-.267.118-.556-.17-.834l-15.482-15.154 36.631-2.047c2.27-.089 3.411-2.359 1.929-3.816l-18.04-29.885 36.486-1.913c2.27-.089 3.411-2.359 1.929-3.816l-22.278-34.647c-.052-.056-.118-.089-.184-.145h21.819v.012zm-34.335-9.747l-19.142-34.034h38.822l-19.68 34.034zm-19.313-48.843l19.142-34.035 19.68 34.035h-38.822zm13.094 65.666l-24.705 45.016c-.59 1.068-2.361 1.09-2.991.044l-27.08-44.993c-.564-.935.236-2.048 1.483-2.048l51.784-.022c1.221 0 2.021 1.068 1.509 2.003zm-37.024-16.823l-19.142-34.034h38.822l-19.68 34.034zm-19.313-48.843l19.142-34.035 19.68 34.035h-38.822zm-5.497 66.189l29.834 49.622c1.129 1.88 3.346 3.026 5.826 3.026h.118c2.519-.033 4.749-1.268 5.812-3.204l27.29-49.622c1.207-2.192.629-4.807-1.614-6.531a5.97 5.97 0 0 0-1.732-.89h13.133a5.986 5.986 0 0 1-.63 4.061l-17.147 31.197-2.913 5.296-14.458 26.302c-1.024 1.869-2.9 3.204-5.143 3.761a9.62 9.62 0 0 1-1.509.233c-.236.022-.472.045-.709.056h-.144a9.662 9.662 0 0 1-1.627-.156 7.09 7.09 0 0 1-.853-.178c-2.086-.556-3.844-1.78-4.88-3.505l-16.177-26.903-3.123-5.195-18.46-30.697a6.017 6.017 0 0 1-.761-4.284h13.225c-1.167.401-2.204 1.057-2.925 1.959-1.365 1.702-1.522 3.838-.433 5.652zm-18.434-17.346l-19.142-34.034h38.822l-19.68 34.034zm-19.312-48.843l19.142-34.035 19.68 34.035h-38.822zm-23.931 48.843l-19.142-34.034h38.822l-19.68 34.034zm-19.313-48.843l19.142-34.035 19.68 34.035h-38.822zm11.454 58.59c-.499.445-.669 1.123-.302 1.735l16.361 27.214c.682 1.124 2.584 1.102 3.214-.044l14.957-27.214c.328-.601.144-1.257-.341-1.691h24.521a1.442 1.442 0 0 0-.21.178l-21.569 34.969c-1.457 1.479-.263 3.727 2.007 3.782l36.513 1.38-17.423 30.152c-1.457 1.48-.263 3.727 2.007 3.783l38.389 1.568-14.602 15.632c-.25.267-.263.546-.132.801H642.025c.144-.267.118-.556-.171-.834l-15.481-15.154 36.631-2.047c2.27-.089 3.411-2.359 1.928-3.816l-18.039-29.885 36.486-1.913c2.27-.089 3.411-2.359 1.929-3.816l-22.252-34.647c-.052-.056-.118-.089-.183-.145h22.986v.012zm-35.385-9.747l-19.142-34.034h38.822l-19.68 34.034zm-19.312-48.843l19.142-34.035 19.68 34.035h-38.822zm12.949 65.666l-24.705 45.016c-.59 1.068-2.361 1.09-2.991.044l-27.08-44.993c-.564-.935.236-2.048 1.483-2.048l51.784-.022c1.207 0 2.021 1.068 1.509 2.003zm-36.88-16.823l-19.142-34.034h38.822l-19.68 34.034zm-19.313-48.843l19.142-34.035 19.68 34.035h-38.822zm-5.654 66.189l29.834 49.622c1.129 1.88 3.346 3.026 5.826 3.026h.118c2.519-.033 4.749-1.268 5.812-3.204l27.289-49.622c1.207-2.192.63-4.807-1.613-6.531a5.97 5.97 0 0 0-1.732-.89h13.133a5.986 5.986 0 0 1-.63 4.061l-17.148 31.197-2.912 5.296-14.458 26.302c-1.024 1.869-2.9 3.204-5.144 3.761a9.59 9.59 0 0 1-1.508.233c-.236.022-.473.045-.709.056h-.144a9.662 9.662 0 0 1-1.627-.156 7.05 7.05 0 0 1-.853-.178c-2.086-.556-3.844-1.78-4.88-3.505l-16.177-26.903-3.123-5.195-18.46-30.697a6.017 6.017 0 0 1-.761-4.284h13.225c-1.167.401-2.204 1.057-2.925 1.959-1.365 1.702-1.522 3.838-.433 5.652zm-18.29-17.346l-19.142-34.034h38.822l-19.68 34.034zm-19.299-48.843l19.142-34.035 19.68 34.035h-38.822zm-67.188 48.843l-19.142-34.034h38.822l-19.68 34.034zm-19.312-48.843l19.142-34.035 19.68 34.035h-38.822zm13.094 58.59a5.992 5.992 0 0 1-.63 4.061l-17.148 31.197-2.913 5.296-14.458 26.302c-1.023 1.869-2.899 3.204-5.143 3.761a9.584 9.584 0 0 1-1.509.233c-.236.022-.472.045-.708.056h-.144a9.641 9.641 0 0 1-1.627-.156 7.01 7.01 0 0 1-.853-.178c-2.086-.556-3.844-1.78-4.881-3.505l-16.177-26.903-3.122-5.195-18.46-30.697a6.012 6.012 0 0 1-.761-4.284h13.225c-1.168.401-2.204 1.057-2.926 1.959-1.364 1.702-1.509 3.827-.42 5.641l29.835 49.622c1.128 1.88 3.346 3.026 5.825 3.026h.119c2.519-.034 4.749-1.268 5.812-3.204l27.289-49.622c1.207-2.192.63-4.807-1.614-6.531a5.991 5.991 0 0 0-1.731-.891h13.12v.012zm-16.833 7.076l-24.705 45.016c-.591 1.068-2.362 1.09-2.992.044l-27.079-44.993c-.564-.935.236-2.048 1.482-2.048l51.785-.022c1.22 0 2.02 1.068 1.509 2.003zm-63.435-16.823l-19.142-34.034h38.822l-19.68 34.034zm-19.313-48.843l19.142-34.035 19.68 34.035h-38.822zm9.801 58.59a1.39 1.39 0 0 0-.21.178l-21.57 34.969c-1.456 1.479-.262 3.727 2.008 3.782l36.513 1.38-17.424 30.152c-1.456 1.48-.262 3.727 2.008 3.783l38.389 1.568-14.603 15.632c-.249.267-.262.546-.131.801H279.232c.144-.267.118-.556-.171-.834l-15.482-15.154 36.631-2.047c2.27-.089 3.412-2.359 1.929-3.816l-18.04-29.885 36.487-1.913c2.269-.089 3.411-2.359 1.928-3.816l-22.277-34.647c-.053-.056-.118-.089-.184-.145h21.779c-.499.445-.669 1.124-.302 1.736l16.361 27.214c.682 1.124 2.585 1.102 3.214-.044l14.957-27.214c.328-.601.144-1.258-.341-1.692h25.768v.012zm-33.732-9.747l-19.142-34.034h38.822l-19.68 34.034zm-19.312-48.843l19.142-34.035 19.68 34.035h-38.822zm-23.931 48.843l-19.142-34.034h38.822l-19.68 34.034zm-19.313-48.843l19.142-34.035 19.68 34.035h-38.822zm12.936 58.59a5.986 5.986 0 0 1-.629 4.061l-17.148 31.197-2.913 5.296-14.458 26.302c-1.023 1.869-2.899 3.204-5.143 3.761a9.584 9.584 0 0 1-1.509.233c-.236.022-.472.045-.708.056h-.145a9.662 9.662 0 0 1-1.627-.156 7.033 7.033 0 0 1-.852-.178c-2.086-.556-3.844-1.78-4.881-3.505l-16.177-26.903-3.122-5.195-18.46-30.697a6.007 6.007 0 0 1-.761-4.284h13.225c-1.168.401-2.204 1.057-2.926 1.959-1.364 1.702-1.509 3.827-.42 5.641l29.835 49.622c1.128 1.88 3.346 3.026 5.825 3.026h.118c2.519-.034 4.75-1.268 5.812-3.204l27.29-49.622c1.207-2.192.63-4.807-1.614-6.531a5.984 5.984 0 0 0-1.732-.891h13.12v.012zm-16.832 7.076L256.6 551.851c-.591 1.068-2.362 1.09-2.992.044l-27.079-44.993c-.565-.935.236-2.048 1.482-2.048l51.785-.022c1.22 0 2.033 1.068 1.509 2.003zm-63.291-16.823l-19.142-34.034h38.822l-19.68 34.034zm-19.3-48.843l19.142-34.035 19.68 34.035h-38.822zm9.643 58.59a1.433 1.433 0 0 0-.209.178l-21.57 34.969c-1.456 1.479-.262 3.727 2.008 3.782l36.513 1.38-17.424 30.152c-1.456 1.48-.262 3.727 2.008 3.783l38.389 1.568-14.603 15.632c-.249.267-.262.546-.131.801H106.113c.145-.267.119-.556-.17-.834l-15.482-15.154 36.631-2.047c2.27-.089 3.411-2.359 1.929-3.816l-18.04-29.885 36.487-1.913c2.269-.089 3.411-2.359 1.928-3.816l-22.277-34.647c-.053-.056-.119-.089-.184-.145h22.986c-.498.445-.669 1.124-.302 1.736l16.361 27.214c.682 1.124 2.585 1.102 3.214-.044l14.957-27.214c.328-.601.144-1.258-.341-1.692h24.547v.012zm-33.587-9.747l-19.142-34.034h38.822l-19.68 34.034zm-19.299-48.843l19.142-34.035 19.68 34.035h-38.822zm-23.944 48.843l-19.142-34.034h38.822l-19.68 34.034zm-19.313-48.843l19.142-34.035 19.68 34.035h-38.822zm12.805 58.59a5.986 5.986 0 0 1-.629 4.061l-17.148 31.197-2.913 5.296-14.458 26.302c-1.023 1.869-2.9 3.204-5.143 3.761a9.595 9.595 0 0 1-1.509.233c-.236.022-.472.045-.708.056h-.145a9.656 9.656 0 0 1-1.627-.156 7.04 7.04 0 0 1-.852-.178c-2.086-.556-3.844-1.78-4.881-3.505l-16.177-26.903-3.123-5.195-18.46-30.697a6.012 6.012 0 0 1-.76-4.284H49.71c-1.168.401-2.204 1.057-2.926 1.959-1.364 1.702-1.509 3.827-.42 5.641L76.2 556.969c1.128 1.88 3.346 3.026 5.825 3.026h.118c2.52-.034 4.75-1.268 5.812-3.204l27.29-49.622c1.207-2.192.63-4.807-1.614-6.531a5.984 5.984 0 0 0-1.732-.891h13.12v.012zm-16.833 7.076l-24.705 45.016c-.59 1.068-2.361 1.09-2.99.044l-27.08-44.993c-.565-.935.236-2.048 1.482-2.048l51.785-.022c1.207 0 2.02 1.068 1.508 2.003zM45.04 490.012l-19.142-34.034H64.72l-19.68 34.034zm-19.313-48.843l19.142-34.035 19.68 34.035H25.727zm-196.917 48.843l-19.142-34.034h38.822l-19.68 34.034zm-19.3-48.843l19.142-34.035 19.68 34.035h-38.822zm-23.944 48.843l-19.142-34.034h38.822l-19.68 34.034zm-19.312-48.843l19.142-34.035 19.68 34.035h-38.822zm20.795 58.59c-.499.445-.669 1.123-.302 1.735l16.361 27.214c.682 1.124 2.584 1.102 3.214-.044l14.957-27.214c.328-.601.144-1.257-.341-1.691h25.728a1.442 1.442 0 0 0-.21.178l-21.569 34.969c-1.456 1.479-.263 3.727 2.007 3.782l36.513 1.38-17.423 30.152c-1.457 1.48-.263 3.727 2.007 3.783l38.389 1.568-14.602 15.632c-.25.267-.263.546-.132.801h-127.237c.144-.267.118-.556-.171-.834l-15.481-15.154 36.631-2.047c2.27-.089 3.411-2.359 1.928-3.816l-18.04-29.885 36.487-1.913c2.27-.089 3.411-2.359 1.929-3.816l-22.278-34.647c-.052-.056-.118-.089-.184-.145h21.819v.012zm-76.411 101.858v85.092h-10.155v-85.092h10.155zm-20.585 85.092h-10.155v-85.092h10.155v85.092zm-20.585 0h-10.155v-85.092h10.155v85.092zm-20.586 0h-10.154v-85.092h10.154v85.092zm-20.572 0h-10.155v-85.092h10.155v85.092zm-20.585 0h-10.155v-85.092h10.155v85.092zm-20.585 0h-10.155v-85.092h10.155v85.092zm2574.34 0h-10.16v-85.092h10.16v85.092zm-20.58 0h-10.15v-85.092h10.15v85.092zm-20.58 0h-10.16v-85.092h10.16v85.092zm-20.59 0h-10.15v-85.092h10.15v85.092zm-20.58 0h-10.16v-85.092h10.16v85.092zm-20.59 0h-10.15v-85.092h10.15v85.092zm1.58-179.874l-24.71 45.016c-.59 1.068-2.36 1.09-2.99.044l-27.08-44.993c-.56-.935.24-2.048 1.48-2.048l51.79-.022c1.22 0 2.02 1.068 1.51 2.003zm-2.19-50.868h38.82l-19.68 34.034-19.14-34.034zm-.16-14.798l19.14-34.035 19.68 34.035h-38.82zm-67.19 48.843l-19.14-34.034h38.82l-19.68 34.034zm-19.3-48.843l19.14-34.035 19.68 34.035h-38.82zm15.89 58.59a1.62 1.62 0 0 0-.21.178l-21.57 34.969c-1.46 1.479-.26 3.727 2.01 3.782l36.51 1.38-17.42 30.152c-1.46 1.48-.27 3.727 2 3.783l38.39 1.568-14.6 15.632c-.25.267-.26.546-.13.801h-143.78c.14-.267.12-.556-.17-.834l-15.48-15.154 36.63-2.047c2.27-.089 3.41-2.359 1.93-3.816l-18.04-29.885 36.48-1.913c2.27-.089 3.41-2.359 1.93-3.816l-22.28-34.647c-.05-.056-.11-.089-.18-.145h30.56c-.5.445-.67 1.124-.31 1.736l16.36 27.214c.69 1.124 2.59 1.102 3.22-.044l14.96-27.214c.32-.601.14-1.258-.35-1.692h33.54v.012zm-39.83-9.747l-19.14-34.034h38.82l-19.68 34.034zm-19.3-48.843l19.14-34.035 19.68 34.035h-38.82zm-23.95 48.843l-19.14-34.034h38.82l-19.68 34.034zm-19.31-48.843l19.14-34.035 19.68 34.035h-38.82zm2.49 58.59c.27 1.357.08 2.77-.63 4.061l-17.14 31.197-2.92 5.296-14.45 26.302c-1.03 1.869-2.9 3.204-5.15 3.761-.48.122-.99.189-1.51.233-.23.022-.47.045-.7.056h-.15c-.56 0-1.1-.067-1.63-.156a7.56 7.56 0 0 1-.85-.178c-2.08-.556-3.84-1.78-4.88-3.505l-16.18-26.903-3.12-5.195-18.46-30.697a6.007 6.007 0 0 1-.76-4.284h13.23c-1.17.401-2.21 1.057-2.93 1.959-1.36 1.702-1.51 3.827-.42 5.641l29.83 49.622c1.13 1.88 3.35 3.026 5.83 3.026h.12c2.52-.034 4.75-1.268 5.81-3.204l27.29-49.622c1.21-2.192.63-4.807-1.61-6.531a6.146 6.146 0 0 0-1.74-.891h13.12v.012zm-16.82 7.076l-24.7 45.016c-.59 1.068-2.36 1.09-2.99.044l-27.08-44.993c-.57-.935.23-2.048 1.48-2.048l51.79-.022c1.2 0 2.02 1.068 1.5 2.003zm-28.91-65.666l19.14-34.035 19.68 34.035h-38.82zm38.99 14.798l-19.68 34.034-19.14-34.034h38.82zm-62.92 34.045l-19.14-34.034h38.82l-19.68 34.034zm-19.32-48.843l19.15-34.035 19.68 34.035h-38.83zm-20.57 97.519l36.52 1.38-17.43 30.152c-1.45 1.48-.26 3.727 2.01 3.783l38.39 1.568-14.6 15.632c-.25.267-.27.546-.14.801h-127.23c.14-.267.12-.556-.17-.834l-15.49-15.154 36.64-2.047c2.27-.089 3.41-2.359 1.92-3.816l-18.04-29.885 36.49-1.913c2.27-.089 3.41-2.359 1.93-3.816l-22.28-34.647c-.05-.056-.12-.089-.18-.145h21.78c-.5.445-.67 1.124-.3 1.736l16.36 27.214c.68 1.124 2.58 1.102 3.21-.044l14.96-27.214c.33-.601.14-1.258-.34-1.692h25.72c-.07.056-.14.112-.21.178l-21.56 34.97c-1.41 1.49-.23 3.738 2.04 3.793zm-3.36-48.676l-19.14-34.034h38.82l-19.68 34.034zm-19.31-48.843l19.14-34.035 19.68 34.035h-38.82zm-23.93 48.843L1712 455.978h38.82l-19.68 34.034zm-19.31-48.843l19.14-34.035 19.68 34.035h-38.82zm2.35 58.59a6.05 6.05 0 0 1-.63 4.061l-17.15 31.197-2.91 5.296-14.46 26.302c-1.03 1.869-2.9 3.204-5.15 3.761-.48.122-.99.189-1.5.233-.24.022-.48.045-.71.056h-.15c-.56 0-1.1-.067-1.62-.156-.29-.044-.58-.1-.86-.178-2.08-.556-3.84-1.78-4.88-3.505l-16.17-26.903-3.13-5.195-18.46-30.697a6.058 6.058 0 0 1-.76-4.284h13.23c-1.17.401-2.21 1.057-2.93 1.959-1.36 1.702-1.51 3.827-.42 5.641l29.84 49.622c1.12 1.88 3.34 3.026 5.82 3.026h.12c2.52-.034 4.75-1.268 5.81-3.204l27.29-49.622c1.21-2.192.63-4.807-1.61-6.531a5.96 5.96 0 0 0-1.73-.891h13.12v.012zm-16.84 7.076l-24.7 45.016c-.59 1.068-2.36 1.09-2.99.044l-27.08-44.993c-.57-.935.23-2.048 1.48-2.048l51.78-.022c1.22 0 2.02 1.068 1.51 2.003zm-28.76-65.666l19.15-34.035 19.68 34.035h-38.83zm39 14.798l-19.68 34.034-19.15-34.034h38.83zm-62.94 34.045l-19.14-34.034h38.82l-19.68 34.034zm-19.3-48.843l19.14-34.035 19.68 34.035h-38.82zm-20.73 97.519l36.51 1.38-17.42 30.152c-1.46 1.48-.26 3.727 2.01 3.783l38.39 1.568-14.61 15.632c-.24.267-.26.546-.13.801h-127.23c.14-.267.11-.556-.17-.834l-15.49-15.154 36.63-2.047c2.27-.089 3.42-2.359 1.93-3.816l-18.04-29.885 36.49-1.913c2.27-.089 3.41-2.359 1.93-3.816l-22.28-34.647c-.05-.056-.12-.089-.18-.145h22.98c-.49.445-.67 1.124-.3 1.736l16.36 27.214c.68 1.124 2.59 1.102 3.22-.044l14.95-27.214c.33-.601.15-1.258-.34-1.692h24.52c-.08.056-.14.112-.21.178l-21.57 34.97c-1.4 1.49-.21 3.738 2.05 3.793zm-3.21-48.676l-19.15-34.034h38.83l-19.68 34.034zm-19.3-48.843l19.14-34.035 19.68 34.035h-38.82zm-23.95 48.843l-19.14-34.034h38.82l-19.68 34.034zm-19.31-48.843l19.14-34.035 19.68 34.035h-38.82zm2.2 58.59c.27 1.357.08 2.77-.62 4.061l-17.15 31.197-2.92 5.296-14.45 26.302c-1.03 1.869-2.9 3.204-5.15 3.761-.48.122-.99.189-1.51.233-.23.022-.47.045-.7.056h-.15c-.56 0-1.1-.067-1.63-.156a7.56 7.56 0 0 1-.85-.178c-2.08-.556-3.84-1.78-4.88-3.505l-16.18-26.903-3.12-5.195-18.46-30.697a6.058 6.058 0 0 1-.76-4.284h13.23c-1.17.401-2.21 1.057-2.93 1.959-1.36 1.702-1.51 3.827-.42 5.641l29.84 49.622c1.12 1.88 3.34 3.026 5.82 3.026h.12c2.52-.034 4.75-1.268 5.81-3.204l27.29-49.622c1.21-2.192.63-4.807-1.61-6.531-.51-.39-1.11-.679-1.74-.891h13.12v.012zm-16.83 7.076l-24.7 45.016c-.59 1.068-2.36 1.09-2.99.044l-27.08-44.993c-.57-.935.23-2.048 1.48-2.048l51.78-.022c1.22 0 2.02 1.068 1.51 2.003zm-28.61-65.666l19.14-34.035 19.68 34.035h-38.82zm38.99 14.798l-19.68 34.034-19.14-34.034h38.82zm-62.92 34.045l-19.15-34.034h38.83l-19.68 34.034zm-19.32-48.843l19.15-34.035 19.68 34.035h-38.83zm-110.41 48.843l-19.15-34.034h38.83l-19.68 34.034zm-19.32-48.843l19.15-34.035 19.68 34.035h-38.83zm13.04 65.666l-24.7 45.016c-.59 1.068-2.36 1.09-2.99.044l-27.08-44.993c-.57-.935.24-2.048 1.48-2.048l51.79-.022c1.2 0 2.02 1.068 1.5 2.003zm-36.98-16.823l-19.14-34.034h38.82l-19.68 34.034zm-19.3-48.843l19.14-34.035 19.68 34.035h-38.82zm-5.56 66.189l29.83 49.622c1.13 1.88 3.35 3.026 5.83 3.026h.12c2.51-.033 4.74-1.268 5.81-3.204l27.29-49.622c1.2-2.192.63-4.807-1.62-6.531-.51-.39-1.1-.679-1.73-.89h13.13c.27 1.357.08 2.77-.63 4.061l-17.14 31.197-2.92 5.296-14.45 26.302c-1.03 1.869-2.9 3.204-5.15 3.761-.48.122-.99.189-1.51.233-.23.022-.47.045-.7.056h-.15c-.56 0-1.1-.067-1.63-.156a7.56 7.56 0 0 1-.85-.178c-2.08-.556-3.84-1.78-4.88-3.505l-16.18-26.903-3.12-5.195-18.46-30.697a6.058 6.058 0 0 1-.76-4.284h13.23c-1.17.401-2.21 1.057-2.93 1.959-1.36 1.702-1.52 3.838-.43 5.652zm-18.38-17.346l-19.15-34.034h38.83l-19.68 34.034zm-19.3-48.843l19.14-34.035 19.68 34.035h-38.82zm-23.95 48.843l-19.14-34.034h38.82l-19.68 34.034zm-19.31-48.843l19.14-34.035 19.68 34.035h-38.82zm10.21 58.59c-.5.445-.67 1.123-.3 1.735l16.36 27.214c.68 1.124 2.58 1.102 3.21-.044l14.96-27.214c.33-.601.14-1.257-.34-1.691h25.72a2.76 2.76 0 0 0-.21.178l-21.56 34.969c-1.46 1.479-.27 3.727 2 3.782l36.52 1.38-17.43 30.152c-1.45 1.48-.26 3.727 2.01 3.783l38.39 1.568-14.6 15.632c-.25.267-.27.546-.13.801h-127.23c.14-.267.12-.556-.17-.834l-15.48-15.154 36.63-2.047c2.27-.089 3.41-2.359 1.93-3.816l-18.04-29.885 36.48-1.913c2.27-.089 3.42-2.359 1.93-3.816l-22.27-34.647c-.06-.056-.12-.089-.19-.145h21.81v.012zm-34.14-9.747l-19.14-34.034h38.82l-19.68 34.034zm-19.31-48.843l19.14-34.035 19.68 34.035h-38.82zm12.89 65.666l-24.7 45.016c-.59 1.068-2.36 1.09-2.99.044l-27.08-44.993c-.57-.935.23-2.048 1.48-2.048l51.78-.022c1.23 0 2.03 1.068 1.51 2.003zm-36.82-16.823l-19.15-34.034h38.83l-19.68 34.034zm-19.32-48.843l19.15-34.035 19.68 34.035h-38.83zm-5.69 66.189l29.83 49.622c1.13 1.88 3.35 3.026 5.83 3.026h.12c2.52-.033 4.75-1.268 5.81-3.204l27.29-49.622c1.21-2.192.63-4.807-1.61-6.531a6.118 6.118 0 0 0-1.74-.89h13.14c.26 1.357.08 2.77-.63 4.061l-17.15 31.197-2.91 5.296-14.46 26.302c-1.03 1.869-2.9 3.204-5.14 3.761-.49.122-1 .189-1.51.233-.24.022-.48.045-.71.056h-.15c-.56 0-1.1-.067-1.62-.156-.29-.044-.58-.1-.86-.178-2.08-.556-3.84-1.78-4.88-3.505l-16.17-26.903-3.13-5.195-18.46-30.697a6.058 6.058 0 0 1-.76-4.284h13.23c-1.17.401-2.21 1.057-2.93 1.959-1.38 1.702-1.53 3.838-.43 5.652zm-18.24-17.346l-19.14-34.034h38.82l-19.68 34.034zm-19.31-48.843l19.14-34.035 19.68 34.035h-38.82zm-23.93 48.843l-19.14-34.034h38.82l-19.68 34.034zm-19.31-48.843l19.14-34.035 19.68 34.035h-38.82zm11.25 58.59c-.5.445-.67 1.123-.3 1.735l16.36 27.214c.68 1.124 2.59 1.102 3.22-.044l14.95-27.214c.33-.601.15-1.257-.32-1.691h24.52c-.08.055-.15.111-.21.178l-21.57 34.969c-1.46 1.479-.26 3.727 2 3.782l36.52 1.38-17.43 30.152c-1.45 1.48-.26 3.727 2.01 3.783l38.39 1.568-14.6 15.632c-.25.267-.26.546-.13.801H987.33c.144-.267.118-.556-.171-.834l-15.482-15.154 36.633-2.047c2.27-.089 3.41-2.359 1.93-3.816l-18.043-29.885 36.483-1.913c2.27-.089 3.41-2.359 1.93-3.816l-22.28-34.647c-.05-.056-.11-.089-.18-.145h23.01v.012zm-35.184-9.747l-19.142-34.034h38.826l-19.684 34.034zm-19.313-48.843l19.142-34.035 19.675 34.035h-38.817zm-23.944 48.843l-19.142-34.034h38.822l-19.68 34.034zm-19.3-48.843l19.143-34.035 19.68 34.035h-38.823zM2027.84 386.54v-85.092h10.15v85.092h-10.15zm-10.44-85.092v85.092h-10.15v-85.092h10.15zm-20.58 85.092h-10.16v-85.092h10.16v85.092zm-20.59 0h-10.15v-85.092h10.15v85.092zm-20.58 0h-10.16v-85.092h10.16v85.092zm-20.57 0h-10.16v-85.092h10.16v85.092zm-20.59 0h-10.15v-85.092h10.15v85.092zm-20.58 0h-10.16v-85.092h10.16v85.092zm-20.59 0h-10.15v-85.092h10.15v85.092zm-142.18-197.309L1712 155.197h38.82l-19.68 34.034zm-19.31-48.832l19.14-34.034 19.68 34.034h-38.82zm-153.68 48.832l-19.14-34.034h38.82l-19.68 34.034zm-19.31-48.832l19.14-34.034 19.68 34.034h-38.82zm-196.9 48.832l-19.15-34.034h38.83l-19.68 34.034zm-19.32-48.832l19.15-34.034 19.68 34.034h-38.83zm-153.67 48.832l-19.14-34.034h38.82l-19.68 34.034zm-19.31-48.832l19.14-34.034 19.68 34.034h-38.82zm-153.664 48.832l-19.142-34.034h38.826l-19.684 34.034zm-19.313-48.832l19.142-34.034 19.675 34.034h-38.817zm29.457 58.579c.46 1.535.31 3.171-.51 4.661l-17.152 31.198-2.913 5.296-14.458 26.302c-1.023 1.869-2.899 3.204-5.143 3.76-.486.123-.997.19-1.509.234-.236.022-.472.045-.708.056h-.145a9.662 9.662 0 0 1-1.627-.156 7.23 7.23 0 0 1-.852-.178c-2.086-.556-3.845-1.78-4.881-3.505l-16.177-26.903-3.122-5.195-18.46-30.697c-.932-1.535-1.129-3.26-.656-4.873-.577.1-1.129.345-1.548.767l-21.57 34.97c-1.456 1.479-.262 3.727 2.008 3.782l36.513 1.38-17.424 30.152c-1.456 1.479-.262 3.727 2.008 3.782l38.389 1.569-14.603 15.632c-.249.267-.262.545-.131.801h-126.28c.145-.267.118-.556-.17-.834l-15.482-15.154 36.631-2.047c2.27-.089 3.411-2.359 1.929-3.816l-18.04-29.885 36.486-1.913c2.27-.089 3.412-2.359 1.929-3.817l-22.278-34.646c-.433-.423-.984-.657-1.561-.746h171.507v.023zm-76.964-43.781l-19.68 34.034-19.143-34.034h38.823zm-38.98-14.798l19.142-34.034 19.68 34.034h-38.822zm-23.865-33.645l19.444 33.634h-38.363l18.919-33.634zm-18.762 48.443h38.363l-19.444 33.634-18.919-33.634zm105.17 34.034l-19.142-34.034h38.822l-19.68 34.034zm-19.3-48.832l19.143-34.034 19.68 34.034h-38.823zM2171 .668h10.16v85.091H2171V.668zm-20.57 0h10.15v85.091h-10.15V.668zm-20.59 0H2140v85.091h-10.16V.668zm-20.58 0h10.15v85.091h-10.15V.668zm-20.59 0h10.16v85.091h-10.16V.668zm-20.58 0h10.15v85.091h-10.15V.668zm-20.57 0h10.15v85.091h-10.15V.668zm-20.59 0h10.15v85.091h-10.15V.668zm-20.59 0h10.16v85.091h-10.16V.668zm-20.58 0h10.15v85.091h-10.15V.668zm-20.59 0h10.16v85.091h-10.16V.668zm-20.57 0h10.16v85.091h-10.16V.668zm-20.58 0h10.15v85.091h-10.15V.668zm-20.59 0h10.16v85.091h-10.16V.668zm-20.58 0H1893v85.091h-10.15V.668zm-20.59 0h10.16v85.091h-10.16V.668zm-20.57 0h10.15v85.091h-10.15V.668zm-20.59 0h10.16v85.091h-10.16V.668zm-20.58 0h10.15v85.091h-10.15V.668zm-20.59 0h10.16v85.091h-10.16V.668zm-20.58 0h10.15v85.091h-10.15V.668zm-20.57 0h10.15v85.091h-10.15V.668zm-20.59 0h10.16v85.091h-10.16V.668zm-20.58 0h10.15v85.091h-10.15V.668zm-20.59 0h10.16v85.091h-10.16V.668zm-20.58 0h10.15v85.091h-10.15V.668zm-20.58 0h10.16v85.091h-10.16V.668zm-20.58 0h10.15v85.091h-10.15V.668zm-20.59 0h10.16v85.091h-10.16V.668zm-20.58 0h10.15v85.091h-10.15V.668zm-20.59 0h10.16v85.091h-10.16V.668zm-20.57 0h10.15v85.091h-10.15V.668zm-20.59 0h10.16v85.091h-10.16V.668zm-20.58 0h10.15v85.091h-10.15V.668zm-20.59 0h10.16v85.091h-10.16V.668zm-20.58 0h10.15v85.091h-10.15V.668zm-20.57 0h10.15v85.091h-10.15V.668zm-20.59 0h10.16v85.091h-10.16V.668zm-20.58 0h10.15v85.091h-10.15V.668zm-20.59 0h10.16v85.091h-10.16V.668zm-20.58 0h10.15v85.091h-10.15V.668zm-20.58 0h10.16v85.091h-10.16V.668zm-20.58 0h10.15v85.091h-10.15V.668zm-20.59 0h10.16v85.091h-10.16V.668zm-20.58 0h10.15v85.091h-10.15V.668zm-20.59 0h10.16v85.091h-10.16V.668zm-20.57 0h10.16v85.091h-10.16V.668zm-20.58 0h10.15v85.091h-10.15V.668zm-20.59 0h10.15v85.091h-10.15V.668zm-20.59 0h10.16v85.091h-10.16V.668zm-20.58 0h10.15v85.091h-10.15V.668zm-20.57 0h10.15v85.091h-10.15V.668zm-20.59 0h10.16v85.091h-10.16V.668zm-20.58 0h10.15v85.091h-10.15V.668zm-20.59 0h10.16v85.091h-10.16V.668zm-20.58 0h10.15v85.091h-10.15V.668zm-20.58 0h10.16v85.091h-10.16V.668zm-20.581 0h10.151v85.091h-10.151V.668zm-20.585 0h10.155v85.091h-10.155V.668zm-21.202 0h10.772v85.091h-10.772V.668zm-20.572 0h10.155v85.091H935.44V.668zm-20.585 0h10.155v85.091h-10.155V.668zm-20.585 0h10.154v85.091H894.27V.668zm-20.586 0h10.155v85.091h-10.155V.668zm-20.585 0h10.155v85.091h-10.155V.668zm-20.572 0h10.155v85.091h-10.155V.668zm-20.585 0h10.155v85.091h-10.155V.668zm-20.585 0h10.154v85.091h-10.154V.668zm-20.586 0h10.155v85.091h-10.155V.668zm-20.585 0h10.155v85.091h-10.155V.668zm-20.572 0h10.155v85.091h-10.155V.668zm-20.585 0h10.155v85.091h-10.155V.668zm-20.586 0h10.155v85.091h-10.155V.668zm-20.585 0h10.155v85.091h-10.155V.668zm-20.585 0h10.155v85.091h-10.155V.668zm-20.572 0h10.155v85.091h-10.155V.668zm-20.585 0h10.155v85.091h-10.155V.668zm-20.586 0h10.155v85.091H585.53V.668zm-20.585 0H575.1v85.091h-10.155V.668zm-20.585 0h10.155v85.091H544.36V.668zm-20.572 0h10.155v85.091h-10.155V.668zm-20.585 0h10.155v85.091h-10.155V.668zm-20.586 0h10.155v85.091h-10.155V.668zm-20.585 0h10.155v85.091h-10.155V.668zm-20.585 0h10.155v85.091h-10.155V.668zm-20.572 0h10.155v85.091h-10.155V.668zm-20.586 0h10.155v85.091h-10.155V.668zm-20.585 0h10.155v85.091h-10.155V.668zm-20.585 0h10.155v85.091h-10.155V.668zm-20.585 0h10.155v85.091h-10.155V.668zm-20.572 0h10.155v85.091h-10.155V.668zm-20.585 0h10.154v85.091h-10.154V.668zm-20.586 0h10.155v85.091h-10.155V.668zm-20.585 0h10.155v85.091h-10.155V.668zm-20.585 0h10.155v85.091h-10.155V.668zm-20.572 0h10.154v85.091h-10.154V.668zm-20.586 0h10.155v85.091h-10.155V.668zm-20.585 0h10.155v85.091h-10.155V.668zm-20.585 0h10.155v85.091h-10.155V.668zm-20.585 0h10.154v85.091h-10.154V.668zm-20.573 0h10.155v85.091h-10.155V.668zm-20.585 0h10.155v85.091H91.55V.668zm-20.585 0H81.12v85.091H70.965V.668zm-20.585 0h10.155v85.091H50.38V.668zm-20.585 0h10.154v85.091H29.796V.668zm-20.573 0h10.155v85.091H9.222V.668zm-20.585 0h10.155v85.091h-10.155V.668zm-20.585 0h10.155v85.091h-10.155V.668zm-20.585 0h10.155v85.091h-10.155V.668zm-20.585 0h10.154v85.091h-10.154V.668zm-20.573 0h10.155v85.091H-93.69V.668zm-20.585 0h10.155v85.091h-10.155V.668zm-20.585 0h10.155v85.091h-10.155V.668zm-20.585 0h10.155v85.091h-10.155V.668zm-20.586 0h10.155v85.091h-10.155V.668zm-20.572 0h10.155v85.091h-10.155V.668zm-20.585 0h10.155v85.091h-10.155V.668zm-20.585 0h10.155v85.091h-10.155V.668zm-20.585 0h10.155v85.091h-10.155V.668zm-20.586 0h10.155v85.091h-10.155V.668zm-20.572 0h10.155v85.091h-10.155V.668zm-20.585 0h10.155v85.091h-10.155V.668zm-20.585 0h10.155v85.091h-10.155V.668zm-20.585 0h10.154v85.091h-10.154V.668zm-20.586 0h10.155v85.091h-10.155V.668zm-20.572 0h10.155v85.091h-10.155V.668zm-20.585 0h10.155v85.091h-10.155V.668zm-20.585 0h10.155v85.091H-443.6V.668zm205.603 154.529l-19.68 34.034-19.142-34.034h38.822zm-38.993-14.798l19.142-34.034 19.68 34.034h-38.822zm-4.251 14.798l-19.68 34.034-19.142-34.034h38.822zm-38.992-14.798l19.142-34.034 19.68 34.034h-38.822zm-4.251 14.798l-19.68 34.034-19.142-34.034h38.822zm-38.993-14.798l19.142-34.034 19.68 34.034h-38.822zm-4.25 14.798l-19.68 34.034-19.142-34.034h38.822zm-38.993-14.798l19.142-34.034 19.68 34.034h-38.822zm-24.101-34.045l19.68 34.034h-38.822l19.142-34.034zm.17 82.877l-19.142-34.034h38.822l-19.68 34.034zm22.96 84.569c2.27-.089 3.411-2.359 1.929-3.816l-18.04-29.885 36.486-1.913c2.27-.089 3.412-2.359 1.929-3.816l-22.278-34.647c-.433-.423-.984-.656-1.561-.745h172.449a5.95 5.95 0 0 1-.512 4.661l-17.147 31.198-2.913 5.296-14.458 26.302c-1.024 1.869-2.9 3.204-5.143 3.76-.486.123-.997.19-1.509.234-.236.022-.472.045-.709.056h-.144a9.662 9.662 0 0 1-1.627-.156 7.289 7.289 0 0 1-.853-.178c-2.086-.556-3.844-1.78-4.88-3.505l-16.177-26.903-3.123-5.195-18.46-30.697c-.931-1.535-1.128-3.26-.656-4.873-.577.1-1.128.345-1.548.767l-21.569 34.97c-1.456 1.479-.262 3.727 2.007 3.782l36.513 1.38-17.423 30.152c-1.456 1.479-.262 3.727 2.007 3.782l38.389 1.569-14.602 15.632c-.249.267-.263.545-.131.801H-428.67c.145-.267.118-.556-.17-.834l-15.482-15.154 36.631-2.025zm-35.909 27.648h10.155v85.092H-443.6v-85.092zm32.459 139.721h-38.822l19.142-34.035 19.68 34.035zm-15.482 65.666l-24.705 45.016c-.59 1.068-2.362 1.09-2.991.044l-27.08-44.993c-.564-.935.236-2.048 1.483-2.048l51.784-.022c1.207 0 2.021 1.068 1.509 2.003zm-4.028-16.823l-19.142-34.034h38.822l-19.68 34.034zm22.96 83.957c2.27-.089 3.411-2.359 1.929-3.816l-18.04-29.885 36.486-1.913c2.27-.089 3.412-2.359 1.929-3.816l-22.278-34.647c-.052-.056-.118-.089-.183-.145h22.986c-.499.445-.669 1.124-.302 1.736l16.361 27.214c.682 1.124 2.584 1.102 3.214-.044l14.957-27.214c.328-.601.144-1.258-.341-1.692h24.521a1.578 1.578 0 0 0-.21.178l-21.569 34.97c-1.457 1.479-.263 3.727 2.007 3.782l36.513 1.38-17.423 30.152c-1.457 1.479-.263 3.727 2.007 3.783l38.389 1.568-14.602 15.632c-.25.267-.263.545-.132.801H-428.67c.145-.267.118-.556-.17-.834l-15.482-15.154 36.631-2.036zm-35.909 27.648h10.155v85.092H-443.6v-85.092zm12.779 105.686l19.68 34.035h-38.822l19.142-34.035zm.17 82.878l-19.142-34.034h38.822l-19.68 34.034zm43.073-82.878l19.68 34.035h-38.822l19.142-34.035zm.171 82.878l-19.142-34.034h38.822l-19.68 34.034zm43.086-82.878l19.68 34.035h-38.822l19.142-34.035zm.157 82.878l-19.142-34.034h38.822l-19.68 34.034zm43.086-82.878l19.68 34.035h-38.822l19.142-34.035zm.157 82.878l-19.142-34.034h38.822l-19.68 34.034zm43.086-82.878l19.68 34.035h-38.835l19.155-34.035zm.158 82.878l-19.142-34.034h38.822l-19.68 34.034zm43.086-82.878l19.68 34.035h-38.822l19.142-34.035zm.157 82.878l-19.142-34.034h38.822l-19.68 34.034zm43.086-82.878l19.68 34.035h-38.822l19.142-34.035zm.158 82.878l-19.142-34.034h38.822l-19.68 34.034zm43.086-82.878l19.68 34.035h-38.822l19.142-34.035zm.157 82.878l-19.142-34.034h38.822l-19.68 34.034zm43.086-82.878l19.68 34.035h-38.822l19.142-34.035zm.17 82.878l-19.141-34.034h38.822l-19.68 34.034zm43.074-82.878l19.68 34.035H-60.76l19.143-34.035zm.17 82.878l-19.142-34.034h38.822l-19.68 34.034zm43.073-82.878l19.68 34.035h-38.822l19.142-34.035zm.17 82.878l-19.142-34.034h38.823l-19.68 34.034zm43.087-82.878l19.68 34.035H25.74l19.143-34.035zm.157 82.878l-19.142-34.034H64.72l-19.68 34.034zm43.086-82.878l19.68 34.035H68.984l19.142-34.035zm.157 82.878l-19.142-34.034h38.822l-19.68 34.034zm43.086-82.878l19.68 34.035h-38.822l19.142-34.035zm.158 82.878l-19.142-34.034h38.822l-19.68 34.034zm43.086-82.878l19.68 34.035h-38.822l19.142-34.035zm.157 82.878l-19.142-34.034h38.822l-19.68 34.034zm43.086-82.878l19.68 34.035h-38.822l19.142-34.035zm.158 82.878l-19.142-34.034h38.822l-19.68 34.034zm43.086-82.878l19.68 34.035h-38.822l19.142-34.035zm.17 82.878l-19.142-34.034h38.822l-19.68 34.034zm43.073-82.878l19.68 34.035h-38.822l19.142-34.035zm.171 82.878l-19.142-34.034h38.822l-19.68 34.034zm43.073-82.878l19.68 34.035h-38.822l19.142-34.035zm.17 82.878l-19.142-34.034h38.822l-19.68 34.034zm43.086-82.878l19.68 34.035h-38.822l19.142-34.035zm.158 82.878l-19.142-34.034h38.822l-19.68 34.034zm43.086-82.878l19.68 34.035h-38.822l19.142-34.035zm.157 82.878l-19.142-34.034h38.822l-19.68 34.034zm43.086-82.878l19.68 34.035h-38.822l19.142-34.035zm.157 82.878l-19.142-34.034h38.822l-19.68 34.034zm43.086-82.878l19.68 34.035h-38.822l19.142-34.035zm.158 82.878l-19.142-34.034h38.822l-19.68 34.034zm43.086-82.878l19.68 34.035h-38.822l19.142-34.035zm.157 82.878l-19.142-34.034h38.822l-19.68 34.034zm43.086-82.878l19.68 34.035h-38.822l19.142-34.035zm.171 82.878l-19.142-34.034h38.822l-19.68 34.034zm43.073-82.878l19.68 34.035h-38.822l19.142-34.035zm.17 82.878l-19.142-34.034h38.822l-19.68 34.034zm43.073-82.878l19.68 34.035h-38.822l19.142-34.035zm.171 82.878l-19.142-34.034h38.822l-19.68 34.034zm43.086-82.878l19.68 34.035h-38.822l19.142-34.035zm.157 82.878l-19.142-34.034h38.822l-19.68 34.034zm43.086-82.878l19.68 34.035h-38.822l19.142-34.035zm.158 82.878l-19.142-34.034h38.822l-19.68 34.034zm43.086-82.878l19.679 34.035h-38.821l19.142-34.035zm.157 82.878l-19.142-34.034h38.822l-19.68 34.034zm85.87-82.878l19.68 34.035h-38.822l19.142-34.035zm.158 82.878l-19.143-34.034h38.823l-19.68 34.034zm43.086-82.878l19.68 34.035h-38.823l19.143-34.035zm.157 82.878l-19.142-34.034h38.822l-19.68 34.034zm43.257 0l-19.142-34.034h38.826l-19.684 34.034zm-19.313-48.832l19.142-34.034 19.675 34.034h-38.817zm62.557 48.832l-19.14-34.034h38.82l-19.68 34.034zm-19.31-48.832l19.14-34.034 19.68 34.034h-38.82zm62.55 48.832l-19.14-34.034h38.82l-19.68 34.034zm-19.31-48.832l19.14-34.034 19.68 34.034h-38.82zm62.56 48.832l-19.15-34.034h38.83l-19.68 34.034zm-19.32-48.832l19.15-34.034 19.68 34.034h-38.83zm62.56 48.832l-19.14-34.034h38.82l-19.68 34.034zm-19.31-48.832l19.14-34.034 19.68 34.034h-38.82zm62.55 48.832l-19.14-34.034h38.82l-19.68 34.034zm-19.31-48.832l19.14-34.034 19.68 34.034h-38.82zm62.56 48.832l-19.15-34.034h38.83l-19.68 34.034zm-19.3-48.832l19.14-34.034 19.68 34.034h-38.82zm62.54 48.832l-19.14-34.034h38.82l-19.68 34.034zm-19.3-48.832l19.14-34.034 19.68 34.034h-38.82zm62.56 48.832l-19.15-34.034h38.83l-19.68 34.034zm-19.32-48.832l19.15-34.034 19.68 34.034h-38.83zm62.56 48.832l-19.14-34.034h38.82l-19.68 34.034zm-19.31-48.832l19.14-34.034 19.68 34.034h-38.82zm62.55 48.832l-19.14-34.034h38.82l-19.68 34.034zm-19.31-48.832l19.14-34.034 19.68 34.034h-38.82zm62.56 48.832l-19.15-34.034h38.83l-19.68 34.034zm-19.32-48.832l19.15-34.034 19.68 34.034h-38.83zm62.56 48.832l-19.14-34.034h38.82l-19.68 34.034zm-19.31-48.832l19.14-34.034 19.68 34.034h-38.82zm62.55 48.832l-19.14-34.034h38.82l-19.68 34.034zm-19.31-48.832l19.14-34.034 19.68 34.034h-38.82zm62.56 48.832l-19.15-34.034h38.83l-19.68 34.034zm-19.3-48.832l19.14-34.034 19.68 34.034h-38.82zm62.54 48.832l-19.14-34.034h38.82l-19.68 34.034zm-19.3-48.832l19.14-34.034 19.68 34.034h-38.82zm62.56 48.832l-19.15-34.034h38.83l-19.68 34.034zm-19.32-48.832l19.15-34.034 19.68 34.034h-38.83zm62.56 48.832L1712 756.147h38.82l-19.68 34.034zm-19.31-48.832l19.14-34.034 19.68 34.034h-38.82zm62.55 48.832l-19.14-34.034h38.82l-19.68 34.034zm-19.31-48.832l19.14-34.034 19.68 34.034h-38.82zm62.56 48.832l-19.14-34.034h38.82l-19.68 34.034zm-19.32-48.832l19.15-34.034 19.68 34.034h-38.83zm62.56 48.832l-19.14-34.034h38.82l-19.68 34.034zm-19.31-48.832l19.14-34.034 19.68 34.034h-38.82zm62.55 48.832l-19.14-34.034h38.82l-19.68 34.034zm-19.31-48.832l19.14-34.034 19.68 34.034h-38.82zm62.56 48.832l-19.14-34.034h38.82l-19.68 34.034zm-19.3-48.832l19.14-34.034 19.68 34.034h-38.82zm62.54 48.832l-19.14-34.034h38.82l-19.68 34.034zm-19.3-48.832l19.14-34.034 19.68 34.034h-38.82zm62.56 48.832l-19.14-34.034h38.82l-19.68 34.034zm-19.32-48.832l19.15-34.034 19.68 34.034h-38.83zm62.56 48.832l-19.14-34.034h38.82l-19.68 34.034zm-19.31-48.832l19.14-34.034 19.68 34.034h-38.82zm62.55 48.832l-19.14-34.034h38.82l-19.68 34.034zm-19.31-48.832l19.14-34.034 19.68 34.034h-38.82zm43.24 0l19.15-34.034 19.68 34.034h-38.83zm202.46-139.732v85.092h-10.16v-85.092h10.16zm-20.59 0v85.092h-10.15v-85.092h10.15zm-20.58 0v85.092h-10.16v-85.092h10.16zm-20.59 0v85.092h-10.15v-85.092h10.15zm-20.58 0v85.092h-10.16v-85.092h10.16zm-20.57 0v85.092h-10.16v-85.092h10.16zm-83.5-101.858a1.62 1.62 0 0 0-.21.178l-21.57 34.969c-1.45 1.479-.26 3.727 2.01 3.782l36.51 1.38-17.42 30.152c-1.46 1.48-.26 3.727 2.01 3.783l38.38 1.568-14.6 15.632c-.25.267-.26.546-.13.801h-127.24c.15-.267.12-.556-.17-.834l-15.48-15.154 36.63-2.047c2.27-.089 3.41-2.359 1.93-3.816l-18.01-29.885 36.48-1.913c2.27-.089 3.42-2.359 1.93-3.816l-22.28-34.647c-.05-.056-.11-.089-.18-.145h22.99c-.5.445-.67 1.124-.3 1.736l16.36 27.214c.68 1.124 2.58 1.102 3.21-.044l14.96-27.214c.33-.601.14-1.258-.33-1.692h24.52v.012zm-39.98-9.747l-19.14-34.034h38.82l-19.68 34.034zm-19.31-48.843l19.14-34.035 19.68 34.035h-38.82zm43.24 0l19.15-34.035 19.68 34.035h-38.83zm78.96-139.721v85.092h-10.15v-85.092h10.15zm-20.58 0v85.092h-10.16v-85.092h10.16zm144.08 0v85.092h-10.16v-85.092h10.16zm-20.59 0v85.092h-10.15v-85.092h10.15zm-20.58 0v85.092h-10.16v-85.092h10.16zm-20.59 0v85.092h-10.15v-85.092h10.15zm-20.58 0v85.092h-10.16v-85.092h10.16zm-20.57 0v85.092h-10.16v-85.092h10.16zm-61.76 0v85.092h-10.15v-85.092h10.15zm-20.58 0v85.092h-10.16v-85.092h10.16zm-20.58 0v85.092h-10.15v-85.092h10.15zm-20.58 0v85.092h-10.16v-85.092h10.16zm-20.59 0v85.092h-10.15v-85.092h10.15zm-20.58 0v85.092h-10.16v-85.092h10.16zm-20.59 85.092h-10.15v-85.092h10.15v85.092zm17.78-182.901l-17.15 31.198-2.91 5.296-14.46 26.302c-1.02 1.869-2.9 3.204-5.14 3.76-.49.123-1 .19-1.51.234-.24.022-.47.045-.71.056h-.14c-.57 0-1.11-.067-1.64-.156-.29-.045-.58-.1-.86-.178-2.08-.556-3.84-1.78-4.88-3.505l-16.17-26.903-3.13-5.195-18.46-30.697a6.023 6.023 0 0 1-.65-4.873c-.58.1-1.13.345-1.55.767l-21.57 34.97c-1.46 1.479-.26 3.727 2.01 3.782l36.51 1.38-17.42 30.152c-1.46 1.479-.27 3.727 2 3.782l38.39 1.569-14.6 15.632c-.25.267-.26.545-.13.801h-143.78c.14-.267.12-.556-.17-.834l-15.48-15.154 36.63-2.047c2.27-.089 3.41-2.359 1.93-3.816l-18.04-29.885 36.48-1.913c2.27-.089 3.41-2.359 1.93-3.817l-22.28-34.646c-.43-.423-.98-.657-1.56-.746h189a6.01 6.01 0 0 1-.49 4.684zm-148.28-63.24l19.14-34.034 19.68 34.034h-38.82zm38.98 14.798l-19.68 34.034-19.14-34.034h38.82zm4.26-14.798l19.14-34.034 19.68 34.034h-38.82zm38.98 14.798l-19.68 34.034-19.14-34.034h38.82zm4.26-14.798l19.15-34.034 19.68 34.034h-38.83zm39 14.798l-19.68 34.034-19.14-34.034h38.82zm23.56 34.034l-19.14-34.034h38.82l-19.68 34.034zm-19.31-48.832l19.14-34.034 19.68 34.034h-38.82zm62.55 48.832l-19.14-34.034h38.82l-19.68 34.034zm-19.31-48.832l19.14-34.034 19.68 34.034h-38.82zm43.24 0l19.15-34.034 19.68 34.034h-38.83zm57.47-54.64h-10.15V.668h10.15v85.091zm20.59 0h-10.16V.668h10.16v85.091zm20.58 0h-10.15V.668h10.15v85.091zm20.59 0h-10.16V.668h10.16v85.091zm20.57 0h-10.16V.668h10.16v85.091zm20.58 0h-10.15V.668h10.15v85.091zm20.59 0h-10.16V.668h10.16v85.091zm20.58 0h-10.15V.668h10.15v85.091zm20.59 0h-10.16V.668h10.16v85.091z"/></g><path opacity=".8" d="M-17-37h1973v462H-17z"/></g></svg>